<?xml version="1.0" encoding="UTF-8"?>
<svg width="20px" height="20px" viewBox="0 0 20 20" version="1.1" xmlns="http://www.w3.org/2000/svg" xmlns:xlink="http://www.w3.org/1999/xlink">
    <title>icon/map_view/expand</title>
    <g id="icon/map_view/expand" stroke="none" stroke-width="1" fill="none" fill-rule="evenodd">
        <path d="M15.25,19 L13.75,19 C13.3357864,19 13,18.6642136 13,18.25 C13,17.8357864 13.3357864,17.5 13.75,17.5 L15.25,17.5 C16.4926407,17.5 17.5,16.4926407 17.5,15.25 L17.5,13.75 C17.5,13.3357864 17.8357864,13 18.25,13 C18.6642136,13 19,13.3357864 19,13.75 L19,15.25 C18.9975204,17.3200399 17.3200399,18.9975204 15.25,19 Z M1.75,7 C1.33578644,7 1,6.66421356 1,6.25 L1,4.75 C1.00247959,2.67996014 2.67996014,1.00247959 4.75,1 L6.25,1 C6.66421356,1 7,1.33578644 7,1.75 C7,2.16421356 6.66421356,2.5 6.25,2.5 L4.75,2.5 C3.50735931,2.5 2.5,3.50735931 2.5,4.75 L2.5,6.25 C2.5,6.66421356 2.16421356,7 1.75,7 Z M6.25,19 L4.75,19 C2.67996014,18.9975204 1.00247959,17.3200399 1,15.25 L1,13.75 C1,13.3357864 1.33578644,13 1.75,13 C2.16421356,13 2.5,13.3357864 2.5,13.75 L2.5,15.25 C2.5,16.4926407 3.50735931,17.5 4.75,17.5 L6.25,17.5 C6.66421356,17.5 7,17.8357864 7,18.25 C7,18.6642136 6.66421356,19 6.25,19 Z M18.25,7 C17.8357864,7 17.5,6.66421356 17.5,6.25 L17.5,4.75 C17.5,3.50735931 16.4926407,2.5 15.25,2.5 L13.75,2.5 C13.3357864,2.5 13,2.16421356 13,1.75 C13,1.33578644 13.3357864,1 13.75,1 L15.25,1 C17.3200399,1.00247959 18.9975204,2.67996014 19,4.75 L19,6.25 C19,6.66421356 18.6642136,7 18.25,7 Z" id="Combined-Shape" fill="#303134" fill-rule="nonzero"></path>
    </g>
</svg>