<?xml version="1.0" encoding="UTF-8"?>
<svg width="20px" height="20px" viewBox="0 0 20 20" version="1.1" xmlns="http://www.w3.org/2000/svg" xmlns:xlink="http://www.w3.org/1999/xlink">
    <title>icon/map_view/GPS</title>
    <g id="icon/map_view/GPS" stroke="none" stroke-width="1" fill="none" fill-rule="evenodd">
        <path d="M10,6.04166667 C7.817375,6.04166667 6.04166667,7.817375 6.04166667,10 C6.04166667,12.182625 7.817375,13.9583333 10,13.9583333 C12.182625,13.9583333 13.9583333,12.182625 13.9583333,10 C13.9583333,7.817375 12.182625,6.04166667 10,6.04166667 Z M10,12.375 C8.69058333,12.375 7.625,11.3094167 7.625,10 C7.625,8.69058333 8.69058333,7.625 10,7.625 C11.3094167,7.625 12.375,8.69058333 12.375,10 C12.375,11.3094167 11.3094167,12.375 10,12.375 Z M18.7083333,9.20833333 L17.8770833,9.20833333 C17.5042083,5.47404167 14.5259583,2.495 10.7916667,2.12291667 L10.7916667,1.29166667 C10.7916667,0.853875 10.437,0.5 10,0.5 C9.563,0.5 9.20833333,0.853875 9.20833333,1.29166667 L9.20833333,2.12291667 C5.47404167,2.495 2.495,5.47404167 2.12291667,9.20833333 L1.29166667,9.20833333 C0.854666667,9.20833333 0.5,9.56220833 0.5,10 C0.5,10.4377917 0.854666667,10.7916667 1.29166667,10.7916667 L2.12291667,10.7916667 C2.49579167,14.5259583 5.47404167,17.505 9.20833333,17.8770833 L9.20833333,18.7083333 C9.20833333,19.146125 9.563,19.5 10,19.5 C10.437,19.5 10.7916667,19.146125 10.7916667,18.7083333 L10.7916667,17.8770833 C14.5259583,17.5042083 17.505,14.5259583 17.8770833,10.7916667 L18.7083333,10.7916667 C19.1453333,10.7916667 19.5,10.4377917 19.5,10 C19.5,9.56220833 19.1453333,9.20833333 18.7083333,9.20833333 Z M10,16.3333333 C6.50795833,16.3333333 3.66666667,13.4920417 3.66666667,10 C3.66666667,6.50795833 6.50795833,3.66666667 10,3.66666667 C13.4920417,3.66666667 16.3333333,6.50795833 16.3333333,10 C16.3333333,13.4920417 13.4920417,16.3333333 10,16.3333333 Z" id="Shape" fill="#303134" fill-rule="nonzero"></path>
    </g>
</svg>