<?xml version="1.0" encoding="UTF-8"?>
<svg width="20px" height="20px" viewBox="0 0 20 20" version="1.1" xmlns="http://www.w3.org/2000/svg" xmlns:xlink="http://www.w3.org/1999/xlink">
    <title>icon/map_view/select</title>
    <g id="icon/map_view/select" stroke="none" stroke-width="1" fill="none" fill-rule="evenodd">
        <path d="M9.31647343,7.11219738 L10.8030337,8.88511142 L10.8626648,8.78778682 C10.8992493,8.73350553 10.938732,8.68090948 10.9811203,8.63008217 L11.1170097,8.48298996 L11.2268688,8.38345934 C11.7623819,7.93411048 12.487415,7.81097513 13.1371223,8.04288879 L13.1676322,8.05495776 L13.1963276,7.98717554 C13.2706077,7.82724195 13.365721,7.67836757 13.4810087,7.5430382 L13.6029968,7.41231591 L13.7128558,7.31278529 C14.5362845,6.62184661 15.7639218,6.72925095 16.4548604,7.55267961 L18.1213468,9.53872075 C19.1161168,10.7242414 19.5991973,12.2563771 19.4643162,13.7980754 C19.3294351,15.3397737 18.5876411,16.7647467 17.4021204,17.7595167 C15.0973663,19.693435 13.0745489,19.5740407 8.10317404,17.2941384 C7.0925012,16.9254405 6.57207767,15.8072396 6.94077553,14.7965668 C7.30947462,13.7858906 8.42767764,13.2654716 9.43835645,13.6341716 L9.82644327,13.7761334 L6.33455507,9.6142845 C5.71273154,8.87322407 5.73459905,7.797254 6.36071434,7.08169675 L6.46459034,6.97181052 L6.57150242,6.87475269 C7.39787804,6.18134122 8.62551532,6.28874556 9.31647343,7.11219738 Z M1.75,13.75 C2.164,13.75 2.5,14.08525 2.5,14.5 L2.5,15.25 C2.5,16.4905 3.5095,17.5 4.75,17.5 L5.5,17.5 C5.914,17.5 6.25,17.83525 6.25,18.25 C6.25,18.66475 5.914,19 5.5,19 L4.75,19 C2.68225,19 1,17.31775 1,15.25 L1,14.5 C1,14.08525 1.336,13.75 1.75,13.75 Z M7.41007328,7.86813767 C7.1366417,8.09757402 7.1009765,8.50522902 7.33041285,8.77866061 L12.3840328,14.8013304 C12.8116691,15.3109675 12.2883024,16.0577955 11.6633168,15.8297698 L8.99282157,14.8554409 C8.65663898,14.7328 8.28468908,14.9059098 8.16204821,15.2420924 C8.03754059,15.5833921 8.21792617,15.9524464 8.59666791,16.0925666 C13.1438813,18.1758262 14.7276736,18.3066145 16.5664965,16.7636589 C17.4878993,15.9905102 18.0644317,14.8830018 18.1692631,13.6847729 C18.2740945,12.4865441 17.8986378,11.2957474 17.1254891,10.3743446 L15.4590027,8.3883035 C15.2295663,8.11487191 14.8219113,8.07920672 14.5484797,8.30864306 C14.2750481,8.53807941 14.239383,8.94573441 14.4688193,9.219166 C15.0259019,9.88307118 14.0300441,10.7186951 13.4729615,10.0547899 L12.9730156,9.45897755 C12.7435793,9.18554596 12.3359243,9.14988077 12.0624927,9.37931711 C11.7890611,9.60875346 11.7533959,10.0164085 11.9828322,10.2898401 C12.5399148,10.9537452 11.544057,11.7893691 10.9869745,11.1254639 L8.32059622,7.94779811 C8.09115988,7.67436652 7.68350487,7.63870133 7.41007328,7.86813767 Z M1.75,7.75 C2.164,7.75 2.5,8.08525 2.5,8.5 L2.5,11.5 C2.5,11.91475 2.164,12.25 1.75,12.25 C1.336,12.25 1,11.91475 1,11.5 L1,8.5 C1,8.08525 1.336,7.75 1.75,7.75 Z M5.5,1 C5.914,1 6.25,1.33525 6.25,1.75 C6.25,2.16475 5.914,2.5 5.5,2.5 L4.75,2.5 C3.5095,2.5 2.5,3.5095 2.5,4.75 L2.5,5.5 C2.5,5.91475 2.164,6.25 1.75,6.25 C1.336,6.25 1,5.91475 1,5.5 L1,4.75 C1,2.68225 2.68225,1 4.75,1 L5.5,1 Z M15.25,1 C17.31775,1 19,2.68225 19,4.75 L19,5.5 C19,5.91475 18.664,6.25 18.25,6.25 C17.836,6.25 17.5,5.91475 17.5,5.5 L17.5,4.75 C17.5,3.5095 16.4905,2.5 15.25,2.5 L14.5,2.5 C14.086,2.5 13.75,2.16475 13.75,1.75 C13.75,1.33525 14.086,1 14.5,1 Z M11.5,1 C11.914,1 12.25,1.33525 12.25,1.75 C12.25,2.16475 11.914,2.5 11.5,2.5 L8.5,2.5 C8.086,2.5 7.75,2.16475 7.75,1.75 C7.75,1.33525 8.086,1 8.5,1 Z" id="Combined-Shape" fill="#303134" fill-rule="nonzero"></path>
    </g>
</svg>