<?xml version="1.0" encoding="UTF-8"?>
<svg width="20px" height="20px" viewBox="0 0 20 20" version="1.1" xmlns="http://www.w3.org/2000/svg" xmlns:xlink="http://www.w3.org/1999/xlink">
    <title>icon/map_view/shrink</title>
    <g id="icon/map_view/shrink" stroke="none" stroke-width="1" fill="none" fill-rule="evenodd">
        <path d="M5.5,4.75 C5.5,5.16421356 5.16421356,5.5 4.75,5.5 L1.75,5.5 C1.33578644,5.5 1,5.83578644 1,6.25 C1,6.66421356 1.33578644,7 1.75,7 L4.75,7 L4.75,7 C5.99264069,7 7,5.99264069 7,4.75 L7,1.75 C7,1.33578644 6.66421356,1 6.25,1 C5.83578644,1 5.5,1.33578644 5.5,1.75 L5.5,4.75 L5.5,4.75 Z M13,15.25 L13,18.25 C13,18.6642136 13.3357864,19 13.75,19 C14.1642136,19 14.5,18.6642136 14.5,18.25 L14.5,15.25 L14.5,15.25 C14.5,14.8357864 14.8357864,14.5 15.25,14.5 L18.25,14.5 C18.6642136,14.5 19,14.1642136 19,13.75 C19,13.3357864 18.6642136,13 18.25,13 L15.25,13 L15.25,13 C14.0073593,13 13,14.0073593 13,15.25 Z M15.25,5.5 C14.8357864,5.5 14.5,5.16421356 14.5,4.75 L14.5,1.75 C14.5,1.33578644 14.1642136,1 13.75,1 C13.3357864,1 13,1.33578644 13,1.75 L13,4.75 L13,4.75 C13,5.99264069 14.0073593,7 15.25,7 L18.25,7 C18.6642136,7 19,6.66421356 19,6.25 C19,5.83578644 18.6642136,5.5 18.25,5.5 L15.25,5.5 L15.25,5.5 Z M4.75,13 L1.75,13 C1.33578644,13 1,13.3357864 1,13.75 C1,14.1642136 1.33578644,14.5 1.75,14.5 L4.75,14.5 L4.75,14.5 C5.16421356,14.5 5.5,14.8357864 5.5,15.25 L5.5,18.25 C5.5,18.6642136 5.83578644,19 6.25,19 C6.66421356,19 7,18.6642136 7,18.25 L7,15.25 L7,15.25 C7,14.0073593 5.99264069,13 4.75,13 Z" id="Combined-Shape" fill="#303134" fill-rule="nonzero"></path>
    </g>
</svg>