<?xml version="1.0" encoding="UTF-8"?>
<svg width="20px" height="20px" viewBox="0 0 20 20" version="1.1" xmlns="http://www.w3.org/2000/svg" xmlns:xlink="http://www.w3.org/1999/xlink">
    <title>icon/map_view/unselect</title>
    <g id="icon/map_view/unselect" stroke="none" stroke-width="1" fill="none" fill-rule="evenodd">
        <path d="M1.75,13.75 C2.164,13.75 2.5,14.08525 2.5,14.5 L2.5,15.25 C2.5,16.4905 3.5095,17.5 4.75,17.5 L5.5,17.5 C5.914,17.5 6.25,17.83525 6.25,18.25 C6.25,18.66475 5.914,19 5.5,19 L4.75,19 C2.68225,19 1,17.31775 1,15.25 L1,14.5 C1,14.08525 1.336,13.75 1.75,13.75 Z M17.3325792,9.2674208 C19.5558069,11.4906485 19.5558069,15.1093515 17.3325792,17.3325792 C15.1093515,19.5558069 11.4906485,19.5558069 9.2674208,17.3325792 C7.16436754,15.2295259 7.05068899,11.8777823 8.92638513,9.63973549 L9.034,9.516 L9.03948928,9.49442807 C9.06135864,9.42548739 9.09416268,9.35926429 9.1379014,9.29847635 L9.21171049,9.21171049 C9.29372059,9.12970039 9.39101706,9.07229332 9.49442807,9.03948928 L9.516,9.034 L9.63973549,8.92638513 C11.8777823,7.05068899 15.2295259,7.16436754 17.3325792,9.2674208 Z M9.802,10.792 L9.69214244,10.9545333 C8.60878906,12.6213885 8.79719834,14.8824578 10.2573703,16.3426297 C11.7175422,17.8028017 13.9786115,17.9912109 15.6454667,16.9078576 L15.807,16.797 L9.802,10.792 Z M10.9545333,9.69214244 L10.792,9.802 L16.797,15.807 L16.9078576,15.6454667 C17.9510867,14.0403469 17.8150134,11.8842137 16.4996374,10.4228366 L16.3426297,10.2573703 C14.8824578,8.79719834 12.6213885,8.60878906 10.9545333,9.69214244 Z M1.75,7.75 C2.164,7.75 2.5,8.08525 2.5,8.5 L2.5,11.5 C2.5,11.91475 2.164,12.25 1.75,12.25 C1.336,12.25 1,11.91475 1,11.5 L1,8.5 C1,8.08525 1.336,7.75 1.75,7.75 Z M5.5,1 C5.914,1 6.25,1.33525 6.25,1.75 C6.25,2.16475 5.914,2.5 5.5,2.5 L4.75,2.5 C3.5095,2.5 2.5,3.5095 2.5,4.75 L2.5,5.5 C2.5,5.91475 2.164,6.25 1.75,6.25 C1.336,6.25 1,5.91475 1,5.5 L1,4.75 C1,2.68225 2.68225,1 4.75,1 L5.5,1 Z M15.25,1 C17.31775,1 19,2.68225 19,4.75 L19,5.5 C19,5.91475 18.664,6.25 18.25,6.25 C17.836,6.25 17.5,5.91475 17.5,5.5 L17.5,4.75 C17.5,3.5095 16.4905,2.5 15.25,2.5 L14.5,2.5 C14.086,2.5 13.75,2.16475 13.75,1.75 C13.75,1.33525 14.086,1 14.5,1 Z M11.5,1 C11.914,1 12.25,1.33525 12.25,1.75 C12.25,2.16475 11.914,2.5 11.5,2.5 L8.5,2.5 C8.086,2.5 7.75,2.16475 7.75,1.75 C7.75,1.33525 8.086,1 8.5,1 Z" id="Combined-Shape" fill="#303134" fill-rule="nonzero"></path>
    </g>
</svg>