<?xml version="1.0" encoding="UTF-8"?>
<svg width="12px" height="12px" viewBox="0 0 12 12" version="1.1" xmlns="http://www.w3.org/2000/svg" xmlns:xlink="http://www.w3.org/1999/xlink">
    <title>icon/angle/down</title>
    <g id="icon/angle/down" stroke="none" stroke-width="1" fill="none" fill-rule="evenodd">
        <path d="M10.7923145,3.70618416 C10.6582106,3.57422509 10.4756628,3.5 10.285229,3.5 C10.0947952,3.5 9.9122474,3.57422509 9.77814358,3.70618416 L6.50708543,6.89864117 C6.37298162,7.03060023 6.19043382,7.10482532 6,7.10482532 C5.80956618,7.10482532 5.62701838,7.03060023 5.49291457,6.89864117 L2.22185642,3.70618416 C2.0877526,3.57422509 1.9052048,3.5 1.71477098,3.5 C1.52433717,3.5 1.34178936,3.57422509 1.20768555,3.70618416 C0.930771483,3.97805704 0.930771483,4.41714192 1.20768555,4.68901481 L4.48588575,7.88844225 C5.32241258,8.70385258 6.67758742,8.70385258 7.51411425,7.88844225 L10.7923145,4.68901481 C11.0692285,4.41714192 11.0692285,3.97805704 10.7923145,3.70618416 Z" id="Path" fill="#303134" fill-rule="nonzero"></path>
    </g>
</svg>