<?xml version="1.0" encoding="UTF-8"?>
<svg width="12px" height="12px" viewBox="0 0 12 12" version="1.1" xmlns="http://www.w3.org/2000/svg" xmlns:xlink="http://www.w3.org/1999/xlink">
    <title>icon/angle/gotolink</title>
    <g id="icon/angle/gotolink" stroke="none" stroke-width="1" fill="none" fill-rule="evenodd">
        <path d="M6,0 C2.6859375,0 0,2.6859375 0,6 C0,9.3140625 2.6859375,12 6,12 C9.3140625,12 12,9.3140625 12,6 C12,2.6859375 9.3140625,0 6,0 Z M8.4046875,6.5296875 L5.7796875,9.1546875 C5.48671875,9.44765625 5.01210938,9.44765625 4.71914063,9.1546875 C4.42617188,8.86171875 4.42617188,8.38710937 4.71914063,8.09414062 L6.815625,6 L4.7203125,3.9046875 C4.42734375,3.61171875 4.42734375,3.13710937 4.7203125,2.84414062 C5.01328125,2.55117187 5.48789063,2.55117187 5.78085938,2.84414062 L8.40585937,5.46914062 C8.55234375,5.615625 8.625,5.8078125 8.625,6 C8.625,6.1921875 8.55234375,6.384375 8.4046875,6.5296875 Z" id="Shape" fill="#FFB01D" fill-rule="nonzero"></path>
    </g>
</svg>