<?xml version="1.0" encoding="UTF-8"?>
<svg width="50px" height="50px" viewBox="0 0 50 50" version="1.1" xmlns="http://www.w3.org/2000/svg" xmlns:xlink="http://www.w3.org/1999/xlink">
    <title>icon/angle/large_left</title>
    <g id="icon/angle/large_left" stroke="none" stroke-width="1" fill="none" fill-rule="evenodd">
        <path d="M19.043,28.936 L18.8587084,28.7392956 C17.9474144,27.7163823 17.4410212,26.3844576 17.4410212,25.0013856 C17.4410212,23.5261087 18.0171841,22.1090262 19.0421215,21.0673855 L35.043473,4.70689227 C35.3339119,4.41171651 35.5,4.00321987 35.5,3.57405299 C35.5,3.14488611 35.3339119,2.73638947 35.041896,2.43960917 C34.466453,1.85346361 33.5575521,1.85346361 32.9862703,2.43535804 L16.9900017,18.8263769 C13.6699994,22.2325452 13.6699994,27.7702259 16.9891331,31.1755037 L32.9805498,47.5615754 C33.2571337,47.8426773 33.6238469,47.998357 34.0062958,48.0000584 C34.3907178,48.0022869 34.7632499,47.8463643 35.043473,47.5615574 C35.3339119,47.2663817 35.5,46.857885 35.5,46.4287181 C35.5,45.9995513 35.3339119,45.5910546 35.0392586,45.2915828 L19.0463358,28.9396817 L19.043,28.936 Z" id="Path" fill="#303134" fill-rule="nonzero"></path>
    </g>
</svg>