<?xml version="1.0" encoding="UTF-8"?>
<svg width="50px" height="50px" viewBox="0 0 50 50" version="1.1" xmlns="http://www.w3.org/2000/svg" xmlns:xlink="http://www.w3.org/1999/xlink">
    <title>icon/angle/large_right</title>
    <g id="icon/angle/large_right" stroke="none" stroke-width="1" fill="none" fill-rule="evenodd">
        <path d="M17.0179181,2.43959651 C16.4424693,1.85346783 15.5335255,1.85346783 14.9564996,2.44120101 C14.6660756,2.73635022 14.5,3.14480015 14.5,3.57391371 C14.5,4.00302726 14.6660756,4.41147719 14.9591919,4.7093677 L30.988489,21.0621862 C32.0176556,22.1080972 32.5938309,23.5251553 32.5938309,25.0004112 C32.5938309,26.4756672 32.0176556,27.8927253 30.9911812,28.935895 L14.957294,45.2933884 C14.3517003,45.9095327 14.3481744,46.9319308 14.949737,47.552686 C15.524847,48.1461448 16.439759,48.1494573 17.0137569,47.565477 L33.0100255,31.175097 C36.3299915,27.7690986 36.3299915,22.2317239 33.0100255,18.8257255 L17.0179181,2.43959651 Z" id="Path" fill="#303134" fill-rule="nonzero"></path>
    </g>
</svg>