<?xml version="1.0" encoding="UTF-8"?>
<svg width="12px" height="12px" viewBox="0 0 12 12" version="1.1" xmlns="http://www.w3.org/2000/svg" xmlns:xlink="http://www.w3.org/1999/xlink">
    <title>icon/angle/left</title>
    <g id="icon/angle/left" stroke="none" stroke-width="1" fill="none" fill-rule="evenodd">
        <path d="M5.0943884,6.50739065 C4.96242934,6.3732794 4.88820425,6.19072148 4.88820425,6.00027711 C4.88820425,5.80983274 4.96242934,5.62727482 5.0943884,5.49316357 L8.29381584,2.22192414 C8.42577491,2.08781289 8.5,1.90525497 8.5,1.7148106 C8.5,1.52436623 8.42577491,1.34180831 8.29381584,1.20769706 C8.02194296,0.930767647 7.58285808,0.930767647 7.31098519,1.20769706 L4.11155775,4.48607894 C3.29614742,5.32265214 3.29614742,6.67790209 4.11155775,7.51447528 L7.31098519,10.7928572 C7.44081687,10.9248097 7.61605312,10.9991991 7.7989153,11 C7.98419142,11.0010857 8.1622707,10.9265541 8.29381584,10.7928572 C8.42577491,10.6587459 8.5,10.476188 8.5,10.2857436 C8.5,10.0952993 8.42577491,9.91274134 8.29381584,9.77863009 L5.0943884,6.50739065 Z" id="Path" fill="#303134" fill-rule="nonzero"></path>
    </g>
</svg>