<?xml version="1.0" encoding="UTF-8"?>
<svg width="12px" height="12px" viewBox="0 0 12 12" version="1.1" xmlns="http://www.w3.org/2000/svg" xmlns:xlink="http://www.w3.org/1999/xlink">
    <title>icon/angle/left-end</title>
    <g id="icon/angle/left-end" stroke="none" stroke-width="1" fill="none" fill-rule="evenodd">
        <path d="M2.95,1 C3.33659932,1 3.65,1.3013468 3.65,1.67307692 L3.65,10.3269231 C3.65,10.6986532 3.33659932,11 2.95,11 C2.56340068,11 2.25,10.6986532 2.25,10.3269231 L2.25,1.67307692 C2.25,1.3013468 2.56340068,1 2.95,1 Z M6.2943884,6.50739065 C6.16242934,6.3732794 6.08820425,6.19072148 6.08820425,6.00027711 C6.08820425,5.80983274 6.16242934,5.62727482 6.2943884,5.49316357 L9.49381584,2.22192414 C9.62577491,2.08781289 9.7,1.90525497 9.7,1.7148106 C9.7,1.52436623 9.62577491,1.34180831 9.49381584,1.20769706 C9.22194296,0.930767647 8.78285808,0.930767647 8.51098519,1.20769706 L5.31155775,4.48607894 C4.49614742,5.32265214 4.49614742,6.67790209 5.31155775,7.51447528 L8.51098519,10.7928572 C8.64081687,10.9248097 8.81605312,10.9991991 8.9989153,11 C9.18419142,11.0010857 9.3622707,10.9265541 9.49381584,10.7928572 C9.62577491,10.6587459 9.7,10.476188 9.7,10.2857436 C9.7,10.0952993 9.62577491,9.91274134 9.49381584,9.77863009 L6.2943884,6.50739065 Z" id="Combined-Shape" fill="#303134" fill-rule="nonzero"></path>
    </g>
</svg>