<?xml version="1.0" encoding="UTF-8"?>
<svg width="12px" height="12px" viewBox="0 0 12 12" version="1.1" xmlns="http://www.w3.org/2000/svg" xmlns:xlink="http://www.w3.org/1999/xlink">
    <title>icon/angle/left-end_solid</title>
    <g id="icon/angle/left-end_solid" stroke="none" stroke-width="1" fill="none" fill-rule="evenodd">
        <path d="M9.28626614,1.23346391 C9.6297571,0.913996891 10.1767212,0.923588713 10.5079446,1.25488784 C10.839168,1.58618698 10.8292232,2.11373718 10.4857323,2.4332042 L6.64983956,6 L10.4857323,9.5667958 C10.800599,9.85964057 10.8351943,10.327333 10.5836472,10.6584328 L10.5079446,10.7451122 C10.1767212,11.0764113 9.6297571,11.0860031 9.28626614,10.7665361 L4.80626664,6.59987014 C4.45391085,6.27215831 4.45391085,5.72784169 4.80626664,5.40012986 L9.28626614,1.23346391 Z M2.1139999,1.41666746 C2.59117387,1.41666746 2.97799981,1.78976344 2.97799981,2.25000065 L2.97799981,9.74999935 C2.97799981,10.2102366 2.59117387,10.5833325 2.1139999,10.5833325 C1.63682593,10.5833325 1.25,10.2102366 1.25,9.74999935 L1.25,2.25000065 C1.25,1.78976344 1.63682593,1.41666746 2.1139999,1.41666746 Z" id="Combined-Shape" fill="#303134" fill-rule="nonzero"></path>
    </g>
</svg>