<?xml version="1.0" encoding="UTF-8"?>
<svg width="12px" height="12px" viewBox="0 0 12 12" version="1.1" xmlns="http://www.w3.org/2000/svg" xmlns:xlink="http://www.w3.org/1999/xlink">
    <title>icon/angle/right-end_solid</title>
    <g id="icon/angle/right-end_solid" stroke="none" stroke-width="1" fill="none" fill-rule="evenodd">
        <path d="M1.4920554,1.25488784 C1.82327882,0.923588713 2.3702429,0.913996891 2.71373386,1.23346391 L7.19373336,5.40012986 C7.54608915,5.72784169 7.54608915,6.27215831 7.19373336,6.59987014 L2.71373386,10.7665361 C2.3702429,11.0860031 1.82327882,11.0764113 1.4920554,10.7451122 C1.16083197,10.413813 1.17077677,9.88626282 1.51426773,9.5667958 L5.34920044,6 L1.51426773,2.4332042 C1.19940102,2.14035943 1.16480573,1.67266699 1.4163528,1.3415672 L1.4920554,1.25488784 Z M9.8839999,1.41666746 C10.3611739,1.41666746 10.7479998,1.78976344 10.7479998,2.25000065 L10.7479998,9.74999935 C10.7479998,10.2102366 10.3611739,10.5833325 9.8839999,10.5833325 C9.40682593,10.5833325 9.02,10.2102366 9.02,9.74999935 L9.02,2.25000065 C9.02,1.78976344 9.40682593,1.41666746 9.8839999,1.41666746 Z" id="Combined-Shape" fill="#303134" fill-rule="nonzero"></path>
    </g>
</svg>