<?xml version="1.0" encoding="UTF-8"?>
<svg width="12px" height="12px" viewBox="0 0 12 12" version="1.1" xmlns="http://www.w3.org/2000/svg" xmlns:xlink="http://www.w3.org/1999/xlink">
    <title>icon/angle/right</title>
    <g id="icon/angle/right" stroke="none" stroke-width="1" fill="none" fill-rule="evenodd">
        <path d="M7.88844225,4.48594309 L4.68901481,1.20768897 C4.41714192,0.930770345 3.97805704,0.930770345 3.70618416,1.20768897 C3.57422509,1.34179499 3.5,1.52434579 3.5,1.71478274 C3.5,1.90521969 3.57422509,2.0877705 3.70618416,2.22187652 L6.91258203,5.49298847 C7.04454109,5.62709449 7.11876618,5.8096453 7.11876618,6.00008225 C7.11876618,6.1905192 7.04454109,6.37307 6.91258203,6.50717602 L3.70618416,9.77828798 C3.43285813,10.0563759 3.43129775,10.5088443 3.70269894,10.7889044 C3.97410013,11.0689646 4.41568879,11.0705634 4.68901481,10.7924755 L7.88844225,7.51422141 C8.70385258,6.67768081 8.70385258,5.32248368 7.88844225,4.48594309 L7.88844225,4.48594309 Z" id="Path" fill="#303134" fill-rule="nonzero"></path>
    </g>
</svg>