<?xml version="1.0" encoding="UTF-8"?>
<svg width="12px" height="12px" viewBox="0 0 12 12" version="1.1" xmlns="http://www.w3.org/2000/svg" xmlns:xlink="http://www.w3.org/1999/xlink">
    <title>icon/angle/right-end</title>
    <g id="icon/angle/right-end" stroke="none" stroke-width="1" fill="none" fill-rule="evenodd">
        <path d="M9,1 C9.38659932,1 9.7,1.3013468 9.7,1.67307692 L9.7,10.3269231 C9.7,10.6986532 9.38659932,11 9,11 C8.61340068,11 8.3,10.6986532 8.3,10.3269231 L8.3,1.67307692 C8.3,1.3013468 8.61340068,1 9,1 Z M6.63844225,4.48594309 L3.43901481,1.20768897 C3.16714192,0.930770345 2.72805704,0.930770345 2.45618416,1.20768897 C2.32422509,1.34179499 2.25,1.52434579 2.25,1.71478274 C2.25,1.90521969 2.32422509,2.0877705 2.45618416,2.22187652 L5.66258203,5.49298847 C5.79454109,5.62709449 5.86876618,5.8096453 5.86876618,6.00008225 C5.86876618,6.1905192 5.79454109,6.37307 5.66258203,6.50717602 L2.45618416,9.77828798 C2.18285813,10.0563759 2.18129775,10.5088443 2.45269894,10.7889044 C2.72410013,11.0689646 3.16568879,11.0705634 3.43901481,10.7924755 L6.63844225,7.51422141 C7.45385258,6.67768081 7.45385258,5.32248368 6.63844225,4.48594309 L6.63844225,4.48594309 Z" id="Combined-Shape" fill="#303134" fill-rule="nonzero"></path>
    </g>
</svg>