<?xml version="1.0" encoding="UTF-8"?>
<svg width="12px" height="12px" viewBox="0 0 12 12" version="1.1" xmlns="http://www.w3.org/2000/svg" xmlns:xlink="http://www.w3.org/1999/xlink">
    <title>icon/angle/up</title>
    <g id="icon/angle/up" stroke="none" stroke-width="1" fill="none" fill-rule="evenodd">
        <path d="M10.282081,8.49712172 C10.092356,8.49819675 9.91000072,8.42519891 9.77529693,8.29425324 L6.50618308,5.083335 C6.37215898,4.950902 6.18971968,4.87641033 5.99939906,4.87641033 C5.80907843,4.87641033 5.62663914,4.950902 5.49261504,5.083335 L2.22350119,8.29425324 C2.0424447,8.4716992 1.77854911,8.54099973 1.53122134,8.47605 C1.28389357,8.41110028 1.09070859,8.2217677 1.02443731,7.97937202 C0.958166037,7.73697634 1.02887665,7.47834323 1.20993314,7.30089727 L4.48618479,4.09697449 C5.33153266,3.3010085 6.66726546,3.3010085 7.51261333,4.09697449 L10.788865,7.30089727 C10.9239926,7.43224873 11,7.61104991 11,7.79757526 C11,7.9841006 10.9239926,8.16290178 10.788865,8.29425324 C10.6541612,8.42519891 10.4718059,8.49819675 10.282081,8.49712172 Z" id="Path" fill="#303134" fill-rule="nonzero"></path>
    </g>
</svg>