<?xml version="1.0" encoding="UTF-8"?>
<svg width="20px" height="20px" viewBox="0 0 20 20" version="1.1" xmlns="http://www.w3.org/2000/svg" xmlns:xlink="http://www.w3.org/1999/xlink">
    <title>icon/buy_act</title>
    <g id="icon/buy_act" stroke="none" stroke-width="1" fill="none" fill-rule="evenodd">
        <path d="M19.0000029,8.2949861 L19.0000029,15.2506956 C18.9975204,17.3203515 17.3200404,18.9975209 15.2500012,19 L14.5000029,19 C14.085788,19 13.7500017,18.6642758 13.7500017,18.2501391 C13.7500017,17.8360024 14.085788,17.5002782 14.5000029,17.5002782 L15.2500012,17.5002782 C16.4926415,17.5002782 17.5000029,16.4931058 17.5000029,15.2506956 L17.5000029,8.2949861 C17.5000432,7.54723023 17.1284625,6.84832688 16.5085008,6.4300821 L11.2585025,2.88848917 C10.4993161,2.37103941 9.50068975,2.37103941 8.74150335,2.88848917 L3.49150507,6.4300821 C2.8715434,6.84832688 2.49996264,7.54723023 2.50000294,8.2949861 L2.50000294,15.2506956 C2.50000294,16.4931058 3.50736438,17.5002782 4.75000466,17.5002782 L5.50000294,17.5002782 C5.91421784,17.5002782 6.25000417,17.8360024 6.25000417,18.2501391 C6.25000417,18.6642758 5.91421784,19 5.50000294,19 L4.75000466,19 C2.67996547,18.9975209 1.00248547,17.3203515 1.00000294,15.2506956 L1.00000294,8.2949861 C0.998444989,7.04896586 1.61697492,5.88381504 2.65000534,5.18681276 L7.90000363,1.64446997 C9.16645835,0.785176677 10.8290475,0.785176677 12.0955023,1.64446997 L17.3455005,5.18681276 C18.3795306,5.88343308 18.9996228,7.04834983 19.0000029,8.2949861 Z M15.2500216,12.2565011 C15.2538882,13.6491978 14.7002372,14.9855448 13.7125017,15.9675626 L11.0762526,18.5455843 C10.4763125,19.1263349 9.52369339,19.1263349 8.92375329,18.5455843 L6.29350415,15.9735615 C4.60991366,14.2955398 4.26417596,11.6958435 5.45069679,9.6362626 C6.63721762,7.57668164 9.0598607,6.57125391 11.3563918,7.18532394 C13.6529229,7.79939398 15.2501652,9.8796999 15.2500216,12.2565011 L15.2500216,12.2565011 Z M13.7500244,12.2565011 C13.7500244,10.5595996 12.6101272,9.07422906 10.9707659,8.63495179 C9.33140468,8.19567453 7.60132573,8.91201668 6.75258202,10.3814981 C5.90383831,11.8509795 6.14804926,13.7072106 7.34800381,14.9072593 L9.97300295,17.4732833 L12.6580021,14.9012604 C13.3603134,14.2006251 13.7534642,13.2484369 13.7500244,12.2565011 Z M12.2500037,12.2512521 C12.2500037,13.4936623 11.2426432,14.5008347 10.0000029,14.5008347 C8.75736266,14.5008347 7.75000368,13.4936623 7.75000368,12.2512521 C7.75000368,11.0088419 8.75736266,10.0016695 10.0000029,10.0016695 C11.2426432,10.0016695 12.2500037,11.0088419 12.2500037,12.2512521 Z" id="Shape" fill="#303134" fill-rule="nonzero"></path>
    </g>
</svg>