<?xml version="1.0" encoding="UTF-8"?>
<svg width="30px" height="30px" viewBox="0 0 30 30" version="1.1" xmlns="http://www.w3.org/2000/svg" xmlns:xlink="http://www.w3.org/1999/xlink">
    <title>icon/circle/go-top</title>
    <g id="icon/circle/go-top" stroke="none" stroke-width="1" fill="none" fill-rule="evenodd">
        <g id="icon/circle/img_icon">
            <circle id="Oval" fill-opacity="0.8" fill="#303134" cx="15" cy="15" r="15"></circle>
            <g id="icon/layout" transform="translate(8.880000, 7.980000)" fill="#FFFFFF" fill-rule="nonzero">
                <path d="M6.12000007,0 C6.15630986,0 6.19199188,0.00268776092 6.22685804,0.00787517984 C6.23220139,0.00872301254 6.23793761,0.00964683245 6.24366412,0.0106402091 C6.27363108,0.0157836306 6.30258867,0.0227248356 6.33080954,0.0313531777 C6.33798998,0.0336015782 6.34503524,0.0358727298 6.3520511,0.03825516 C6.37551222,0.0461927591 6.3984877,0.0553771218 6.42084531,0.0656736649 C6.43490683,0.0721185874 6.44894716,0.0791330864 6.4627937,0.0866347611 C6.47985909,0.0959442167 6.4963604,0.105779419 6.51241861,0.116237912 C6.52479854,0.124223136 6.5374173,0.133013182 6.54980662,0.142253382 C6.58031636,0.165082774 6.60852547,0.189776248 6.63467048,0.216497504 L12.0262289,5.54726133 C12.3089924,5.82684377 12.3115712,6.28271526 12.0319887,6.5654788 C11.7524063,6.84824234 11.2965348,6.85082112 11.0137713,6.57123867 L6.84,2.443 L6.84000007,13.32 C6.84000007,13.717645 6.51764509,14.04 6.12000007,14.04 C5.72235505,14.04 5.40000007,13.717645 5.40000007,13.32 L5.4,2.443 L1.22622887,6.57123867 C0.969171113,6.82540453 0.569048927,6.8463793 0.288369453,6.63564791 L0.208011399,6.5654788 C-0.0715710473,6.28271526 -0.0689922645,5.82684377 0.213771272,5.54726133 L5.60532967,0.216497504 C5.63147467,0.189776248 5.65968378,0.165082774 5.68969909,0.142674985 L5.61377127,0.208011327 C5.64934035,0.172842401 5.6876581,0.142133041 5.72802745,0.115883245 C5.74363974,0.105779419 5.76014106,0.0959442167 5.77705118,0.0867666158 C5.79105298,0.0791330864 5.80509331,0.0721185874 5.81930225,0.0655912639 C5.84151244,0.0553771218 5.86448793,0.0461927591 5.8880104,0.0381914795 C5.8949649,0.0358727298 5.90201017,0.0336015782 5.9090821,0.0314417051 C5.93741147,0.0227248356 5.96636906,0.0157836306 5.9959458,0.0106471416 C6.00205349,0.00964840194 6.00778063,0.0087259319 6.01351608,0.00787279895 C6.04800826,0.00268776092 6.08369029,0 6.12000007,0 Z" id="Combined-Shape"></path>
            </g>
        </g>
    </g>
</svg>