<?xml version="1.0" encoding="UTF-8"?>
<svg width="20px" height="20px" viewBox="0 0 20 20" version="1.1" xmlns="http://www.w3.org/2000/svg" xmlns:xlink="http://www.w3.org/1999/xlink">
    <title>icon/info</title>
    <g id="icon/info" stroke="none" stroke-width="1" fill="none" fill-rule="evenodd">
        <path d="M3.63108112,3.64064186 C5.47358792,1.79531201 8.02590431,0.839968704 10.6271773,1.02197216 C15.4052908,1.43211591 19.0573453,5.45990861 18.9993181,10.2554729 L18.9993181,16.2563477 C18.9968387,18.3262756 18.7698275,18.9975205 16.7,19 L10.8124082,19 C5.56219704,19 1.35437886,15.4061943 1.02291288,10.640952 C0.837062161,8.03982547 1.78857433,5.48597171 3.63108112,3.64064186 Z M9.62083333,7.95416667 L9.37083333,7.95416667 C8.69206623,7.93749792 8.11234924,8.4406417 8.03333333,9.115 C7.98799281,9.79198249 8.49098879,10.3815234 9.16666667,10.4433333 L9.16666667,14.3183333 C9.16666669,15.0086893 9.72631074,15.5683333 10.4166667,15.5683333 C11.1070226,15.5683333 11.6666667,15.0086893 11.6666667,14.3183333 L11.6666667,10 C11.6666667,8.87011745 10.7507159,7.95416667 9.62083333,7.95416667 Z M9.85833333,4.195 C9.06856614,4.195 8.42833309,4.83523281 8.42833309,5.625 C8.42811209,6.00432736 8.57870132,6.36818202 8.84692632,6.63640702 C9.11515131,6.90463201 9.47900597,7.05522125 9.85833333,7.05500024 C10.6481005,7.05500024 11.2883333,6.41476719 11.2883333,5.625 C11.2883333,4.83523281 10.6481005,4.195 9.85833333,4.195 Z" id="Shape" fill="#A4A5AB" fill-rule="nonzero"></path>
    </g>
</svg>