<?xml version="1.0" encoding="UTF-8"?>
<svg width="14px" height="14px" viewBox="0 0 14 14" version="1.1" xmlns="http://www.w3.org/2000/svg" xmlns:xlink="http://www.w3.org/1999/xlink">
    <title>icon/triangle/sort-null</title>
    <g id="icon/triangle/sort-null" stroke="none" stroke-width="1" fill="none" fill-rule="evenodd">
        <path d="M7.01441376,5.63592313e-05 C7.45162706,0.00388834218 7.86712193,0.19125442 8.1593955,0.516440325 L11.9123724,4.32602413 C12.2528091,4.685908 12.3465289,5.21381662 12.150772,5.6688911 C11.9550152,6.12396558 11.5073069,6.4189711 11.0119147,6.41931107 L2.99007972,6.41931107 C2.49860294,6.41895045 2.05366901,6.12850883 1.85556293,5.67872717 C1.65745686,5.22894551 1.74352831,4.70462286 2.07503263,4.34178068 L5.86068982,0.496598742 C6.1585332,0.17650651 6.57720046,-0.0036593868 7.01441376,5.63592313e-05 Z M7.00099723,1.16711485 C6.88972852,1.16622886 6.78344305,1.21320704 6.70920926,1.2960978 L2.92180134,5.14536477 C2.91169827,5.16463791 2.91169827,5.18853425 2.92238491,5.20839097 C2.93191548,5.23649826 2.95932852,5.25453316 2.98891257,5.25215917 L11.0119147,5.25215917 C11.0414988,5.25453316 11.0689118,5.23649826 11.0784424,5.20839097 C11.0932227,5.18237859 11.0878781,5.14958205 11.0656037,5.12960822 L7.30912533,1.31593938 C7.23314083,1.22363573 7.12053424,1.16925186 7.00099723,1.16711485 Z M11.0119147,7.58237794 C11.5031603,7.58263668 11.9479449,7.87284945 12.146051,8.32237836 C12.344157,8.77190727 12.2582348,9.29600097 11.9269618,9.65874117 L8.14130464,13.5039231 C7.84773518,13.8220784 7.43389585,14.0021006 7.00099723,13.9999815 C6.55886956,13.9997846 6.1376823,13.8115765 5.84259897,13.4823308 L2.08962203,9.6750813 C1.74901631,9.3153395 1.65519683,8.78739652 1.85100491,8.33232992 C2.04681299,7.87726332 2.49467442,7.58237794 2.99007972,7.58237794 L11.0119147,7.58237794 Z M11.0154162,8.74486123 L2.99007972,8.74777911 C2.96127823,8.74790993 2.93525008,8.76497523 2.92364626,8.79133608 C2.91204244,8.81769693 2.91703564,8.84841756 2.93639073,8.86974649 L6.69286913,12.6828318 C6.76863063,12.7755717 6.8812697,12.8303979 7.00099723,12.8328151 C7.1124333,12.8333373 7.21871835,12.7859342 7.29278521,12.7026733 L11.0819439,8.85107206 C11.0927421,8.83145085 11.0927421,8.80766706 11.0819439,8.78804585 C11.0722029,8.76017024 11.0448429,8.74241022 11.0154162,8.74486123 Z" id="Combined-Shape" fill="#7F8189" fill-rule="nonzero"></path>
    </g>
</svg>