<?xml version="1.0" encoding="UTF-8"?>
<svg width="14px" height="14px" viewBox="0 0 14 14" version="1.1" xmlns="http://www.w3.org/2000/svg" xmlns:xlink="http://www.w3.org/1999/xlink">
    <title>icon/triangle/sort-up</title>
    <g id="icon/triangle/sort-up" stroke="none" stroke-width="1" fill="none" fill-rule="evenodd">
        <path d="M6.25838406,0.292936056 C6.66836934,-0.0976453521 7.33418543,-0.0976453521 7.7441707,0.292936056 L11.9424199,4.29248968 C12.2441691,4.57995759 12.3327259,5.00803482 12.1687318,5.38299297 C12.0047377,5.75795112 11.6242714,6.00167392 11.1978867,6.00167392 L2.80138821,6.00167392 C2.3782834,6.00167392 1.99453718,5.75795112 1.83054307,5.38299297 C1.66654896,5.00803482 1.75838566,4.57995759 2.05685495,4.29248968 L6.25510418,0.292936056 L6.25838406,0.292936056 Z" id="Path" fill="#7F8189" fill-rule="nonzero"></path>
        <path d="M11.0119147,7.58237794 C11.5031603,7.58263668 11.9479449,7.87284945 12.146051,8.32237836 C12.344157,8.77190727 12.2582348,9.29600097 11.9269618,9.65874117 L8.14130464,13.5039231 C7.84773518,13.8220784 7.43389585,14.0021006 7.00099723,13.9999815 C6.55886956,13.9997846 6.1376823,13.8115765 5.84259897,13.4823308 L2.08962203,9.6750813 C1.74901631,9.3153395 1.65519683,8.78739652 1.85100491,8.33232992 C2.04681299,7.87726332 2.49467442,7.58237794 2.99007972,7.58237794 L11.0119147,7.58237794 Z M11.0154162,8.74486123 L2.99007972,8.74777911 C2.96127823,8.74790993 2.93525008,8.76497523 2.92364626,8.79133608 C2.91204244,8.81769693 2.91703564,8.84841756 2.93639073,8.86974649 L6.69286913,12.6828318 C6.76863063,12.7755717 6.8812697,12.8303979 7.00099723,12.8328151 C7.1124333,12.8333373 7.21871835,12.7859342 7.29278521,12.7026733 L11.0819439,8.85107206 C11.0927421,8.83145085 11.0927421,8.80766706 11.0819439,8.78804585 C11.0722029,8.76017024 11.0448429,8.74241022 11.0154162,8.74486123 Z" id="Combined-Shape" fill="#7F8189" fill-rule="nonzero"></path>
    </g>
</svg>