<?xml version="1.0" encoding="UTF-8"?>
<svg width="14px" height="14px" viewBox="0 0 14 14" version="1.1" xmlns="http://www.w3.org/2000/svg" xmlns:xlink="http://www.w3.org/1999/xlink">
    <title>icon/triangle/sort-down</title>
    <g id="icon/triangle/sort-down" stroke="none" stroke-width="1" fill="none" fill-rule="evenodd">
        <path d="M6.25838406,13.7070639 L2.06013483,9.70751032 C1.75838566,9.42004241 1.66982885,8.99196518 1.83382296,8.61700703 C1.99781707,8.24204888 2.3782834,7.99832608 2.80466809,7.99832608 L11.1978867,7.99832608 C11.6209915,7.99832608 12.0047377,8.24204888 12.1687318,8.61700703 C12.3327259,8.99196518 12.2408892,9.42004241 11.9424199,9.70751032 L7.7441707,13.7070639 C7.33418543,14.0976454 6.66836934,14.0976454 6.25838406,13.7070639 Z" id="Path" fill="#7F8189" fill-rule="nonzero"></path>
        <path d="M7.01441376,5.63592313e-05 C7.45162706,0.00388834218 7.86712193,0.19125442 8.1593955,0.516440325 L11.9123724,4.32602413 C12.2528091,4.685908 12.3465289,5.21381662 12.150772,5.6688911 C11.9550152,6.12396558 11.5073069,6.4189711 11.0119147,6.41931107 L2.99007972,6.41931107 C2.49860294,6.41895045 2.05366901,6.12850883 1.85556293,5.67872717 C1.65745686,5.22894551 1.74352831,4.70462286 2.07503263,4.34178068 L5.86068982,0.496598742 C6.1585332,0.17650651 6.57720046,-0.0036593868 7.01441376,5.63592313e-05 Z M7.00099723,1.16711485 C6.88972852,1.16622886 6.78344305,1.21320704 6.70920926,1.2960978 L2.92180134,5.14536477 C2.91169827,5.16463791 2.91169827,5.18853425 2.92238491,5.20839097 C2.93191548,5.23649826 2.95932852,5.25453316 2.98891257,5.25215917 L11.0119147,5.25215917 C11.0414988,5.25453316 11.0689118,5.23649826 11.0784424,5.20839097 C11.0932227,5.18237859 11.0878781,5.14958205 11.0656037,5.12960822 L7.30912533,1.31593938 C7.23314083,1.22363573 7.12053424,1.16925186 7.00099723,1.16711485 Z" id="Combined-Shape" fill="#7F8189" fill-rule="nonzero"></path>
    </g>
</svg>