<?xml version="1.0" encoding="UTF-8"?>
<svg width="20px" height="20px" viewBox="0 0 20 20" version="1.1" xmlns="http://www.w3.org/2000/svg" xmlns:xlink="http://www.w3.org/1999/xlink">
    <title>icon/display/filter</title>
    <g id="icon/display/filter" stroke="none" stroke-width="1" fill="none" fill-rule="evenodd">
        <path d="M1.74999998,4.79994478 L3.80199999,4.79994478 C4.1329244,6.09863168 5.2383532,7 6.50012499,7 C7.76189678,7 8.86732558,6.09863168 9.19824999,4.79994478 L18.25,4.79994478 C18.6642136,4.79994478 19,4.4417973 19,4 C19,3.5582027 18.6642136,3.20005522 18.25,3.20005522 L9.19824999,3.20005522 C8.86732558,1.90136832 7.76189678,1 6.50012499,1 C5.2383532,1 4.1329244,1.90136832 3.80199999,3.20005522 L1.74999998,3.20005522 C1.33578643,3.20005523 1,3.5582027 1,4 C1,4.4417973 1.33578643,4.79994477 1.74999998,4.79994478 Z M6.49974999,2.60009663 C7.22462372,2.60009663 7.81224999,3.22685472 7.81224999,4 C7.81224999,4.77314528 7.22462372,5.39990337 6.49974999,5.39990337 C5.77487625,5.39990337 5.18724999,4.77314528 5.18724999,4 C5.18807661,3.22722021 5.77521893,2.6009783 6.49974999,2.60009663 Z" id="Shape" fill="#303134" fill-rule="nonzero"></path>
        <path d="M18.25,9.20026309 L16.198,9.20026309 C15.8676145,7.90158525 14.7621778,7 13.50025,7 C12.2383222,7 11.1328855,7.90158525 10.8025,9.20026309 L1.75,9.20026309 C1.33578644,9.20026309 1,9.5583175 1,10 C1,10.4416825 1.33578644,10.7997369 1.75,10.7997369 L10.8025,10.7997369 C11.1328855,12.0984148 12.2383222,13 13.50025,13 C14.7621778,13 15.8676145,12.0984148 16.198,10.7997369 L18.25,10.7997369 C18.6642136,10.7997369 19,10.4416825 19,10 C19,9.5583175 18.6642136,9.20026309 18.25,9.20026309 L18.25,9.20026309 Z M13.50025,11.3995396 C12.7753763,11.3995396 12.18775,10.7729444 12.18775,10 C12.18775,9.22705563 12.7753763,8.60046041 13.50025,8.60046041 C14.2251237,8.60046041 14.81275,9.22705563 14.81275,10 C14.8119234,10.772579 14.2247811,11.3986582 13.50025,11.3995396 Z" id="Shape" fill="#303134" fill-rule="nonzero"></path>
        <path d="M18.25,15.2000552 L9.19825,15.2000552 C8.86732559,13.9013683 7.76189679,13 6.500125,13 C5.23835321,13 4.13292441,13.9013683 3.802,15.2000552 L1.75,15.2000552 C1.33578644,15.2000552 1,15.5582027 1,16 C1,16.4417973 1.33578644,16.7999448 1.75,16.7999448 L3.802,16.7999448 C4.13292441,18.0986317 5.23835321,19 6.500125,19 C7.76189679,19 8.86732559,18.0986317 9.19825,16.7999448 L18.25,16.7999448 C18.6642136,16.7999448 19,16.4417973 19,16 C19,15.5582027 18.6642136,15.2000552 18.25,15.2000552 L18.25,15.2000552 Z M6.49975,17.3999034 C5.77487627,17.3999034 5.18725,16.7731453 5.18725,16 C5.18725,15.2268547 5.77487627,14.6000966 6.49975,14.6000966 C7.22462373,14.6000966 7.81225,15.2268547 7.81225,16 C7.81101142,16.7725974 7.22411008,17.3985823 6.49975,17.3999034 L6.49975,17.3999034 Z" id="Shape" fill="#303134" fill-rule="nonzero"></path>
    </g>
</svg>