<?xml version="1.0" encoding="UTF-8"?>
<svg width="20px" height="20px" viewBox="0 0 20 20" version="1.1" xmlns="http://www.w3.org/2000/svg" xmlns:xlink="http://www.w3.org/1999/xlink">
    <title>icon/display/grid</title>
    <g id="icon/display/grid" stroke="none" stroke-width="1" fill="none" fill-rule="evenodd">
        <path d="M6.24998828,1 C7.90683203,1 9.24997656,2.34314453 9.24997656,3.99998828 L9.24997656,6.24998828 C9.24997656,7.90683203 7.90683203,9.24997656 6.24998828,9.24997656 L3.99998828,9.24997656 C2.34314453,9.24997656 1,7.90686719 1,6.24998828 L1,3.99998828 C1,2.34314453 2.34314453,1 3.99998828,1 L6.24998828,1 Z M6.24998828,2.5 L3.99998828,2.5 C3.17157166,2.5 2.5,3.17157166 2.5,3.99998828 L2.5,6.24998828 C2.5,7.0784252 3.1715568,7.74997656 3.99998828,7.74997656 L6.24998828,7.74997656 C7.07840491,7.74997656 7.74997656,7.07840491 7.74997656,6.24998828 L7.74997656,3.99998828 C7.74997656,3.17157166 7.07840491,2.5 6.24998828,2.5 Z M16.0000117,1 C17.6568555,1 19,2.34314453 19,3.99998828 L19,6.24998828 C19,7.90683203 17.6568555,9.24997656 16.0000117,9.24997656 L13.7500117,9.24997656 C12.093168,9.24997656 10.7500234,7.90683203 10.7500234,6.24998828 L10.7500234,3.99998828 C10.7500234,2.34314453 12.0931328,1 13.7500117,1 L16.0000117,1 Z M16.0000117,2.5 L13.7500117,2.5 C12.9215748,2.5 12.2500234,3.1715568 12.2500234,3.99998828 L12.2500234,6.24998828 C12.2500234,7.07840491 12.9215951,7.74997656 13.7500117,7.74997656 L16.0000117,7.74997656 C16.8284283,7.74997656 17.5,7.07840491 17.5,6.24998828 L17.5,3.99998828 C17.5,3.17157166 16.8284283,2.5 16.0000117,2.5 Z M6.24998828,10.7499883 C7.90683203,10.7499883 9.24997656,12.0931328 9.24997656,13.7499766 L9.24997656,15.9999766 C9.24997656,17.6568203 7.90683203,18.9999648 6.24998828,18.9999648 L3.99998828,18.9999648 C2.34314453,18.9999648 1,17.6568555 1,16.0000117 L1,13.7500117 C1,12.0931328 2.34314453,10.7499883 3.99998828,10.7499883 L6.24998828,10.7499883 Z M6.24998828,12.2499883 L3.99998828,12.2499883 C3.17156894,12.2499883 2.5,12.9215627 2.5,13.7500117 L2.5,16.0000117 C2.5,16.8284162 3.17155951,17.4999648 3.99998828,17.4999648 L6.24998828,17.4999648 C7.07840491,17.4999648 7.74997656,16.8283932 7.74997656,15.9999766 L7.74997656,13.7499766 C7.74997656,12.9215599 7.07840491,12.2499883 6.24998828,12.2499883 Z M16.0000117,10.7499883 C17.6568555,10.7499883 19,12.0931328 19,13.7499766 L19,15.9999766 C19,17.6568555 17.6568555,19 16.0000117,19 L13.7500117,19 C12.093168,19 10.7500234,17.6568555 10.7500234,16.0000117 L10.7500234,13.7500117 C10.7500234,12.0931328 12.0931328,10.7499883 13.7500117,10.7499883 L16.0000117,10.7499883 Z M16.0000117,12.2499883 L13.7500117,12.2499883 C12.9215721,12.2499883 12.2500234,12.9215478 12.2500234,13.7500117 L12.2500234,16.0000117 C12.2500234,16.8284283 12.9215951,17.5 13.7500117,17.5 L16.0000117,17.5 C16.8284311,17.5 17.5,16.8284256 17.5,15.9999766 L17.5,13.7499766 C17.5,12.9215599 16.8284283,12.2499883 16.0000117,12.2499883 Z" id="Combined-Shape" fill="#303134" fill-rule="nonzero"></path>
    </g>
</svg>