<?xml version="1.0" encoding="UTF-8"?>
<svg width="20px" height="20px" viewBox="0 0 20 20" version="1.1" xmlns="http://www.w3.org/2000/svg" xmlns:xlink="http://www.w3.org/1999/xlink">
    <title>icon/display/list</title>
    <g id="icon/display/list" stroke="none" stroke-width="1" fill="none" fill-rule="evenodd">
        <path d="M16,1.25 C17.5187831,1.25 18.75,2.48121694 18.75,4 L18.75,6 C18.75,7.51878306 17.5187831,8.75 16,8.75 L4,8.75 C2.48121694,8.75 1.25,7.51878306 1.25,6 L1.25,4 C1.25,2.48121694 2.48121694,1.25 4,1.25 L16,1.25 Z M16,2.75 L4,2.75 C3.30964406,2.75 2.75,3.30964406 2.75,4 L2.75,6 C2.75,6.69035594 3.30964406,7.25 4,7.25 L16,7.25 C16.6903559,7.25 17.25,6.69035594 17.25,6 L17.25,4 C17.25,3.30964406 16.6903559,2.75 16,2.75 Z M16,11.25 C17.5187831,11.25 18.75,12.4812169 18.75,14 L18.75,16 C18.75,17.5187831 17.5187831,18.75 16,18.75 L4,18.75 C2.48121694,18.75 1.25,17.5187831 1.25,16 L1.25,14 C1.25,12.4812169 2.48121694,11.25 4,11.25 L16,11.25 Z M16,12.75 L4,12.75 C3.30964406,12.75 2.75,13.3096441 2.75,14 L2.75,16 C2.75,16.6903559 3.30964406,17.25 4,17.25 L16,17.25 C16.6903559,17.25 17.25,16.6903559 17.25,16 L17.25,14 C17.25,13.3096441 16.6903559,12.75 16,12.75 Z" id="Combined-Shape" fill="#303134" fill-rule="nonzero"></path>
    </g>
</svg>