<?xml version="1.0" encoding="UTF-8"?>
<svg width="20px" height="20px" viewBox="0 0 20 20" version="1.1" xmlns="http://www.w3.org/2000/svg" xmlns:xlink="http://www.w3.org/1999/xlink">
    <title>icon/display/sorting</title>
    <g id="icon/display/sorting" stroke="none" stroke-width="1" fill="none" fill-rule="evenodd">
        <path d="M13.8661557,18.5755815 L10.147148,14.5918845 C9.83795365,14.2606842 9.85443247,13.7402652 10.1839544,13.4294961 C10.5134764,13.118727 11.0312582,13.1352898 11.3404525,13.46649 L13.657616,15.949 L13.6576428,7.405252 C13.6576428,6.90529513 14.0239552,6.5 14.4758245,6.5 C14.9276938,6.5 15.2940062,6.90529513 15.2940062,7.405252 L15.293616,15.919 L17.5851634,13.46649 C17.8943577,13.1352898 18.4121396,13.118727 18.7416615,13.4294961 C19.0711835,13.7402652 19.0876623,14.2606842 18.778468,14.5918845 L15.0594603,18.5755815 C14.9760707,18.6649061 14.8777888,18.7311838 14.7722995,18.7744146 C14.6805702,18.8134874 14.5804926,18.8352331 14.4758245,18.8352331 L14.462808,18.8352331 C14.2452817,18.8352331 14.0277554,18.7486826 13.8661557,18.5755815 Z M8.51239561,7.87391515 C8.96426489,7.87391515 9.33057731,8.24209329 9.33057731,8.69626403 C9.33057731,9.15043477 8.96426489,9.5186129 8.51239561,9.5186129 L1.8181817,9.5186129 C1.36631242,9.5186129 1,9.15043477 1,8.69626403 C1,8.24209329 1.36631242,7.87391515 1.8181817,7.87391515 L8.51239561,7.87391515 Z M14.462808,1.5 C14.9146773,1.5 15.2809897,1.86817813 15.2809897,2.32234887 C15.2809897,2.77651962 14.9146773,3.14469775 14.462808,3.14469775 L1.8181817,3.14469775 C1.36631242,3.14469775 1,2.77651962 1,2.32234887 C1,1.86817813 1.36631242,1.5 1.8181817,1.5 L14.462808,1.5 Z M7.02479252,14.2478303 C7.4766618,14.2478303 7.84297422,14.6160084 7.84297422,15.0701792 C7.84297422,15.5243499 7.4766618,15.8925281 7.02479252,15.8925281 L1.8181817,15.8925281 C1.36631242,15.8925281 1,15.5243499 1,15.0701792 C1,14.6160084 1.36631242,14.2478303 1.8181817,14.2478303 L7.02479252,14.2478303 Z" id="Combined-Shape" fill="#303134" fill-rule="nonzero"></path>
    </g>
</svg>