<?xml version="1.0" encoding="UTF-8"?>
<svg width="20px" height="20px" viewBox="0 0 20 20" version="1.1" xmlns="http://www.w3.org/2000/svg" xmlns:xlink="http://www.w3.org/1999/xlink">
    <title>icon/20x20/age</title>
    <g id="icon/20x20/age" stroke="none" stroke-width="1" fill="none" fill-rule="evenodd">
        <path d="M13.75,8.52925 C10.85575,8.52925 8.5,10.88425 8.5,13.77925 C8.5,16.65775 10.85575,19 13.75,19 C16.64425,19 19,16.645 19,13.75 C19,10.8715 16.64425,8.52925 13.75,8.52925 Z M13.75,17.5 C11.68225,17.5 10,15.8305 10,13.77925 C10,11.7115 11.68225,10.02925 13.75,10.02925 C15.81775,10.02925 17.5,11.69875 17.5,13.75 C17.5,15.81775 15.81775,17.5 13.75,17.5 Z M15.03025,13.96975 C15.3235,14.263 15.3235,14.737 15.03025,15.03025 C14.884,15.1765 14.692,15.25 14.5,15.25 C14.308,15.25 14.116,15.1765 13.96975,15.03025 L13.21975,14.28025 C13.07875,14.13925 13,13.94875 13,13.75 L13,12.25 C13,11.836 13.33525,11.5 13.75,11.5 C14.16475,11.5 14.5,11.836 14.5,12.25 L14.5,13.4395 L15.03025,13.96975 Z M19,6.25 L19,7.75 C19,8.164 18.66475,8.5 18.25,8.5 C17.83525,8.5 17.5,8.164 17.5,7.75 L17.5,6.25 C17.5,5.0095 16.4905,4 15.25,4 L4.75,4 C3.5095,4 2.5,5.0095 2.5,6.25 L2.5,7 L9.25,7 C9.664,7 10,7.336 10,7.75 C10,8.164 9.664,8.5 9.25,8.5 L2.5,8.5 L2.5,15.25 C2.5,16.4905 3.5095,17.5 4.75,17.5 L7.75,17.5 C8.164,17.5 8.5,17.836 8.5,18.25 C8.5,18.664 8.164,19 7.75,19 L4.75,19 C2.68225,19 1,17.31775 1,15.25 L1,6.25 C1,4.18225 2.68225,2.5 4.75,2.5 L5.5,2.5 L5.5,1.75 C5.5,1.336 5.836,1 6.25,1 C6.664,1 7,1.336 7,1.75 L7,2.5 L13,2.5 L13,1.75 C13,1.336 13.33525,1 13.75,1 C14.16475,1 14.5,1.336 14.5,1.75 L14.5,2.5 L15.25,2.5 C17.31775,2.5 19,4.18225 19,6.25 Z" id="Shape" fill="#303134" fill-rule="nonzero"></path>
    </g>
</svg>