<?xml version="1.0" encoding="UTF-8"?>
<svg width="20px" height="20px" viewBox="0 0 20 20" version="1.1" xmlns="http://www.w3.org/2000/svg" xmlns:xlink="http://www.w3.org/1999/xlink">
    <title>icon/20x20/building</title>
    <g id="icon/20x20/building" stroke="none" stroke-width="1" fill="none" fill-rule="evenodd">
        <path d="M12.13675,10.56025 L8.05075,7.3615 C7.43275,6.87775 6.568,6.877 5.95,7.3615 L1.86325,10.5595 C1.315,10.98925 1,11.63575 1,12.33175 L1,18 C1,18.5522847 1.44771525,19 2,19 L12,19 C12.5522847,19 13,18.5522847 13,18 L13,12.33175 L13,12.33175 C13,11.635 12.685,10.98925 12.13675,10.56025 Z M11.5,17.5 L2.5,17.5 L2.5,12.33175 C2.5,12.09925 2.605,11.884 2.788,11.74075 L6.874,8.5435 C6.9475,8.485 7.051,8.48575 7.126,8.5435 L11.212,11.74225 C11.395,11.88475 11.5,12.10075 11.5,12.3325 L11.5,17.50075 L11.5,17.5 Z M5.5,12.25 L8.5,12.25 L8.5,15.25 L5.5,15.25 L5.5,12.25 Z M14.5,10.75 L16,10.75 L16,12.25 L14.5,12.25 L14.5,10.75 Z M14.5,13.75 L16,13.75 L16,15.25 L14.5,15.25 L14.5,13.75 Z M11.5,4.75 L13,4.75 L13,6.25 L11.5,6.25 L11.5,4.75 Z M16,6.25 L14.5,6.25 L14.5,4.75 L16,4.75 L16,6.25 Z M11.5,7.75 L13,7.75 L13,9.25 L11.5,9.25 L11.5,7.75 Z M14.5,7.75 L16,7.75 L16,9.25 L14.5,9.25 L14.5,7.75 Z M19,3.25 L19,18 C19,18.5522847 18.5522847,19 18,19 L14.5,19 L14.5,19 L14.5,17.5 L17.5,17.5 L17.5,3.25 C17.5,2.836 17.164,2.5 16.75,2.5 L10.75,2.5 C10.336,2.5 10,2.836 10,3.25 L10,6.9835 L8.5,5.80975 L8.5,3.25 C8.5,3.23725 8.5,3.22375 8.50075,3.211 C8.52175,1.9885 9.52225,1 10.75,1 L16.75,1 C17.9905,1 19,2.0095 19,3.25 Z" id="Shape" fill="#303134" fill-rule="nonzero"></path>
    </g>
</svg>