<?xml version="1.0" encoding="UTF-8"?>
<svg width="20px" height="20px" viewBox="0 0 20 20" version="1.1" xmlns="http://www.w3.org/2000/svg" xmlns:xlink="http://www.w3.org/1999/xlink">
    <title>icon/20x20/calculate</title>
    <g id="icon/20x20/calculate" stroke="none" stroke-width="1" fill="none" fill-rule="evenodd">
        <path d="M12.09775,1.64450416 L17.34775,5.18683997 C18.382,5.88420921 19,7.04574142 19,8.29500719 L19,15.250703 C19,17.3180654 17.31775,19 15.25,19 L4.75,19 C2.68225,19 1,17.3180654 1,15.250703 L1,8.29500719 C1,7.04649128 1.618,5.88420921 2.653,5.18683997 L7.90225,1.64450416 C9.1765,0.785165282 10.8235,0.785165282 12.09775,1.64450416 Z M10,2.50084359 C9.562,2.50084359 9.124,2.62981941 8.7415,2.8885209 L3.4915,6.43010685 C2.8705,6.8485284 2.5,7.54514778 2.5,8.29425733 L2.5,15.2499531 C2.5,16.4902206 3.5095,17.4995313 4.75,17.4995313 L15.25,17.4995313 C16.4905,17.4995313 17.5,16.4902206 17.5,15.2499531 L17.5,8.29500719 C17.5,7.54589764 17.1295,6.8485284 16.50925,6.43085671 L11.2585,2.8885209 C10.876,2.62981941 10.438,2.50084359 10,2.50084359 Z M6.84105478,11.9214286 C7.20003987,11.9214286 7.49105478,12.2124435 7.49105478,12.5714286 L7.491,13.6579982 L8.63636364,13.6589286 C8.99534872,13.6589286 9.28636364,13.9499435 9.28636364,14.3089286 C9.28636364,14.6679137 8.99534872,14.9589286 8.63636364,14.9589286 L7.491,14.9579982 L7.49105478,16 C7.49105478,16.3589851 7.20003987,16.65 6.84105478,16.65 C6.48206969,16.65 6.19105478,16.3589851 6.19105478,16 L6.191,14.9579982 L5,14.9589286 C4.64101491,14.9589286 4.35,14.6679137 4.35,14.3089286 C4.35,13.9499435 4.64101491,13.6589286 5,13.6589286 L6.191,13.6579982 L6.19105478,12.5714286 C6.19105478,12.2124435 6.48206969,11.9214286 6.84105478,11.9214286 Z M15,14.5107143 C15.3589851,14.5107143 15.65,14.8017292 15.65,15.1607143 C15.65,15.5196994 15.3589851,15.8107143 15,15.8107143 L11.3636364,15.8107143 C11.0046513,15.8107143 10.7136364,15.5196994 10.7136364,15.1607143 C10.7136364,14.8017292 11.0046513,14.5107143 11.3636364,14.5107143 L15,14.5107143 Z M15,12.8071429 C15.3589851,12.8071429 15.65,13.0981578 15.65,13.4571429 C15.65,13.8161279 15.3589851,14.1071429 15,14.1071429 L11.3636364,14.1071429 C11.0046513,14.1071429 10.7136364,13.8161279 10.7136364,13.4571429 C10.7136364,13.0981578 11.0046513,12.8071429 11.3636364,12.8071429 L15,12.8071429 Z M15.0183877,6.55409164 C15.264656,6.81528538 15.2525567,7.22666472 14.9913629,7.47293311 L14.129,8.28499824 L14.9913629,9.09849546 C15.2525567,9.34476385 15.264656,9.75614319 15.0183877,10.0173369 C14.7721193,10.2785307 14.3607399,10.2906301 14.0995462,10.0443617 L13.182,9.17899824 L12.2640902,10.0443617 C12.0028964,10.2906301 11.5915171,10.2785307 11.3452487,10.0173369 C11.0989803,9.75614319 11.1110797,9.34476385 11.3722735,9.09849546 L12.234,8.28499824 L11.3722735,7.47293311 C11.1110797,7.22666472 11.0989803,6.81528538 11.3452487,6.55409164 C11.5915171,6.29289789 12.0028964,6.2807985 12.2640902,6.52706689 L13.182,7.39199824 L14.0995462,6.52706689 C14.3607399,6.2807985 14.7721193,6.29289789 15.0183877,6.55409164 Z M8.63636364,7.65892857 C8.99534872,7.65892857 9.28636364,7.94994348 9.28636364,8.30892857 C9.28636364,8.66791366 8.99534872,8.95892857 8.63636364,8.95892857 L5,8.95892857 C4.64101491,8.95892857 4.35,8.66791366 4.35,8.30892857 C4.35,7.94994348 4.64101491,7.65892857 5,7.65892857 L8.63636364,7.65892857 Z" id="Shape" fill="#303134" fill-rule="nonzero"></path>
    </g>
</svg>