<?xml version="1.0" encoding="UTF-8"?>
<svg width="20px" height="20px" viewBox="0 0 20 20" version="1.1" xmlns="http://www.w3.org/2000/svg" xmlns:xlink="http://www.w3.org/1999/xlink">
    <title>icon/20x20/commuity</title>
    <g id="icon/20x20/commuity" stroke="none" stroke-width="1" fill="none" fill-rule="evenodd">
        <path d="M10.5907336,1.5 C11.3543727,1.5 11.9111969,2.13954641 11.9111969,2.86988305 L11.911,6.927 L16.4980695,6.92794677 C17.2617086,6.92794677 17.8185328,7.56749318 17.8185328,8.29782982 L17.818,17.117 L18.2702703,17.1172206 C18.6732889,17.1172206 19,17.4267663 19,17.8086103 C19,18.1904543 18.6732889,18.5 18.2702703,18.5 L1.72972973,18.5 C1.32671113,18.5 1,18.1904543 1,17.8086103 C1,17.4267663 1.32671113,17.1172206 1.72972973,17.1172206 L2.181,17.117 L2.18146718,2.86988305 C2.18146718,2.13954641 2.73829143,1.5 3.5019305,1.5 L10.5907336,1.5 Z M16.3586564,8.31072618 L11.911,8.31 L11.911,17.117 L16.359,17.117 L16.3586564,8.31072618 Z M10.4517375,2.88277942 L3.64092664,2.88277942 L3.64,17.117 L10.451,17.117 L10.4517375,2.88277942 Z M7.63706564,13.7247539 C8.04008424,13.7247539 8.36679537,14.0342996 8.36679537,14.4161436 C8.36679537,14.7979876 8.04008424,15.1075333 7.63706564,15.1075333 L5.27413127,15.1075333 C4.87111267,15.1075333 4.54440154,14.7979876 4.54440154,14.4161436 C4.54440154,14.0342996 4.87111267,13.7247539 5.27413127,13.7247539 L7.63706564,13.7247539 Z M14.7258687,13.7247539 C15.1288873,13.7247539 15.4555985,14.0342996 15.4555985,14.4161436 C15.4555985,14.7979876 15.1288873,15.1075333 14.7258687,15.1075333 L13.5444015,15.1075333 C13.1413829,15.1075333 12.8146718,14.7979876 12.8146718,14.4161436 C12.8146718,14.0342996 13.1413829,13.7247539 13.5444015,13.7247539 L14.7258687,13.7247539 Z M8.81853282,10.3322871 C9.22155142,10.3322871 9.54826255,10.6418328 9.54826255,11.0236768 C9.54826255,11.4055208 9.22155142,11.7150665 8.81853282,11.7150665 L6.45559846,11.7150665 C6.05257985,11.7150665 5.72586873,11.4055208 5.72586873,11.0236768 C5.72586873,10.6418328 6.05257985,10.3322871 6.45559846,10.3322871 L8.81853282,10.3322871 Z M14.7258687,10.3322871 C15.1288873,10.3322871 15.4555985,10.6418328 15.4555985,11.0236768 C15.4555985,11.4055208 15.1288873,11.7150665 14.7258687,11.7150665 L13.5444015,11.7150665 C13.1413829,11.7150665 12.8146718,11.4055208 12.8146718,11.0236768 C12.8146718,10.6418328 13.1413829,10.3322871 13.5444015,10.3322871 L14.7258687,10.3322871 Z M7.63706564,4.90434036 C8.04008424,4.90434036 8.36679537,5.21388608 8.36679537,5.59573007 C8.36679537,5.97757406 8.04008424,6.28711978 7.63706564,6.28711978 L5.27413127,6.28711978 C4.87111267,6.28711978 4.54440154,5.97757406 4.54440154,5.59573007 C4.54440154,5.21388608 4.87111267,4.90434036 5.27413127,4.90434036 L7.63706564,4.90434036 Z" id="Combined-Shape" fill="#303134" fill-rule="nonzero"></path>
    </g>
</svg>