<?xml version="1.0" encoding="UTF-8"?>
<svg width="20px" height="20px" viewBox="0 0 20 20" version="1.1" xmlns="http://www.w3.org/2000/svg" xmlns:xlink="http://www.w3.org/1999/xlink">
    <title>icon/20x20/community_trand</title>
    <g id="icon/20x20/community_trand" stroke="none" stroke-width="1" fill="none" fill-rule="evenodd">
        <path d="M10.7653061,0.8 C12.0423237,0.8 13.077551,1.8352273 13.077551,3.1122449 L13.077,4.626 L16.8931468,4.6266033 L17.014447,4.6299478 C18.2373579,4.69607492 19.2,5.70897315 19.2,6.93877551 L19.2,19.2 L0.8,19.2 L0.8,3.1122449 C0.8,1.8352273 1.8352273,0.8 3.1122449,0.8 L10.7653061,0.8 Z M13.0646734,9.21212815 L13.0452648,9.26174108 C12.910982,9.53543497 12.6534391,9.67422573 12.307951,9.67422573 C11.9130009,9.67422573 11.6358877,9.49202013 11.5141041,9.08375733 L11.5142857,3.1122449 C11.5142857,2.69859489 11.1789561,2.36326531 10.7653061,2.36326531 L3.1122449,2.36326531 C2.69859489,2.36326531 2.36326531,2.69859489 2.36326531,3.1122449 L2.363,17.636 L11.515,17.636 L11.5285436,15.7381273 L11.5728219,15.6294481 C11.7116067,15.3382784 11.967781,15.1861408 12.307951,15.1861408 C12.6666615,15.1861408 12.9306645,15.3552994 13.0787204,15.7519706 L13.077,17.636 L17.636,17.636 L17.6367347,6.93877551 C17.6367347,6.55959634 17.3549647,6.24622807 16.9893872,6.19663322 L16.8877551,6.18979592 L13.076,6.189 L13.0646734,9.21212815 Z M17.1249262,8.3852779 C17.4264283,8.68678003 17.4306646,9.17428892 17.1320106,9.48346472 L12.8592273,13.7562088 C11.9563123,14.6588512 10.4926606,14.6588445 9.5897113,13.7561678 L7.93094114,12.0973153 C7.63148103,11.8119763 7.16521152,11.8112235 6.87161725,12.090834 L4.12406596,14.8383089 C3.97746956,14.9849496 3.77867868,15.0673469 3.57142857,15.0673469 C3.25537551,15.0673469 2.97041587,14.8768772 2.84944822,14.5848096 C2.72849531,14.2927776 2.79533584,13.9566424 3.01883215,13.7330786 L5.76322165,10.9886891 C6.66613665,10.0860468 8.12978836,10.0860534 9.03270512,10.9886975 L10.6949715,12.6501986 C10.9874389,12.9425777 11.4615432,12.9425752 11.754009,12.6501977 L16.029219,8.3757565 C16.3359151,8.07953945 16.823424,8.08377577 17.1249262,8.3852779 Z M6.63706564,7.72475386 C7.04008424,7.72475386 7.36679537,8.03429957 7.36679537,8.41614356 C7.36679537,8.79798756 7.04008424,9.10753327 6.63706564,9.10753327 L4.27413127,9.10753327 C3.87111267,9.10753327 3.54440154,8.79798756 3.54440154,8.41614356 C3.54440154,8.03429957 3.87111267,7.72475386 4.27413127,7.72475386 L6.63706564,7.72475386 Z M7.81853282,4.33228713 C8.22155142,4.33228713 8.54826255,4.64183284 8.54826255,5.02367684 C8.54826255,5.40552083 8.22155142,5.71506654 7.81853282,5.71506654 L5.45559846,5.71506654 C5.05257985,5.71506654 4.72586873,5.40552083 4.72586873,5.02367684 C4.72586873,4.64183284 5.05257985,4.33228713 5.45559846,4.33228713 L7.81853282,4.33228713 Z" id="Combined-Shape" fill="#303134" fill-rule="nonzero"></path>
    </g>
</svg>