<?xml version="1.0" encoding="UTF-8"?>
<svg width="20px" height="20px" viewBox="0 0 20 20" version="1.1" xmlns="http://www.w3.org/2000/svg" xmlns:xlink="http://www.w3.org/1999/xlink">
    <title>icon/20x20/feedback</title>
    <g id="icon/20x20/feedback" stroke="none" stroke-width="1" fill="none" fill-rule="evenodd">
        <path d="M15.999375,1 L3.99987501,1 C2.34544394,1 1,2.36460446 1,4.04259635 L1,13.1703854 C1,14.8483773 2.34544394,16.2129817 3.99987501,16.2129817 L6.19203367,16.2129817 L9.00366651,18.6143509 C9.29015458,18.872211 9.64938961,19 10.0063747,19 C10.3573601,19 10.7045956,18.8760142 10.9753344,18.6318458 L13.8612141,16.2129817 L16.000125,16.2129817 C17.6545561,16.2129817 19,14.8483773 19,13.1703854 L19,4.04259635 C19,2.36460446 17.6545561,1 16.000125,1 L15.999375,1 Z M17.4993125,13.1703854 C17.4993125,14.0093813 16.8265906,14.6916836 15.999375,14.6916836 L13.5904754,14.6916836 C13.4164826,14.6916836 13.2469897,14.7532961 13.1127453,14.8658722 L9.98462564,17.4642495 L6.94875214,14.8704361 C6.81300779,14.7548174 6.64201492,14.6916836 6.46502229,14.6916836 L3.99912504,14.6916836 C3.1719095,14.6916836 2.49918753,14.0093813 2.49918753,13.1703854 L2.49918753,4.04259635 C2.49918753,3.20360041 3.1719095,2.52129817 3.99912504,2.52129817 L15.9986251,2.52129817 C16.8258406,2.52129817 17.4985626,3.20360041 17.4985626,4.04259635 L17.4985626,13.1703854 L17.4993125,13.1703854 Z M10.6588475,4.7112069 L6.37877588,9.05223124 C5.81179951,9.6265213 5.49981251,10.3909736 5.49981251,11.2033469 L5.49981251,12.4097363 C5.49981251,12.8296146 5.83504854,13.1703854 6.24978126,13.1703854 L7.4392317,13.1703854 C8.24019833,13.1703854 8.99391692,12.8531947 9.56014333,12.2789047 L13.840215,7.93788032 C14.2646973,7.50659229 14.4994375,6.93382353 14.4994375,6.32378296 C14.4994375,5.71374239 14.2646973,5.14097363 13.840215,4.71044625 C12.9627516,3.82048682 11.536311,3.82048682 10.6588475,4.71044625 L10.6588475,4.7112069 Z M12.7797592,6.86232252 L8.49968751,11.2033469 C8.21619933,11.4908722 7.83971501,11.6490872 7.4392317,11.6490872 L6.99975001,11.6490872 L6.99975001,11.2033469 C6.99975001,10.8032454 7.16024332,10.4107505 7.4392317,10.127789 L11.7193034,5.78676471 C12.0125411,5.49011156 12.4865214,5.49011156 12.7797592,5.78676471 C12.9215033,5.92976673 12.9995,6.12068966 12.9995,6.32454361 C12.9995,6.52839757 12.9215033,6.71855984 12.7797592,6.86232252 Z" id="Shape" fill="#303134" fill-rule="nonzero"></path>
    </g>
</svg>