<?xml version="1.0" encoding="UTF-8"?>
<svg width="20px" height="20px" viewBox="0 0 20 20" version="1.1" xmlns="http://www.w3.org/2000/svg" xmlns:xlink="http://www.w3.org/1999/xlink">
    <title>icon/20x20/floor</title>
    <g id="icon/20x20/floor" stroke="none" stroke-width="1" fill="none" fill-rule="evenodd">
        <path d="M18.2222222,5 C18.651777,5 19,5.34822297 19,5.77777778 C19,6.20733258 18.651777,6.55555556 18.2222222,6.55555556 L15.1111111,6.55555556 L15.1111111,10.4444444 L11.2222222,10.4444444 L11.2222222,14.3333333 L6.55555556,14.3333333 L6.55555556,18.2222222 C6.55555556,18.651777 6.20733258,19 5.77777778,19 C5.34822297,19 5,18.651777 5,18.2222222 L5,12.7777778 L9.66666667,12.7777778 L9.66666667,8.88888889 L13.5555556,8.88888889 L13.5555556,5 L18.2222222,5 Z M6.04594888,1.28178751 L8.91278938,4.14389182 C9.23065745,4.46423013 9.22883006,4.98173093 8.90870709,5.29981384 C8.58852811,5.61795241 8.07120178,5.61612317 7.75365208,5.29610438 L5.816,3.357 L5.81666816,10.3329591 C5.81666816,10.7494668 5.50516993,11.0932141 5.1025127,11.1436337 L5.00007676,11.15 C4.54906315,11.15 4.18348537,10.7841757 4.18348537,10.3329591 L4.183,3.357 L2.24693528,5.29566847 C2.11916139,5.4245813 1.95291328,5.5064972 1.77503074,5.53022159 L1.6671198,5.53738369 C1.44936453,5.53738369 1.24063298,5.45036386 1.08742318,5.29578826 C0.77085894,4.9771201 0.77085894,4.46250052 1.08786166,4.1433928 L3.95439705,1.28159577 C4.53290225,0.706134743 5.46725128,0.706134743 6.04594888,1.28178751 Z" id="Combined-Shape" fill="#303134" fill-rule="nonzero"></path>
    </g>
</svg>