<?xml version="1.0" encoding="UTF-8"?>
<svg width="20px" height="20px" viewBox="0 0 20 20" version="1.1" xmlns="http://www.w3.org/2000/svg" xmlns:xlink="http://www.w3.org/1999/xlink">
    <title>icon/20x20/gotop</title>
    <g id="icon/20x20/gotop" stroke="none" stroke-width="1" fill="none" fill-rule="evenodd">
        <path d="M10,2.2 L10.0174834,2.20018991 C10.0392086,2.20066194 10.0609181,2.20201391 10.0825542,2.20424582 L10,2.2 C10.0470858,2.2 10.0932215,2.20406786 10.1380749,2.21187132 C10.1513068,2.2142371 10.1649913,2.2169828 10.1786104,2.22008864 C10.2035936,2.22572942 10.227581,2.23243242 10.251086,2.24019568 C10.260019,2.24319137 10.2689902,2.24632609 10.2779143,2.24962531 C10.3440843,2.27406864 10.4064708,2.30728783 10.4633382,2.34775811 C10.4733865,2.35485022 10.4831838,2.36217201 10.4928472,2.36974735 C10.5150376,2.38718572 10.5360904,2.40553355 10.5561328,2.42491963 L16.5624764,8.3636237 C16.8766582,8.67427086 16.8795235,9.18079474 16.5688763,9.49497645 C16.2582291,9.80915815 15.7517053,9.81202347 15.4375236,9.5013763 L10.7999999,4.915 L10.8,17 C10.8,17.4418278 10.4418278,17.8 10,17.8 C9.5581722,17.8 9.2,17.4418278 9.2,17 L9.19999992,4.915 L4.56247645,9.5013763 C4.27685671,9.78378282 3.83227651,9.80708811 3.52041042,9.57294213 L3.4311237,9.49497645 C3.12047653,9.18079474 3.12334185,8.67427086 3.43752355,8.3636237 L9.43752355,2.4311237 C9.46390958,2.40553355 9.48496245,2.38718572 9.50693911,2.36996281 L9.43752355,2.4311237 C9.4687485,2.40025003 9.5018799,2.37246946 9.53653574,2.34778198 C9.59352922,2.30728783 9.6559157,2.27406864 9.72247232,2.24944944 C9.73100981,2.24632609 9.73998096,2.24319137 9.7489944,2.24022115 C9.77241902,2.23243242 9.79640642,2.22572942 9.82081952,2.22014331 C9.83500868,2.2169828 9.84869317,2.2142371 9.86242792,2.21185154 C9.88017298,2.20869661 9.89863309,2.20614019 9.91728308,2.20422444 C9.93941347,2.2019797 9.96145693,2.20062071 9.9835155,2.20016883 C9.98857294,2.20006004 9.99427946,2.2 10,2.2 Z" id="Combined-Shape" fill="#303134" fill-rule="nonzero"></path>
    </g>
</svg>