<?xml version="1.0" encoding="UTF-8"?>
<svg width="20px" height="20px" viewBox="0 0 20 20" version="1.1" xmlns="http://www.w3.org/2000/svg" xmlns:xlink="http://www.w3.org/1999/xlink">
    <title>icon/20x20/IM</title>
    <g id="icon/20x20/IM" stroke="none" stroke-width="1" fill="none" fill-rule="evenodd">
        <path d="M12.6408963,6.19292375 C16.2204332,6.19292375 19.1218159,9.09312145 19.1218159,12.6714619 C19.1218159,13.8760416 18.7922616,15.0327437 18.1814297,16.0342667 L18.1749939,16.043 L18.2115272,16.1663314 C18.3793933,16.683251 18.7162969,17.1293523 19.1664072,17.4313263 L19.3205602,17.5265458 C19.7453966,17.7673877 19.7628419,18.3731837 19.3525693,18.6380746 C18.8389144,18.9697137 18.2382892,19.15 17.6141848,19.15 C16.8954006,19.15 16.2149073,18.9134368 15.6652146,18.4922524 L15.5969768,18.4359238 L15.5194813,18.4772735 C14.7234466,18.8728527 13.8501715,19.1012978 12.944081,19.143031 L12.6408963,19.15 C9.061033,19.15 6.15997681,16.2499617 6.15997681,12.6714619 C6.15997681,9.09296206 9.061033,6.19292375 12.6408963,6.19292375 Z M12.6408963,7.49292375 C9.77890107,7.49292375 7.45997681,9.81103438 7.45997681,12.6714619 C7.45997681,15.5318894 9.77890107,17.85 12.6408963,17.85 C13.6151999,17.85 14.5465663,17.5821292 15.3553276,17.0828302 C15.6252355,16.9161991 15.9759974,16.968719 16.185263,17.2070972 C16.5419498,17.6134055 17.0566378,17.85 17.6141848,17.85 L17.6939768,17.8459238 L17.6655933,17.8134058 C17.2890966,17.3648973 17.0190499,16.8286338 16.8860438,16.2449215 L16.8426501,16.023884 C16.8155992,15.8601095 16.8522304,15.6921914 16.9450322,15.5545627 C17.5133303,14.7117545 17.8218159,13.7157376 17.8218159,12.6714619 C17.8218159,9.81121053 15.5025819,7.49292375 12.6408963,7.49292375 Z M10,12.0111111 C10.4549082,12.0111111 10.8236842,12.3798871 10.8236842,12.8347953 C10.8236842,13.2897035 10.4549082,13.6584795 10,13.6584795 C9.54509177,13.6584795 9.17631579,13.2897035 9.17631579,12.8347953 C9.17631579,12.3798871 9.54509177,12.0111111 10,12.0111111 Z M12.8421053,12.0111111 C13.2970135,12.0111111 13.6657895,12.3798871 13.6657895,12.8347953 C13.6657895,13.2897035 13.2970135,13.6584795 12.8421053,13.6584795 C12.387197,13.6584795 12.0184211,13.2897035 12.0184211,12.8347953 C12.0184211,12.3798871 12.387197,12.0111111 12.8421053,12.0111111 Z M15.6842105,12.0111111 C16.1391188,12.0111111 16.5078947,12.3798871 16.5078947,12.8347953 C16.5078947,13.2897035 16.1391188,13.6584795 15.6842105,13.6584795 C15.2293023,13.6584795 14.8605263,13.2897035 14.8605263,12.8347953 C14.8605263,12.3798871 15.2293023,12.0111111 15.6842105,12.0111111 Z M6.83091953,0.85 C9.54654711,0.85 11.8991835,2.66677222 12.6083322,5.24746235 C12.703452,5.59361625 12.4999486,5.95133923 12.1537947,6.04645898 C11.8076408,6.14157873 11.4499178,5.93807533 11.354798,5.59192143 C10.7998624,3.57243415 8.9578757,2.15 6.83091953,2.15 C4.23551263,2.15 2.13590996,4.24874517 2.13590996,6.84282661 C2.13590996,7.79200138 2.41408376,8.6940549 2.92856375,9.45674327 C3.02137384,9.59432914 3.05804051,9.76220476 3.0310475,9.92595751 C2.93966102,10.4803524 2.71749622,10.9943103 2.39226377,11.4313133 L2.311,11.533 L2.43580609,11.5279546 C2.8116404,11.4922161 3.15826994,11.3333733 3.42839583,11.0791487 L3.53934228,10.9644365 C3.74855731,10.7267892 4.09856711,10.6744599 4.36814035,10.8405244 C4.73455104,11.0662434 5.13555916,11.2409429 5.56296002,11.3605663 C5.90866001,11.4573228 6.1104686,11.8160046 6.01371214,12.1617046 C5.91695568,12.5074046 5.55827386,12.7092132 5.21257387,12.6124567 C4.88652274,12.5211997 4.5715522,12.4042974 4.27017677,12.2628086 L4.127,12.19 L4.08850197,12.2220022 C3.6270008,12.5754784 3.06768002,12.7897548 2.47266079,12.8290753 L2.2730841,12.8356532 C1.68479974,12.8356532 1.1225007,12.6679905 0.6445852,12.3558799 C0.23686253,12.0896099 0.25592619,11.4860918 0.67964091,11.2460848 C1.14408664,10.9830064 1.49223294,10.5602401 1.66215733,10.0592264 L1.696,9.942 C1.18586234,9.09807806 0.89245851,8.14347211 0.843299347,7.14395669 L0.835909961,6.84282661 C0.835909961,3.53065609 3.51766131,0.85 6.83091953,0.85 Z M7.68421053,5.4 C8.13911875,5.4 8.50789474,5.76877598 8.50789474,6.22368421 C8.50789474,6.67859244 8.13911875,7.04736842 7.68421053,7.04736842 C7.2293023,7.04736842 6.86052632,6.67859244 6.86052632,6.22368421 C6.86052632,5.76877598 7.2293023,5.4 7.68421053,5.4 Z M4.84210526,5.4 C5.29701349,5.4 5.66578947,5.76877598 5.66578947,6.22368421 C5.66578947,6.67859244 5.29701349,7.04736842 4.84210526,7.04736842 C4.38719704,7.04736842 4.01842105,6.67859244 4.01842105,6.22368421 C4.01842105,5.76877598 4.38719704,5.4 4.84210526,5.4 Z" id="Combined-Shape" fill="#303134" fill-rule="nonzero"></path>
    </g>
</svg>