<?xml version="1.0" encoding="UTF-8"?>
<svg width="20px" height="20px" viewBox="0 0 20 20" version="1.1" xmlns="http://www.w3.org/2000/svg" xmlns:xlink="http://www.w3.org/1999/xlink">
    <title>icon/20x20/img</title>
    <g id="icon/20x20/img" stroke="none" stroke-width="1" fill="none" fill-rule="evenodd">
        <path d="M11.449,1 C12.1460819,1.0025273 12.8032522,1.32558074 13.231,1.876 L14.869,4 L15.25,4 C17.3200399,4.00247959 18.9975204,5.67996014 19,7.75 L19,15.25 C18.9975204,17.3200399 17.3200399,18.9975204 15.25,19 L4.75,19 C2.67996014,18.9975204 1.00247959,17.3200399 1,15.25 L1,7.75 C1.00247959,5.67996014 2.67996014,4.00247959 4.75,4 L5.131,4 L6.769,1.876 C7.19674777,1.32558074 7.85391814,1.0025273 8.551,1 Z M15.25,5.5 L4.75,5.5 C3.50735931,5.5 2.5,6.50735931 2.5,7.75 L2.5,15.25 C2.5,16.4926407 3.50735931,17.5 4.75,17.5 L15.25,17.5 C16.4926407,17.5 17.5,16.4926407 17.5,15.25 L17.5,7.75 C17.5,6.50735931 16.4926407,5.5 15.25,5.5 Z M10,7 C12.4842532,7.00248053 14.4975195,9.01574682 14.5,11.5 C14.5,13.9852814 12.4852814,16 10,16 C7.51471863,16 5.5,13.9852814 5.5,11.5 C5.5,9.01471863 7.51471863,7 10,7 Z M10,8.5 C8.34314575,8.5 7,9.84314575 7,11.5 C7,13.1568542 8.34314575,14.5 10,14.5 C10.7956495,14.5 11.5587112,14.1839295 12.1213203,13.6213203 C12.6839295,13.0587112 13,12.2956495 13,11.5 C13,9.84314575 11.6568542,8.5 10,8.5 Z M11.449,2.5 L8.551,2.5 C8.3185096,2.50077497 8.09935942,2.60868983 7.957,2.7925 L7.0255,4 L12.9745,4 L12.043,2.7925 C11.9004945,2.60886887 11.6814376,2.50099993 11.449,2.5 Z" id="Combined-Shape" fill="#303134" fill-rule="nonzero"></path>
    </g>
</svg>