<?xml version="1.0" encoding="UTF-8"?>
<svg width="20px" height="20px" viewBox="0 0 20 20" version="1.1" xmlns="http://www.w3.org/2000/svg" xmlns:xlink="http://www.w3.org/1999/xlink">
    <title>icon/20x20/layout</title>
    <g id="icon/20x20/layout" stroke="none" stroke-width="1" fill="none" fill-rule="evenodd">
        <path d="M16.3636364,1 C17.8196598,1 19,2.1803402 19,3.63636364 L19,16.3636364 C19,17.8196598 17.8196598,19 16.3636364,19 L10,19 C9.54813066,19 9.18181818,18.6336875 9.18181818,18.1818182 C9.18181818,17.7299488 9.54813066,17.3636364 10,17.3636364 L16.3636364,17.3636364 C16.9159211,17.3636364 17.3636364,16.9159211 17.3636364,16.3636364 L17.3636364,9.06522727 L12.6305726,9.0656346 C12.2134624,9.0656346 11.8692528,8.75351035 11.8187655,8.35008377 L11.8123907,8.24745278 C11.8123907,7.79558344 12.1787032,7.42927096 12.6305726,7.42927096 L17.3636364,7.42886364 L17.3636364,3.63636364 C17.3636364,3.1235278 16.9775962,2.70085648 16.4802575,2.64309137 L16.3636364,2.63636364 L8.28079545,2.63636364 L8.28103147,8.09923972 C8.28103147,8.51634988 7.96890723,8.86055952 7.56548064,8.91104674 L7.46284965,8.91742154 C7.01098031,8.91742154 6.64466783,8.55110906 6.64466783,8.09923972 L6.64443182,2.63636364 L3.63636364,2.63636364 C3.1235278,2.63636364 2.70085648,3.02240383 2.64309137,3.51974251 L2.63636364,3.63636364 L2.63636364,12.25 L11.3718313,12.25 C11.7889415,12.25 12.1331511,12.5621242 12.1836383,12.9655508 L12.1900131,13.0681818 C12.1900131,13.5200512 11.8237006,13.8863636 11.3718313,13.8863636 L2.63636364,13.8863636 L2.63636364,16.3636364 C2.63636364,16.8764722 3.02240383,17.2991435 3.51974251,17.3569086 L3.63636364,17.3636364 L3.77125133,17.3636364 C4.22312067,17.3636364 4.58943315,17.7299488 4.58943315,18.1818182 C4.58943315,18.6336875 4.22312067,19 3.77125133,19 L3.63636364,19 C2.1803402,19 1,17.8196598 1,16.3636364 L1,3.63636364 C1,2.1803402 2.1803402,1 3.63636364,1 L16.3636364,1 Z" id="Combined-Shape" fill="#303134" fill-rule="nonzero"></path>
    </g>
</svg>