<?xml version="1.0" encoding="UTF-8"?>
<svg width="20px" height="20px" viewBox="0 0 20 20" version="1.1" xmlns="http://www.w3.org/2000/svg" xmlns:xlink="http://www.w3.org/1999/xlink">
    <title>icon/20x20/like</title>
    <g id="icon/20x20/like" stroke="none" stroke-width="1" fill="none" fill-rule="evenodd">
        <path d="M14.6851605,1.80062266 C16.1159076,1.84008144 17.4677358,2.46165856 18.4222331,3.51889238 C19.6540155,4.87667677 20.0125118,6.80863007 19.4233472,8.59771558 L19.359651,8.7911385 L19.1674085,8.7239635 C19.0198562,8.67240451 18.8667407,8.63323938 18.7039077,8.6056955 L18.6060047,8.58678816 L18.4615651,8.55889349 L18.445174,8.4127009 C18.4158728,8.15136197 18.3520911,7.89732716 18.2560172,7.65574052 L18.2445828,7.54895035 C18.4343466,6.41051906 18.1297922,5.28016151 17.3842128,4.45831289 C16.6853129,3.68418976 15.6951706,3.2290102 14.6465643,3.20009054 C13.5980828,3.17117432 12.583701,3.57099252 11.8439702,4.30391948 L10.5244268,5.62090172 C10.2510689,5.89372901 9.80839506,5.89361312 9.53517921,5.62064186 L8.40107573,4.48753397 C6.8767678,2.98368512 4.4574491,2.83999427 2.96800733,4.16843641 C2.18839995,4.86042298 1.7305319,5.83914614 1.70147231,6.87506461 C1.67241642,7.91085099 2.07460531,8.91311529 2.8138884,9.64667739 L10.0255789,16.7973381 L12.2831648,14.5669946 L12.5486081,14.3037394 L12.6202889,14.6706525 L12.6364211,14.753686 C12.7061685,15.0618866 12.8250093,15.3553377 12.9877171,15.6242819 L13.0691946,15.7589583 L12.9574392,15.8698052 L11.0169463,17.7945196 C10.4688798,18.3327632 9.59098643,18.3327632 9.04223774,17.7938464 L1.82797334,10.6406449 C0.814100726,9.6346183 0.262113229,8.25850729 0.302022821,6.83580725 C0.341924699,5.41338219 0.969987903,4.06994943 2.03739202,3.12251465 C4.08620528,1.29516213 7.34143319,1.47545631 9.38743907,3.49402102 L10.0279997,4.134 L10.8567917,3.31120997 C11.7417535,2.43438037 12.9117454,1.90510408 14.1551548,1.81301054 L14.4226463,1.80000045 L14.6851605,1.80062266 Z M15.5136973,8.94529935 C15.9555251,8.94529935 16.3136973,9.30347155 16.3136973,9.74539156 L16.3119997,11.714 L18.2136973,11.7152433 C18.5714615,11.7152433 18.8794171,11.9515388 18.9810521,12.2955337 L19.0051964,12.4018345 L19.0136973,12.5152433 C19.0136973,12.9570711 18.6555251,13.3152433 18.2136075,13.3152433 L16.3119997,13.314 L16.3136973,15.0995927 C16.3136973,15.4573568 16.0774019,15.7653125 15.733407,15.8669474 L15.6271061,15.8910917 L15.5136973,15.8995927 C15.0718695,15.8995927 14.7136973,15.5414205 14.7136974,15.0996934 L14.7119997,13.314 L12.8136973,13.3152433 C12.4559332,13.3152433 12.1479775,13.0789479 12.0463426,12.734953 L12.0221983,12.6286521 L12.0136973,12.5152433 C12.0136973,12.0734155 12.3718695,11.7152433 12.8136074,11.7152434 L14.7119997,11.714 L14.7136973,9.74529935 C14.7136973,9.38753521 14.9499928,9.07957955 15.2939877,8.97794461 L15.4002885,8.95380026 L15.4976117,8.94594727 L15.5136973,8.94529935 Z" id="Combined-Shape" fill="#303134" fill-rule="nonzero"></path>
    </g>
</svg>