<?xml version="1.0" encoding="UTF-8"?>
<svg width="20px" height="20px" viewBox="0 0 20 20" version="1.1" xmlns="http://www.w3.org/2000/svg" xmlns:xlink="http://www.w3.org/1999/xlink">
    <title>icon/20x20/live</title>
    <g id="icon/20x20/live" stroke="none" stroke-width="1" fill="none" fill-rule="evenodd">
        <path d="M16.356888,6.71013897 C16.7279968,9.19020806 15.5372258,11.5722909 13.4636615,12.8520435 L13.4361159,12.868 L13.6312899,12.9457405 C15.6641979,13.7860446 17.3613993,15.4738163 17.4722873,17.761241 L17.4780485,18 C17.4780485,18.3313708 17.2094193,18.6 16.8780485,18.6 L3.54711586,18.6 C3.15240159,18.6 2.86522114,18.2254306 2.96768415,17.8442473 C3.59295414,15.5181157 4.97810048,13.8552065 6.86333746,13.0047196 L6.89311586,12.991 L6.86234195,12.9744839 C4.80706134,11.8102067 3.53906838,9.5817348 3.71090975,7.17829825 L3.73205627,6.94519127 C4.07392459,3.83304655 6.73647081,1.46033496 9.93887119,1.40114153 C13.1408619,1.341634 15.8935054,3.61341628 16.356888,6.71013897 Z M9.96110855,2.60093547 C7.35602532,2.64908804 5.20015867,4.57027527 4.92487404,7.07628568 C4.64960079,9.57975972 6.33584033,11.8963635 8.86840711,12.478453 C9.50810141,12.6254815 9.481122,13.5455387 8.83391146,13.6548304 C6.76307912,14.0045231 5.18453194,15.2827277 4.3816049,17.3697077 L4.37011586,17.4 L16.2241159,17.4 L16.2196961,17.3694173 C15.8497686,15.3948639 13.7806211,13.9909832 11.728333,13.6373823 L11.5161579,13.6045691 C10.8678178,13.5157868 10.8096657,12.6009126 11.4415467,12.4307555 C13.9489724,11.7555394 15.5428937,9.37904698 15.1701012,6.88772554 C14.796815,4.39310462 12.566631,2.55251304 9.96110855,2.60093547 Z M8.56577369,5.14965609 C8.59816074,5.14965609 8.62994802,5.15782371 8.65813675,5.17328385 L13.1104558,7.60927701 C13.2013195,7.65886614 13.2334066,7.77058753 13.182427,7.85897287 C13.1656337,7.88814295 13.1407437,7.91235411 13.1104558,7.92868935 L8.65813675,10.3649742 C8.56757297,10.4145633 8.45271891,10.3833514 8.4017393,10.294966 C8.38584566,10.2675462 8.37744902,10.2366259 8.37744902,10.2051222 L8.37744902,5.33284417 C8.37744902,5.231624 8.46171531,5.14965609 8.56577369,5.14965609 Z M17.9495538,2 C18.0684064,2 18.1802189,2.04274993 18.2640783,2.1198898 C19.2271156,2.84435859 19.8327668,3.8595269 19.977709,4.98470503 C20.084138,5.97897337 19.8070913,6.98445169 19.1972989,7.81418031 C19.115096,7.92989012 18.9771938,7.99886 18.8276963,8 C18.7415593,8 18.6579069,7.97701004 18.5856429,7.93369011 C18.3818956,7.81095032 18.3239187,7.55787074 18.4570585,7.36996105 C18.9556596,6.69888217 19.1854965,5.88207353 19.1024653,5.07134488 C18.9786433,4.15079642 18.4792139,3.32467779 17.6965262,2.74175876 C17.5546899,2.64846892 17.4855318,2.49779917 17.5112072,2.34503942 C17.5366756,2.19265968 17.6520082,2.06782989 17.8122728,2.01994997 C17.8565837,2.00664999 17.9027582,2 17.9495538,2 Z M2.04581594,2 C2.09288264,2 2.13953096,2.00686085 2.18450581,2.0200108 C2.34264991,2.06670266 2.45895695,2.18867325 2.48761534,2.3382778 C2.51627372,2.48769177 2.45226302,2.63843979 2.32047626,2.73125179 C1.5362405,3.31918813 1.03775189,4.14630118 0.914332547,5.06203348 C0.835051311,5.87828352 1.0703848,6.69682051 1.57640408,7.36994568 C1.70881839,7.55671315 1.64982813,7.80980212 1.44336222,7.93253502 C1.3695198,7.97674936 1.28438138,8 1.19631436,8 C1.16640086,8 1.13648736,7.99714131 1.10657386,7.99161452 C0.991312744,7.97103199 0.891112976,7.91119017 0.824592045,7.82352381 C0.203939202,6.99583902 -0.0818079449,5.98996284 0.0202744911,4.99132865 C0.160847026,3.86500651 0.767275267,2.84464632 1.72743588,2.12025538 C1.81780394,2.04097449 1.92846298,2 2.04581594,2 Z M16.4395255,3.19473701 C16.5654181,3.19492701 16.6840636,3.24128693 16.7687513,3.3222268 C17.3048303,3.83883594 17.6489644,4.51390481 17.7375862,5.22279363 C17.8065373,5.8408626 17.6820941,6.46197156 17.3770943,7.01810064 C17.3033809,7.1573704 17.1482927,7.24667026 16.9811951,7.24667026 C16.9107946,7.24629026 16.8422577,7.23166028 16.7807608,7.20430033 C16.5627263,7.10493049 16.4732763,6.8598309 16.58219,6.65881124 C16.8128551,6.24271193 16.9076887,5.77626271 16.8557166,5.31076348 C16.7859373,4.77439438 16.5240061,4.26614522 16.1177538,3.87816587 C15.9523127,3.71514614 15.9622516,3.45712657 16.1409446,3.30398683 C16.2225263,3.23330694 16.3281271,3.19473701 16.4395255,3.19473701 Z M3.55383291,3.15900645 C3.58479234,3.15900645 3.61554258,3.16205571 3.64587445,3.1675825 C3.7249465,3.18263825 3.79774299,3.21713306 3.85694244,3.26725534 C4.03767855,3.41990916 4.04855619,3.67852492 3.8816263,3.84356637 C3.47371493,4.23387225 3.21097817,4.74500524 3.14278376,5.2818664 C3.09383439,5.75126259 3.19277905,6.21837182 3.4285309,6.63497761 C3.53793482,6.83527618 3.44840351,7.08169488 3.22813137,7.18289235 C3.16621251,7.21090747 3.09613543,7.22596322 3.02626753,7.22596322 C2.99509892,7.22596322 2.96393031,7.22291395 2.93338925,7.21719658 C2.80118413,7.19184957 2.68655057,7.11085348 2.62672357,7.00012705 C2.31629256,6.4449703 2.18659766,5.82520725 2.25144511,5.20620652 C2.33553761,4.49286917 2.6804842,3.81193025 3.22227418,3.29031541 C3.30824934,3.20665121 3.42894927,3.15900645 3.55383291,3.15900645 Z" id="Combined-Shape" fill="#303134"></path>
    </g>
</svg>