<?xml version="1.0" encoding="UTF-8"?>
<svg width="20px" height="20px" viewBox="0 0 20 20" version="1.1" xmlns="http://www.w3.org/2000/svg" xmlns:xlink="http://www.w3.org/1999/xlink">
    <title>icon/20x20/location</title>
    <g id="icon/20x20/location" stroke="none" stroke-width="1" fill="none" fill-rule="evenodd">
        <path d="M10,0 C5.30686931,0 1.5,3.76726037 1.5,8.41240776 C1.5,9.60397535 1.74982771,10.7617729 2.23614411,11.8349636 C2.61922181,12.6876267 3.15014777,13.4769086 3.80005352,14.1623562 L9.48828891,19.7899951 C9.77134031,20.0700016 10.2286597,20.0700016 10.5117111,19.7899951 L16.1791824,14.1835631 C16.8476184,13.4792567 17.3794735,12.6905308 17.7650809,11.8322488 C18.2503064,10.7614769 18.5,9.60364318 18.5,8.41240776 C18.5,3.76726037 14.6931307,0 10,0 Z M10,1.44329897 C13.8919987,1.44329897 17.0487805,4.56474235 17.0487805,8.41240776 C17.0487805,9.39923307 16.8427403,10.3549367 16.4400054,11.2436245 L16.2968453,11.5423966 C15.99441,12.1360472 15.6051254,12.6859266 15.1395439,13.1768375 L10.0730924,18.1875342 L9.92690323,18.1875342 L4.83960818,13.155543 C4.31473336,12.6013979 3.87597811,11.9470041 3.56015894,11.2440538 C3.1573973,10.3552402 2.95121951,9.39957383 2.95121951,8.41240776 C2.95121951,4.56474235 6.10800133,1.44329897 10,1.44329897 Z M10,4.12371134 C7.59584826,4.12371134 5.64634146,6.06257802 5.64634146,8.45360825 C5.64634146,10.8446385 7.59584826,12.7835052 10,12.7835052 C12.4041517,12.7835052 14.3536585,10.8446385 14.3536585,8.45360825 C14.3536585,6.06257802 12.4041517,4.12371134 10,4.12371134 Z M10,5.56701031 C11.6026653,5.56701031 12.902439,6.85969003 12.902439,8.45360825 C12.902439,10.0475265 11.6026653,11.3402062 10,11.3402062 C8.39733467,11.3402062 7.09756098,10.0475265 7.09756098,8.45360825 C7.09756098,6.85969003 8.39733467,5.56701031 10,5.56701031 Z" id="Combined-Shape" fill="#303134" fill-rule="nonzero"></path>
    </g>
</svg>