<?xml version="1.0" encoding="UTF-8"?>
<svg width="20px" height="20px" viewBox="0 0 20 20" version="1.1" xmlns="http://www.w3.org/2000/svg" xmlns:xlink="http://www.w3.org/1999/xlink">
    <title>icon/20x20/map</title>
    <g id="icon/20x20/map" stroke="none" stroke-width="1" fill="none" fill-rule="evenodd">
        <path d="M10.0000012,9.98539143 C11.656855,9.98539143 13.0000012,8.64375503 13.0000012,6.98876264 C13.0000012,5.33377026 11.656855,3.99213385 10.0000012,3.99213385 C8.34314685,3.99213385 7.00000124,5.33377026 7.00000124,6.98876264 C7.00000124,8.64375503 8.34314685,9.98539143 10.0000012,9.98539143 Z M10.0000011,5.49044825 C10.828428,5.49044825 11.5000011,6.16126645 11.5000011,6.98876264 C11.5000011,7.81625883 10.828428,8.48707704 10.0000011,8.48707704 C9.17157389,8.48707704 8.50000108,7.81625883 8.50000108,6.98876264 C8.50000108,6.16126645 9.17157389,5.49044825 10.0000011,5.49044825 Z M13.0000009,17.4994381 L19.0000009,18.9587964 L19.0000009,11.0963916 C18.9996735,10.1055973 18.3498334,9.23190076 17.4002502,8.94556124 L15.8252503,8.4211512 C15.9404179,7.95387262 15.9990865,7.47448749 16.0000009,6.99325759 C16.0000009,3.68327282 13.3137091,1 10.0000009,1 C6.68629277,1 4.00000093,3.68327282 4.00000093,6.99325759 C4.00221925,7.29736536 4.02728969,7.60087776 4.07500154,7.90123611 C3.38341758,7.62583569 2.60011511,7.71099213 1.98403595,8.12855467 C1.36795679,8.54611721 0.999325023,9.24171202 1.00000093,9.98539143 L1.00000093,17.2911724 L6.98725124,19 L13.0000009,17.4994381 Z M6.81775126,3.81533275 C8.57750895,2.08249732 11.4069276,2.09126339 13.1558901,3.83496949 C14.9048526,5.57867559 14.9189639,8.40489351 13.1875006,10.1659383 L10.0000009,13.2816831 L6.81775126,10.1719316 C5.06053281,8.41657119 5.06053281,5.57069314 6.81775126,3.81533275 L6.81775126,3.81533275 Z M2.49997998,9.98539143 C2.49807763,9.73431092 2.62410076,9.49948261 2.83450167,9.36209265 C3.05476668,9.21769447 3.33444541,9.1983888 3.57250159,9.31114996 L4.64800148,9.69921338 C4.93574541,10.2683904 5.31218692,10.7882923 5.76325137,11.2394806 L10.0000009,15.3793233 L14.2427505,11.2342365 C14.6599359,10.8181209 15.0137073,10.3430854 15.2927504,9.82432264 L16.9555002,10.3794481 C17.2772534,10.4713751 17.4992502,10.7651081 17.4992502,11.0993882 L17.4992502,17.0544388 L13.0000006,15.9561743 L7.01500124,17.4544887 L2.49997998,16.1629417 L2.49997998,9.98539143 Z" id="Shape" fill="#303134" fill-rule="nonzero"></path>
    </g>
</svg>