<?xml version="1.0" encoding="UTF-8"?>
<svg width="20px" height="20px" viewBox="0 0 20 20" version="1.1" xmlns="http://www.w3.org/2000/svg" xmlns:xlink="http://www.w3.org/1999/xlink">
    <title>icon/20x20/measure-full</title>
    <g id="icon/20x20/measure-full" stroke="none" stroke-width="1" fill="none" fill-rule="evenodd">
        <path d="M1.75,13.75 C2.164,13.75 2.5,14.08525 2.5,14.5 L2.5,15.25 C2.5,16.4905 3.5095,17.5 4.75,17.5 L5.5,17.5 C5.914,17.5 6.25,17.83525 6.25,18.25 C6.25,18.66475 5.914,19 5.5,19 L4.75,19 C2.68225,19 1,17.31775 1,15.25 L1,14.5 C1,14.08525 1.336,13.75 1.75,13.75 Z M18.25,13.75 C18.664,13.75 19,14.08525 19,14.5 L19,15.25 C19,17.31775 17.31775,19 15.25,19 L14.5,19 C14.086,19 13.75,18.66475 13.75,18.25 C13.75,17.83525 14.086,17.5 14.5,17.5 L15.25,17.5 C16.4905,17.5 17.5,16.4905 17.5,15.25 L17.5,14.5 C17.5,14.08525 17.836,13.75 18.25,13.75 Z M11.5,17.5 C11.914,17.5 12.25,17.83525 12.25,18.25 C12.25,18.66475 11.914,19 11.5,19 L8.5,19 C8.086,19 7.75,18.66475 7.75,18.25 C7.75,17.83525 8.086,17.5 8.5,17.5 Z M12.4,5.25 C13.6978692,5.25 14.75,6.30213084 14.75,7.6 L14.75,12.4 C14.75,13.6978692 13.6978692,14.75 12.4,14.75 L7.6,14.75 C6.30213084,14.75 5.25,13.6978692 5.25,12.4 L5.25,7.6 C5.25,6.30213084 6.30213084,5.25 7.6,5.25 L12.4,5.25 Z M12.4,6.75 L7.6,6.75 C7.13055796,6.75 6.75,7.13055796 6.75,7.6 L6.75,12.4 C6.75,12.869442 7.13055796,13.25 7.6,13.25 L12.4,13.25 C12.869442,13.25 13.25,12.869442 13.25,12.4 L13.25,7.6 C13.25,7.13055796 12.869442,6.75 12.4,6.75 Z M1.75,7.75 C2.164,7.75 2.5,8.08525 2.5,8.5 L2.5,11.5 C2.5,11.91475 2.164,12.25 1.75,12.25 C1.336,12.25 1,11.91475 1,11.5 L1,8.5 C1,8.08525 1.336,7.75 1.75,7.75 Z M18.25,7.75 C18.664,7.75 19,8.08525 19,8.5 L19,11.5 C19,11.91475 18.664,12.25 18.25,12.25 C17.836,12.25 17.5,11.91475 17.5,11.5 L17.5,8.5 C17.5,8.08525 17.836,7.75 18.25,7.75 Z M5.5,1 C5.914,1 6.25,1.33525 6.25,1.75 C6.25,2.16475 5.914,2.5 5.5,2.5 L4.75,2.5 C3.5095,2.5 2.5,3.5095 2.5,4.75 L2.5,5.5 C2.5,5.91475 2.164,6.25 1.75,6.25 C1.336,6.25 1,5.91475 1,5.5 L1,4.75 C1,2.68225 2.68225,1 4.75,1 L5.5,1 Z M15.25,1 C17.31775,1 19,2.68225 19,4.75 L19,5.5 C19,5.91475 18.664,6.25 18.25,6.25 C17.836,6.25 17.5,5.91475 17.5,5.5 L17.5,4.75 C17.5,3.5095 16.4905,2.5 15.25,2.5 L14.5,2.5 C14.086,2.5 13.75,2.16475 13.75,1.75 C13.75,1.33525 14.086,1 14.5,1 Z M11.5,1 C11.914,1 12.25,1.33525 12.25,1.75 C12.25,2.16475 11.914,2.5 11.5,2.5 L8.5,2.5 C8.086,2.5 7.75,2.16475 7.75,1.75 C7.75,1.33525 8.086,1 8.5,1 Z" id="Combined-Shape" fill="#303134" fill-rule="nonzero"></path>
    </g>
</svg>