<?xml version="1.0" encoding="UTF-8"?>
<svg width="20px" height="20px" viewBox="0 0 20 20" version="1.1" xmlns="http://www.w3.org/2000/svg" xmlns:xlink="http://www.w3.org/1999/xlink">
    <title>icon/20x20/measure</title>
    <g id="icon/20x20/measure" stroke="none" stroke-width="1" fill="none" fill-rule="evenodd">
        <path d="M8.5,11.5 L8.5,2 C8.5,1.44771525 8.05228475,1 7.5,1 L3.25,1 L3.25,1 C2.0095,1 1,2.0095 1,3.25 L1,16.75 C1,17.9905 2.0095,19 3.25,19 L16.75,19 C17.9905,19 19,17.9905 19,16.75 L19,12.5 C19,11.9477153 18.5522847,11.5 18,11.5 L8.5,11.5 L8.5,11.5 Z M17.5,16.75 C17.5,17.164 17.164,17.5 16.75,17.5 L3.25,17.5 C2.83675,17.5 2.5,17.164 2.5,16.75 L2.5,3.25 C2.5,2.836 2.83675,2.5 3.25,2.5 L6.5,2.5 C6.77614237,2.5 7,2.72385763 7,3 L7,5.5 L7,5.5 L5.25,5.5 C4.97385763,5.5 4.75,5.72385763 4.75,6 L4.75,6.5 C4.75,6.77614237 4.97385763,7 5.25,7 L7,7 L7,7 L7,8.5 L5.25,8.5 C4.97385763,8.5 4.75,8.72385763 4.75,9 L4.75,9.5 C4.75,9.77614237 4.97385763,10 5.25,10 L7,10 L7,10 L7,11.5 L5.25,11.5 C4.97385763,11.5 4.75,11.7238576 4.75,12 L4.75,12.5 C4.75,12.7761424 4.97385763,13 5.25,13 L7,13 L7,13 L7,14.75 C7,15.0261424 7.22385763,15.25 7.5,15.25 L8,15.25 C8.27614237,15.25 8.5,15.0261424 8.5,14.75 L8.5,13 L8.5,13 L10,13 L10,14.75 C10,15.0261424 10.2238576,15.25 10.5,15.25 L11,15.25 C11.2761424,15.25 11.5,15.0261424 11.5,14.75 L11.5,13 L11.5,13 L13,13 L13,14.75 C13,15.0261424 13.2238576,15.25 13.5,15.25 L14,15.25 C14.2761424,15.25 14.5,15.0261424 14.5,14.75 L14.5,13 L14.5,13 L17,13 C17.2761424,13 17.5,13.2238576 17.5,13.5 L17.5,16.75 L17.5,16.75 Z" id="Shape" fill="#303134" fill-rule="nonzero"></path>
    </g>
</svg>