<?xml version="1.0" encoding="UTF-8"?>
<svg width="20px" height="20px" viewBox="0 0 20 20" version="1.1" xmlns="http://www.w3.org/2000/svg" xmlns:xlink="http://www.w3.org/1999/xlink">
    <title>icon/20x20/menu</title>
    <g id="icon/20x20/menu" stroke="none" stroke-width="1" fill="none" fill-rule="evenodd">
        <path d="M18.2653061,15.3844742 C18.6710663,15.3844742 19,15.7461219 19,16.1922371 C19,16.6383522 18.6710663,17 18.2653061,17 L1.73469388,17 C1.32893365,17 1,16.6383522 1,16.1922371 C1,15.7461219 1.32893365,15.3844742 1.73469388,15.3844742 L18.2653061,15.3844742 Z M18.2653061,9.19223708 C18.6710663,9.19223708 19,9.55388486 19,10 C19,10.4461151 18.6710663,10.8077629 18.2653061,10.8077629 L1.73469388,10.8077629 C1.32893365,10.8077629 1,10.4461151 1,10 C1,9.55388486 1.32893365,9.19223708 1.73469388,9.19223708 L18.2653061,9.19223708 Z M18.2653061,3 C18.6710663,3 19,3.36164778 19,3.80776292 C19,4.25387806 18.6710663,4.61552583 18.2653061,4.61552583 L1.73469388,4.61552583 C1.32893365,4.61552583 1,4.25387806 1,3.80776292 C1,3.36164778 1.32893365,3 1.73469388,3 L18.2653061,3 Z" id="Combined-Shape" fill="#303134" fill-rule="nonzero"></path>
    </g>
</svg>