<?xml version="1.0" encoding="UTF-8"?>
<svg width="20px" height="20px" viewBox="0 0 20 20" version="1.1" xmlns="http://www.w3.org/2000/svg" xmlns:xlink="http://www.w3.org/1999/xlink">
    <title>icon/20x20/message</title>
    <g id="icon/20x20/message" stroke="none" stroke-width="1" fill="none" fill-rule="evenodd">
        <path d="M15.25,2.5 L14.5,2.5 L14.5,1.75 C14.5,1.336 14.16475,1 13.75,1 C13.33525,1 13,1.336 13,1.75 L13,2.5 L7,2.5 L7,1.75 C7,1.336 6.66475,1 6.25,1 C5.83525,1 5.5,1.336 5.5,1.75 L5.5,2.5 L4.75,2.5 C2.68225,2.5 1,4.18225 1,6.25 L1,15.25 C1,17.31775 2.68225,19 4.75,19 L15.25,19 C17.31775,19 19,17.31775 19,15.25 L19,6.25 C19,4.18225 17.31775,2.5 15.25,2.5 Z M4.75,4 L15.25,4 C16.4905,4 17.5,5.0095 17.5,6.25 L17.5,7 L2.5,7 L2.5,6.25 C2.5,5.0095 3.5095,4 4.75,4 Z M15.25,17.5 L4.75,17.5 C3.5095,17.5 2.5,16.4905 2.5,15.25 L2.5,8.5 L17.5,8.5 L17.5,15.25 C17.5,16.4905 16.4905,17.5 15.25,17.5 Z M14.374,10.864 C14.662,11.16175 14.653,11.63725 14.35525,11.9245 L10.80025,15.3505 C10.3855,15.76525 9.82,16 9.21925,16 C8.6185,16 8.053,15.766 7.6285,15.34075 L5.9395,13.77175 C5.6365,13.48975 5.6185,13.015 5.9005,12.712 C6.184,12.40825 6.658,12.39175 6.96025,12.673 L8.66875,14.26075 C8.9935,14.58325 9.466,14.56225 9.748,14.28025 L13.3135,10.84375 C13.612,10.5565 14.086,10.5655 14.374,10.86325 L14.374,10.864 Z" id="Shape" fill="#303134" fill-rule="nonzero"></path>
    </g>
</svg>