<?xml version="1.0" encoding="UTF-8"?>
<svg width="20px" height="20px" viewBox="0 0 20 20" version="1.1" xmlns="http://www.w3.org/2000/svg" xmlns:xlink="http://www.w3.org/1999/xlink">
    <title>icon/20x20/mrt</title>
    <g id="icon/20x20/mrt" stroke="none" stroke-width="1" fill="none" fill-rule="evenodd">
        <path d="M14.1091493,1 C16.2547553,1 18,2.73062952 18,4.87155823 L18,13.0222071 C18,14.6726522 16.928349,16.1262613 15.4181503,16.66889 L16.1260238,17.2968536 C16.4987832,17.6271864 16.5351731,18.1994248 16.2073029,18.5749839 C15.8794327,18.950543 15.3114602,18.9872062 14.9387008,18.6568735 L13.0018555,16.9404756 L12.92,16.858 L7.426,16.858 L5.82504593,18.6924812 C5.49717573,19.0680403 4.92920323,19.1047035 4.55644383,18.7743708 C4.18368443,18.444038 4.14729455,17.8717996 4.47516474,17.4962405 L5.07524337,16.8094695 C3.30974616,16.4311237 2,14.8473767 2,13.0222071 L2,4.87155823 C2,2.73043633 3.7447988,1 5.89085072,1 L14.1091493,1 Z M16.382,9.093 L3.617,9.093 L3.61797753,13.0222071 C3.61797753,14.1106603 4.44733706,15.0688203 5.53710104,15.2381352 L5.48764045,15.2283161 L14.5123596,15.2283161 L14.6107857,15.2102398 C15.577777,14.9923191 16.3094441,14.1468895 16.3769339,13.1697102 L16.3820225,13.0222071 L16.382,9.093 Z M10.1926164,10.9845449 C11.0433387,10.9845449 11.7335474,11.6690721 11.7335474,12.5127916 C11.7335474,13.3565111 11.0433387,14.0410382 10.1926164,14.0410382 C9.34189406,14.0410382 8.65168539,13.3565111 8.65168539,12.5127916 C8.65168539,11.6690721 9.34189406,10.9845449 10.1926164,10.9845449 Z M14.1091493,2.63012978 L5.89085072,2.63012978 C4.63272929,2.63012978 3.61797753,3.63652852 3.61797753,4.87155823 L3.617,7.644 L16.382,7.644 L16.3820225,4.87155823 C16.3820225,3.63677512 15.366876,2.63012978 14.1091493,2.63012978 Z" id="Combined-Shape" fill="#303134" fill-rule="nonzero"></path>
    </g>
</svg>