<?xml version="1.0" encoding="UTF-8"?>
<svg width="20px" height="20px" viewBox="0 0 20 20" version="1.1" xmlns="http://www.w3.org/2000/svg" xmlns:xlink="http://www.w3.org/1999/xlink">
    <title>icon/20x20/phone</title>
    <g id="icon/20x20/phone" stroke="none" stroke-width="1" fill="none" fill-rule="evenodd">
        <path d="M10.7365455,1.75243414 C10.7365455,1.33753907 11.0728795,1.00120017 11.4877686,1.00120017 C15.6347716,1.00575442 18.9954458,4.36647712 19,8.51353989 C19,8.92843495 18.6636659,9.26477386 18.2487769,9.26477386 C17.8338878,9.26477386 17.4975537,8.92843495 17.4975537,8.51353989 C17.4938277,5.19592396 14.8053367,2.50739414 11.4877686,2.50366811 C11.0728795,2.50366811 10.7365455,2.1673292 10.7365455,1.75243414 Z M11.4877686,5.508604 C13.1473249,5.508604 14.4926612,6.85395962 14.4926612,8.51353989 C14.4926612,8.92843495 14.8289952,9.26477386 15.2438843,9.26477386 C15.6587734,9.26477386 15.9951074,8.92843495 15.9951074,8.51353989 C15.9926229,6.02519938 13.9760732,4.00862067 11.4877686,4.00613605 C11.0728795,4.00613605 10.7365455,4.34247497 10.7365455,4.75737003 C10.7365455,5.17226509 11.0728795,5.50860399 11.4877686,5.508604 L11.4877686,5.508604 Z M18.3186406,13.5761056 C19.2250586,14.4850451 19.2250586,15.9560684 18.3186406,16.865008 L17.6350276,17.6530524 C11.48251,23.543478 -3.48936713,8.57514107 2.3100755,2.40300276 L3.17398211,1.65176879 C4.08339822,0.771174539 5.53154325,0.78456179 6.42452464,1.68181814 C6.44781256,1.7051064 7.83982904,3.51332657 7.83982904,3.51332657 C8.69785802,4.41474901 8.69554202,5.83149817 7.83457047,6.73011044 L6.96465408,7.8239071 C7.93698673,10.1864836 9.81080607,12.064115 12.1713817,13.041227 L13.2719236,12.1660395 C14.1706251,11.3057441 15.5868003,11.3037593 16.4879098,12.1615321 C16.4879098,12.1615321 18.2953527,13.5528174 18.3186406,13.5761056 Z M17.2849576,14.6683998 C17.2849576,14.6683998 15.4872806,13.2853781 15.4639927,13.2620898 C15.1418631,12.942686 14.6224776,12.942686 14.300348,13.2620898 C14.280065,13.2831244 12.7648479,14.4903574 12.7648479,14.4903574 C12.5571052,14.6557189 12.2775022,14.6991309 12.0294005,14.6045449 C8.96577467,13.4638736 6.54803315,11.0496605 5.40286117,7.98767611 C5.30068218,7.73598761 5.34233206,7.44874292 5.51178853,7.23644213 C5.51178853,7.23644213 6.71900411,5.72045198 6.73928714,5.7009199 C7.05868635,5.37878564 7.05868635,4.85939272 6.73928714,4.53725847 C6.71599922,4.51472145 5.33299742,2.71551609 5.33299742,2.71551609 C5.00687768,2.42309155 4.50924033,2.43594462 4.19865048,2.74481422 L3.33474387,3.49604819 C-0.903657088,8.59241945 12.0707178,20.8472992 16.5367393,16.6268668 L17.2211036,15.8380711 C17.5544826,15.5292694 17.5827397,15.0116585 17.2849576,14.6683998 L17.2849576,14.6683998 Z" id="Shape" fill="#303134" fill-rule="nonzero"></path>
    </g>
</svg>