<?xml version="1.0" encoding="UTF-8"?>
<svg width="20px" height="20px" viewBox="0 0 20 20" version="1.1" xmlns="http://www.w3.org/2000/svg" xmlns:xlink="http://www.w3.org/1999/xlink">
    <title>icon/20x20/price</title>
    <g id="icon/20x20/price" stroke="none" stroke-width="1" fill="none" fill-rule="evenodd">
        <path d="M10,16 C14.1355,16 17.5,12.6355 17.5,8.5 C17.5,4.3645 14.1355,1 10,1 C5.8645,1 2.5,4.3645 2.5,8.5 C2.5,12.6355 5.8645,16 10,16 Z M10,2.5 C13.30825,2.5 16,5.19175 16,8.5 C16,11.80825 13.30825,14.5 10,14.5 C6.69175,14.5 4,11.80825 4,8.5 C4,5.19175 6.69175,2.5 10,2.5 Z M19,16.375 C19,17.8225 17.8225,19 16.375,19 L3.625,19 C2.1775,19 1,17.8225 1,16.375 C1,15.5545 1.3915,14.77075 2.047,14.27725 C2.3785,14.02825 2.84875,14.09575 3.097,14.425 C3.346,14.75575 3.28,15.226 2.94925,15.475 C2.6635,15.6895 2.5,16.018 2.5,16.37425 C2.5,16.9945 3.00475,17.49925 3.625,17.49925 L16.375,17.49925 C16.99525,17.49925 17.5,16.9945 17.5,16.37425 C17.5,16.01725 17.33575,15.6895 17.05,15.47425 C16.71925,15.2245 16.65325,14.75425 16.903,14.4235 C17.15125,14.09425 17.62225,14.02675 17.953,14.2765 C18.61825,14.779 19,15.54325 19,16.375 Z M11.5,10 C11.5,9.71575 11.29675,9.4765 11.017,9.42925 L8.73625,9.04975 C7.72975,8.88175 7,8.01925 7,7 C7,5.7595 8.0095,4.75 9.25,4.75 L9.25,4 C9.25,3.58525 9.586,3.25 10,3.25 C10.414,3.25 10.75,3.58525 10.75,4 L10.75,4.75 L10.951,4.75 C11.75125,4.75 12.49825,5.1805 12.8995,5.87425 C13.1065,6.2335 12.98425,6.69175 12.62575,6.89875 C12.268,7.10725 11.809,6.9835 11.60125,6.62575 C11.467,6.39325 11.218,6.25 10.951,6.25 L9.25,6.25 C8.83675,6.25 8.5,6.586 8.5,7 C8.5,7.28425 8.70325,7.5235 8.983,7.57075 L11.26375,7.95025 C12.27025,8.11825 13,8.98075 13,10 C13,11.2405 11.9905,12.25 10.75,12.25 L10.75,13 C10.75,13.41475 10.414,13.75 10,13.75 C9.586,13.75 9.25,13.41475 9.25,13 L9.25,12.25 L9.049,12.25 C8.24875,12.25 7.50175,11.8195 7.1005,11.12575 C6.8935,10.7665 7.01575,10.30825 7.37425,10.10125 C7.73125,9.89275 8.191,10.0165 8.39875,10.37425 C8.533,10.60675 8.782,10.75 9.049,10.75 L10.75,10.75 C11.16325,10.75 11.5,10.414 11.5,10 Z" id="Shape" fill="#303134" fill-rule="nonzero"></path>
    </g>
</svg>