<?xml version="1.0" encoding="UTF-8"?>
<svg width="20px" height="20px" viewBox="0 0 20 20" version="1.1" xmlns="http://www.w3.org/2000/svg" xmlns:xlink="http://www.w3.org/1999/xlink">
    <title>icon/20x20/print</title>
    <g id="icon/20x20/print" stroke="none" stroke-width="1" fill="none" fill-rule="evenodd">
        <path d="M12.25,1 C13.9068542,1 15.25,2.34314575 15.25,4 L15.25,5.5 C17.3200399,5.50247959 18.9975204,7.17996014 19,9.25 L19,13 C18.9975204,15.0700399 17.3200399,16.7475204 15.25,16.75 C15.25,17.9926407 14.2426407,19 13,19 L7,19 C5.75735931,19 4.75,17.9926407 4.75,16.75 C2.67996014,16.7475204 1.00247959,15.0700399 1,13 L1,9.25 C1.00247959,7.17996014 2.67996014,5.50247959 4.75,5.5 L4.75,4 C4.75,2.34314575 6.09314575,1 7.75,1 Z M13,13 L7,13 C6.58578644,13 6.25,13.3357864 6.25,13.75 L6.25,16.75 C6.25,17.1642136 6.58578644,17.5 7,17.5 L13,17.5 C13.4142136,17.5 13.75,17.1642136 13.75,16.75 L13.75,13.75 C13.75,13.3357864 13.4142136,13 13,13 Z M15.25,7 L4.75,7 C3.50735931,7 2.5,8.00735931 2.5,9.25 L2.5,13 C2.5,14.2426407 3.50735931,15.25 4.75,15.25 L4.75,13.75 C4.75,12.5073593 5.75735931,11.5 7,11.5 L13,11.5 C14.2426407,11.5 15.25,12.5073593 15.25,13.75 L15.25,15.25 C16.4926407,15.25 17.5,14.2426407 17.5,13 L17.5,9.25 C17.5,8.00735931 16.4926407,7 15.25,7 Z M14.5,8.5 C14.9142136,8.5 15.25,8.83578644 15.25,9.25 C15.25,9.66421356 14.9142136,10 14.5,10 L13,10 C12.5857864,10 12.25,9.66421356 12.25,9.25 C12.25,8.83578644 12.5857864,8.5 13,8.5 Z M12.25,2.5 L7.75,2.5 C6.92157288,2.5 6.25,3.17157288 6.25,4 L6.25,5.5 L13.75,5.5 L13.75,4 C13.75,3.17157288 13.0784271,2.5 12.25,2.5 Z" id="Combined-Shape" fill="#303134" fill-rule="nonzero"></path>
    </g>
</svg>