<?xml version="1.0" encoding="UTF-8"?>
<svg width="20px" height="20px" viewBox="0 0 20 20" version="1.1" xmlns="http://www.w3.org/2000/svg" xmlns:xlink="http://www.w3.org/1999/xlink">
    <title>icon/recent</title>
    <g id="icon/recent" stroke="none" stroke-width="1" fill="none" fill-rule="evenodd">
        <path d="M10,19 C5.03725,19 1,14.96275 1,10 C1,5.03725 5.03725,1 10,1 C14.96275,1 19,5.03725 19,10 C19,14.96275 14.96275,19 10,19 Z M10,2.5 C5.8645,2.5 2.5,5.8645 2.5,10 C2.5,14.1355 5.8645,17.5 10,17.5 C14.1355,17.5 17.5,14.1355 17.5,10 C17.5,5.8645 14.1355,2.5 10,2.5 Z M15.1918945,10.354248 C15.1918945,9.93949805 14.8566445,9.60424805 14.4418945,9.60424805 L10.4880371,9.60424805 L10.4880371,4.75 C10.4880371,4.33525 10.1520371,4 9.73803711,4 C9.32403711,4 8.98803711,4.33525 8.98803711,4.75 L8.98803711,10.354248 C8.98803711,10.768998 9.32403711,11.104248 9.73803711,11.104248 L14.4418945,11.104248 C14.8566445,11.104248 15.1918945,10.768998 15.1918945,10.354248 Z" id="Shape" fill="#303134" fill-rule="nonzero"></path>
    </g>
</svg>