<?xml version="1.0" encoding="UTF-8"?>
<svg width="20px" height="20px" viewBox="0 0 20 20" version="1.1" xmlns="http://www.w3.org/2000/svg" xmlns:xlink="http://www.w3.org/1999/xlink">
    <title>icon/record</title>
    <g id="icon/record" stroke="none" stroke-width="1" fill="none" fill-rule="evenodd">
        <path d="M18.5,16 C18.5,17.2405 17.5051304,18.25 16.2826087,18.25 L16.2826087,18.55 C16.2826087,18.7985281 16.0811368,19 15.8326087,19 L15.2543478,19 C15.0058197,19 14.8043478,18.7985281 14.8043478,18.55 L14.8043478,18.25 L14.8043478,18.25 C13.5818261,18.25 12.5869565,17.2405 12.5869565,16 L14.0652174,16 C14.0652174,16.41325 14.3963478,16.75 14.8043478,16.75 L16.2826087,16.75 C16.6906087,16.75 17.0217391,16.41325 17.0217391,16 C17.0217391,15.7165 16.8214348,15.4765 16.5457391,15.43 L14.2980435,15.04975 C13.3061304,14.8825 12.5869565,14.02 12.5869565,13 C12.5869565,11.7595 13.5818261,10.75 14.8043478,10.75 L14.8043478,10.45 C14.8043478,10.2014719 15.0058197,10 15.2543478,10 L15.8326087,10 C16.0811368,10 16.2826087,10.2014719 16.2826087,10.45 L16.2826087,10.75 L16.2826087,10.75 C17.5051304,10.75 18.5,11.7595 18.5,13 L17.0217391,13 C17.0217391,12.58675 16.6906087,12.25 16.2826087,12.25 L14.8043478,12.25 C14.3963478,12.25 14.0652174,12.58675 14.0652174,13 C14.0652174,13.2835 14.2655217,13.5235 14.5412174,13.57 L16.788913,13.95025 C17.7808261,14.1175 18.5,14.98 18.5,16 Z M11.8663043,10.75 L5.35652174,10.75 C4.85946546,10.75 4.45652174,11.1529437 4.45652174,11.65 L4.45652174,15.1 C4.45652174,15.5970563 4.85946546,16 5.35652174,16 L11.1086957,16 L11.1086957,16 L11.1086957,14.5 L6.38478261,14.5 C6.13625447,14.5 5.93478261,14.2985281 5.93478261,14.05 L5.93478261,12.7 C5.93478261,12.4514719 6.13625447,12.25 6.38478261,12.25 L11.1833478,12.25 L11.1833478,12.25 C11.2956957,11.69275 11.5396087,11.188 11.8663043,10.75 Z M5.20652174,9.25 L7.40217391,9.25 C7.81638748,9.25 8.15217391,8.91421356 8.15217391,8.5 C8.15217391,8.08578644 7.81638748,7.75 7.40217391,7.75 L5.20652174,7.75 C4.79230818,7.75 4.45652174,8.08578644 4.45652174,8.5 C4.45652174,8.91421356 4.79230818,9.25 5.20652174,9.25 Z M7.40217391,4.75 L5.20652174,4.75 C4.79230818,4.75 4.45652174,5.08578644 4.45652174,5.5 C4.45652174,5.91421356 4.79230818,6.25 5.20652174,6.25 L7.40217391,6.25 C7.81638748,6.25 8.15217391,5.91421356 8.15217391,5.5 C8.15217391,5.08578644 7.81638748,4.75 7.40217391,4.75 Z M12.6098696,19 L2.4,19 C1.90294373,19 1.5,18.5970563 1.5,18.1 L1.5,3.25 L1.5,3.25 C1.5,2.0095 2.49486957,1 3.7173913,1 L10.298919,1 C10.5398911,1 10.7707985,1.09663381 10.9399433,1.26826595 L16.0236329,6.42671579 C16.189582,6.59510522 16.2826087,6.82203055 16.2826087,7.05844983 L16.2826087,8.5 L16.2826087,8.5 L14.8043478,8.5 L14.8043478,7.75 L10.5304348,7.75 C10.0333785,7.75 9.63043478,7.34705627 9.63043478,6.85 L9.63043478,2.95 C9.63043478,2.70147186 9.42896292,2.5 9.18043478,2.5 L3.7173913,2.5 L3.7173913,2.5 C3.31013043,2.5 2.97826087,2.83675 2.97826087,3.25 L2.97826087,17.05 C2.97826087,17.2985281 3.17973273,17.5 3.42826087,17.5 L11.422087,17.5 L11.422087,17.5 C11.6822609,18.10075 12.096913,18.61225 12.6098696,19 Z M13.7592174,6.25 L11.1086957,3.5605 L11.1086957,5.8 C11.1086957,6.04852814 11.3101675,6.25 11.5586957,6.25 L13.7592174,6.25 L13.7592174,6.25 Z" id="Shape" fill="#303134" fill-rule="nonzero"></path>
    </g>
</svg>