<?xml version="1.0" encoding="UTF-8"?>
<svg width="20px" height="20px" viewBox="0 0 20 20" version="1.1" xmlns="http://www.w3.org/2000/svg" xmlns:xlink="http://www.w3.org/1999/xlink">
    <title>icon/20x20/search</title>
    <g id="icon/20x20/search" stroke="none" stroke-width="1" fill="none" fill-rule="evenodd">
        <path d="M8.9375,0.75 C13.4593314,0.75 17.125,4.41566861 17.125,8.9375 C17.125,10.9281293 16.4145963,12.7528349 15.2334832,14.1719223 L19.0303301,17.9696699 C19.3232233,18.2625631 19.3232233,18.7374369 19.0303301,19.0303301 C18.7374369,19.3232233 18.2625631,19.3232233 17.9696699,19.0303301 L14.1719223,15.2334832 C12.7528349,16.4145963 10.9281293,17.125 8.9375,17.125 C4.41566861,17.125 0.75,13.4593314 0.75,8.9375 C0.75,4.41566861 4.41566861,0.75 8.9375,0.75 Z M8.9375,2.25 C5.24409574,2.25 2.25,5.24409574 2.25,8.9375 C2.25,12.6309043 5.24409574,15.625 8.9375,15.625 C12.6309043,15.625 15.625,12.6309043 15.625,8.9375 C15.625,5.24409574 12.6309043,2.25 8.9375,2.25 Z" id="Combined-Shape" fill="#303134" fill-rule="nonzero"></path>
    </g>
</svg>