<?xml version="1.0" encoding="UTF-8"?>
<svg width="20px" height="20px" viewBox="0 0 20 20" version="1.1" xmlns="http://www.w3.org/2000/svg" xmlns:xlink="http://www.w3.org/1999/xlink">
    <title>icon/20x20/share</title>
    <g id="icon/20x20/share" stroke="none" stroke-width="1" fill="none" fill-rule="evenodd">
        <path d="M15.5029311,11.9999177 C14.3530783,12.0008563 13.2774297,12.5685724 12.6269981,13.5178049 L7.75087196,11.3137186 C8.09720603,10.4765057 8.09855261,9.53611638 7.75461764,8.6979129 L12.6240015,6.48257743 C13.6052863,7.90332511 15.4761999,8.39329885 17.0267645,7.63561748 C18.5773291,6.8779361 19.342373,5.09990525 18.8271185,3.45143246 C18.311864,1.80295968 16.6708884,0.778589459 14.9654613,1.04081371 C13.2600343,1.30303796 12.0017866,2.77318899 12.0044661,4.50047464 C12.0076409,4.6983099 12.0276907,4.89551215 12.064397,5.08993086 L6.88786731,7.44475597 C5.50151526,6.14448519 3.33177405,6.19006107 2.00112546,7.54740305 C0.670476866,8.90474502 0.665708563,11.0773002 1.99038618,12.4404827 C3.31506379,13.8036651 5.48458399,13.8587853 6.87663027,12.5646257 L12.0666444,14.9104515 C12.0305953,15.1046976 12.0107994,15.3016161 12.0074626,15.4991578 C12.0071596,16.9149081 12.8588746,18.191409 14.1653896,18.7333333 C15.4719046,19.2752576 16.9758717,18.975861 17.9758794,17.9747743 C18.975887,16.9736877 19.2749609,15.4680977 18.7336207,14.160173 C18.1922805,12.8522484 16.9171554,11.9996143 15.5029311,11.9999177 Z M15.5029311,2.50037304 C16.3110928,2.50006984 17.0398462,2.98718653 17.3493263,3.73454916 C17.6588063,4.48191179 17.4880556,5.34231406 16.9167061,5.91449458 C16.3453566,6.4866751 15.4859458,6.65793278 14.7392727,6.34839907 C13.9925996,6.03886536 13.5057346,5.3095084 13.5057346,4.50047464 C13.5065603,3.39648441 14.4001312,2.50161378 15.5029311,2.50037304 L15.5029311,2.50037304 Z M4.51610279,11.9999178 C3.7079411,12.000221 2.97918772,11.5131043 2.66970764,10.7657417 C2.36022756,10.0183791 2.53097835,9.15797678 3.10232784,8.58579627 C3.67367733,8.01361575 4.53308813,7.84235806 5.27976123,8.15189177 C6.02643433,8.46142548 6.51329932,9.19078245 6.51329932,9.99981621 C6.51206165,11.1036354 5.61873172,11.9982647 4.51610279,11.9999178 Z M15.5029311,17.4992592 C14.3994962,17.4992592 13.5049854,16.6037833 13.5049854,15.4991578 C13.5049854,14.3945322 14.3994962,13.4990563 15.5029311,13.4990563 C16.606366,13.4990563 17.5008768,14.3945322 17.5008768,15.4991578 C17.5000505,16.6034405 16.6060236,17.498432 15.5029311,17.4992592 L15.5029311,17.4992592 Z" id="Shape" fill="#303134" fill-rule="nonzero"></path>
    </g>
</svg>