<?xml version="1.0" encoding="UTF-8"?>
<svg width="20px" height="20px" viewBox="0 0 20 20" version="1.1" xmlns="http://www.w3.org/2000/svg" xmlns:xlink="http://www.w3.org/1999/xlink">
    <title>icon/20x20/speaker</title>
    <g id="icon/20x20/speaker" stroke="none" stroke-width="1" fill="none" fill-rule="evenodd">
        <path d="M13.7470064,1 C13.3328901,1 12.9971825,1.33578644 12.9971825,1.75 C12.9971825,3.96175 11.0603873,4.75 9.24806294,4.75 L3.99929561,4.75 C2.34283039,4.75 1,6.09314575 1,7.75 L1,9.25 C1.00331773,10.1596927 1.42128749,11.0181955 2.13523339,11.58175 L4.81360437,17.56075 C5.20275338,18.4357792 6.07036191,18.999725 7.02783436,19 C7.78547845,18.9995144 8.49133738,18.6153054 8.90317967,17.9792231 C9.31502196,17.3431408 9.37681586,16.5417251 9.06735538,15.85 L7.41774279,12.25 L9.24806294,12.25 C11.0603873,12.25 12.9971825,13.03825 12.9971825,15.25 C12.9971825,15.6642136 13.3328901,16 13.7470064,16 C14.1611227,16 14.4968303,15.6642136 14.4968303,15.25 L14.4968303,1.75 C14.4968303,1.33578644 14.1611227,1 13.7470064,1 L13.7470064,1 Z M7.70117623,16.46425 C7.80207997,16.6921795 7.78099978,16.9556739 7.6451423,17.164653 C7.50928481,17.3736322 7.27705109,17.499791 7.02783436,17.5 C6.66229769,17.4997439 6.33129011,17.2839209 6.18353265,16.9495 L4.07802712,12.25 L5.7681302,12.25 L7.70117623,16.46425 Z M12.9971825,11.95 C11.9259043,11.1243897 10.5995196,10.6998469 9.24806294,10.75 L3.99929561,10.75 C3.171063,10.75 2.49964781,10.0784271 2.49964781,9.25 L2.49964781,7.75 C2.49964781,6.92157288 3.171063,6.25 3.99929561,6.25 L9.24806294,6.25 C10.5990624,6.30122223 11.9253998,5.87802124 12.9971825,5.05375 L12.9971825,11.95 Z M18.9207913,12.589 C18.8319612,12.7670864 18.6760072,12.9025556 18.487272,12.9655759 C18.2985368,13.0285962 18.0924981,13.0139994 17.9145276,12.925 L16.4148798,12.175 C16.0442457,11.9898465 15.8938487,11.5392211 16.0789587,11.1685 C16.2640687,10.7977789 16.7145883,10.6473465 17.0852224,10.8325 L18.5848702,11.5825 C18.9534808,11.7674767 19.10356,12.2154746 18.9207913,12.58525 L18.9207913,12.589 Z M16.0789587,5.839 C15.9899802,5.66098776 15.9753868,5.45490058 16.0383923,5.26612108 C16.1013978,5.07734158 16.2368352,4.92135094 16.4148798,4.8325 L17.9145276,4.0825 C18.2851617,3.89734654 18.7356813,4.04777886 18.9207913,4.4185 C19.1059013,4.78922114 18.9555043,5.23984654 18.5848702,5.425 L17.0852224,6.175 C16.9072519,6.26399944 16.7012131,6.2785962 16.512478,6.21557592 C16.3237428,6.15255563 16.1677888,6.0170864 16.0789587,5.839 L16.0789587,5.839 Z M15.9964781,8.5 C15.9964781,8.08578644 16.3321857,7.75 16.746302,7.75 L18.2459498,7.75 C18.6600661,7.75 18.9957737,8.08578644 18.9957737,8.5 C18.9957737,8.91421356 18.6600661,9.25 18.2459498,9.25 L16.746302,9.25 C16.3321857,9.25 15.9964781,8.91421356 15.9964781,8.5 Z" id="Shape" fill="#303134" fill-rule="nonzero"></path>
    </g>
</svg>