<?xml version="1.0" encoding="UTF-8"?>
<svg width="20px" height="20px" viewBox="0 0 20 20" version="1.1" xmlns="http://www.w3.org/2000/svg" xmlns:xlink="http://www.w3.org/1999/xlink">
    <title>icon/20x20/subscribe</title>
    <g id="icon/20x20/subscribe" stroke="none" stroke-width="1" fill="none" fill-rule="evenodd">
        <path d="M9.85599943,0.5 C10.8679307,0.505182641 11.7342946,1.2696469 12.0477971,2.37133338 L12.0755294,2.47040174 C14.0001266,3.20769663 15.5315188,4.86866147 16.1047146,7.01874397 L17.9239972,13.8283483 C18.0987152,14.4843827 17.9684516,15.1875489 17.5718318,15.7293453 C17.1752121,16.2711418 16.557764,16.5893761 15.902572,16.5896862 L13.4754629,16.5896862 C13.144486,18.2830577 11.7113544,19.5 10.048133,19.5 C8.38491162,19.5 6.95177997,18.2830577 6.62080309,16.5896862 L4.0978686,16.5896862 C3.4615823,16.5895238 2.85973539,16.2894264 2.46158752,15.7737915 C2.06343965,15.2581566 1.91200206,14.5826874 2.04986412,13.9373485 L3.45646829,7.36100453 C3.95326116,5.03231703 5.57178495,3.20269286 7.64918211,2.43976014 L7.66984997,2.37133338 C7.98335243,1.2696469 8.84971635,0.505182641 9.85599943,0.5 Z M12.0177985,16.5896862 L8.07846748,16.5896862 C8.37381558,17.4575825 9.16207349,18.0392058 10.048133,18.0430218 C10.9341925,18.0392058 11.7224504,17.4575825 12.0177985,16.5896862 Z M9.9128233,3.51113888 L9.68635642,3.51214618 C7.3374095,3.57607607 5.33178014,5.2926677 4.82180461,7.6756517 L3.41520044,14.2519957 C3.36916467,14.467144 3.41960557,14.6923718 3.55233128,14.8643098 C3.68505698,15.0362478 3.88572223,15.1363697 4.0978686,15.1363697 L15.8990748,15.1363697 C16.1187981,15.1380137 16.3263204,15.0315631 16.4586388,14.8493167 C16.5906147,14.6682774 16.6328534,14.4332532 16.57265,14.2149356 L14.7540668,7.40533126 C14.1652986,5.20509655 12.298825,3.6584397 10.1374279,3.52036666 L9.9128233,3.51113888 Z M3.78940781,2.67535372 C4.10677618,2.98274454 4.11486459,3.48921194 3.80747377,3.80658032 C3.12002182,4.51634618 2.53293629,5.64957848 2.06670963,7.20955123 C1.94019087,7.63287712 1.49445371,7.87348684 1.07112782,7.74696808 C0.647801935,7.62044932 0.407192216,7.17471216 0.533710975,6.75138627 C1.06748431,4.96540549 1.76881024,3.61165863 2.65818121,2.69341968 C2.96557203,2.3760513 3.47203943,2.3679629 3.78940781,2.67535372 Z M15.9434203,2.67535372 C16.2607887,2.3679629 16.7672561,2.3760513 17.0746469,2.69341968 C17.9640179,3.61165863 18.6653438,4.96540549 19.1991172,6.75138627 C19.3256359,7.17471216 19.0850262,7.62044932 18.6617003,7.74696808 C18.2383744,7.87348684 17.7926373,7.63287712 17.6661185,7.20955123 C17.1998918,5.64957848 16.6128063,4.51634618 15.9253544,3.80658032 C15.6179635,3.48921194 15.6260519,2.98274454 15.9434203,2.67535372 Z M9.85976471,1.66402528 L9.75242984,1.67062328 C9.49909424,1.7042615 9.25814252,1.84922181 9.06826899,2.08036717 L9.05221547,2.1004848 C9.24980455,2.07620039 9.44984039,2.06113113 9.65187086,2.0556642 C9.99720214,2.04631956 10.3381194,2.06530735 10.6722708,2.1108187 L10.6493781,2.08036717 C10.4595045,1.84922181 10.2185528,1.7042615 9.96521722,1.67062328 L9.85976471,1.66402528 Z" id="Combined-Shape" fill="#303134" fill-rule="nonzero"></path>
    </g>
</svg>