<?xml version="1.0" encoding="UTF-8"?>
<svg width="20px" height="20px" viewBox="0 0 20 20" version="1.1" xmlns="http://www.w3.org/2000/svg" xmlns:xlink="http://www.w3.org/1999/xlink">
    <title>icon/20x20/surrounding</title>
    <g id="icon/20x20/surrounding" stroke="none" stroke-width="1" fill="none" fill-rule="evenodd">
        <path d="M14.8131892,12.9963781 L14.9098907,13.0078142 L14.9231908,13.0105237 L15.1439365,13.0567947 C17.8623935,13.6444003 19.415599,14.6505301 19.4984273,15.926816 L19.4996798,15.967032 L19.5,16.0270492 C19.5,18.1154968 15.4708064,19.5 10,19.5 C4.52919365,19.5 0.5,18.1154968 0.5,16.0270492 C0.5,14.6728939 2.14660406,13.6062124 5.07847794,13.0105056 C5.48643431,12.9263782 5.89076126,13.1862238 5.976818,13.5899892 C6.06324776,13.9947553 5.79773647,14.3909865 5.38700219,14.4743176 C3.39778225,14.8792092 2.02000206,15.5731166 2.02000206,16.0270492 C2.02000206,16.9544435 5.80899749,18.004918 10.0007946,18.004918 C14.1925917,18.004918 17.9815871,16.9544435 17.9815871,16.0270492 C17.9815871,15.5729133 16.6041997,14.8791603 14.6147924,14.4743593 C14.2039429,14.3910048 13.9390859,13.9956007 14.0248277,13.5897224 C14.0965878,13.2530361 14.3885271,13.0169052 14.7202328,12.9961138 L14.8122951,12.9963934 L14.8131892,12.9963781 Z M10.7961706,5.54590164 C12.5290023,5.54590164 13.9395188,6.92821053 13.9395188,8.6295082 L13.9395188,10.1868852 C13.9395188,11.1649066 13.3082674,12.0354597 12.3727045,12.3607682 L12.3495628,12.3682514 L12.3503559,15.6377049 C12.3503559,16.0169298 12.0641776,16.3290511 11.693723,16.3784379 L11.5907521,16.3852459 C11.1717242,16.3852459 10.8311484,16.0514048 10.8311484,15.6377049 L10.8311484,11.7442623 C10.8311484,11.330916 11.1721577,10.9967213 11.5907521,10.9967213 C12.0490194,10.9967213 12.4203113,10.6327821 12.4203113,10.1868852 L12.4203113,8.6295082 C12.4203113,7.75412589 11.6926094,7.04098361 10.7961706,7.04098361 L9.20700768,7.04098361 C8.31056892,7.04098361 7.58286699,7.75412589 7.58286699,8.6295082 L7.58286699,10.1868852 C7.58286699,10.6331333 7.95372145,10.9967213 8.41242621,10.9967213 C8.83145412,10.9967213 9.17202994,11.3305624 9.17202994,11.7442623 L9.17202994,15.6377049 C9.17202994,16.0514048 8.83145412,16.3852459 8.41242621,16.3852459 C7.9933983,16.3852459 7.65282247,16.0514048 7.65282247,15.6377049 L7.65251366,12.3682514 L7.63047378,12.3607682 C6.74994407,12.0545955 6.13897737,11.265438 6.07014575,10.3582726 L6.06365951,10.1868852 L6.06365951,8.6295082 C6.06365951,6.92821053 7.474176,5.54590164 9.20700768,5.54590164 L10.7961706,5.54590164 Z M10.0015892,0.5 C11.2895515,0.5 12.334496,1.52403872 12.334496,2.78934426 C12.334496,4.0546498 11.2895515,5.07868852 10.0015892,5.07868852 C8.71362684,5.07868852 7.66868232,4.0546498 7.66868232,2.78934426 C7.66868232,1.52403872 8.71362684,0.5 10.0015892,0.5 Z M10.0015892,1.95355191 C9.50970821,1.95355191 9.12223423,2.33363071 9.12223423,2.78934426 C9.12223423,3.24505781 9.50970821,3.62513661 10.0015892,3.62513661 C10.4934701,3.62513661 10.8809441,3.24505781 10.8809441,2.78934426 C10.8809441,2.33363071 10.4934701,1.95355191 10.0015892,1.95355191 Z" id="Combined-Shape" fill="#303134" fill-rule="nonzero"></path>
    </g>
</svg>