<?xml version="1.0" encoding="UTF-8"?>
<svg width="20px" height="20px" viewBox="0 0 20 20" version="1.1" xmlns="http://www.w3.org/2000/svg" xmlns:xlink="http://www.w3.org/1999/xlink">
    <title>icon/20x20/trand</title>
    <g id="icon/20x20/trand" stroke="none" stroke-width="1" fill="none" fill-rule="evenodd">
        <path d="M1.75,1 C2.16421356,1 2.5,1.33578643 2.5,1.74999998 L2.5,15.25 C2.5,16.4926407 3.50735931,17.5 4.75,17.5 L18.25,17.5 C18.6642136,17.5 19,17.8357864 19,18.25 C19,18.6642136 18.6642136,19 18.25,19 L4.75,19 C2.67996014,18.9975204 1.00247959,17.3200399 1,15.25 L1,1.74999998 C1,1.33578643 1.33578644,1 1.75,1 Z M5.5,9.24999999 C5.91421356,9.24999999 6.25,9.58578643 6.25,9.99999999 L6.25,15.25 C6.25,15.6642136 5.91421356,16 5.5,16 C5.08578644,16 4.75,15.6642136 4.75,15.25 L4.75,9.99999999 C4.75,9.58578643 5.08578644,9.24999999 5.5,9.24999999 Z M9.25,7.74999999 C9.66421356,7.74999999 10,8.08578643 10,8.49999999 L10,15.25 C10,15.6642136 9.66421356,16 9.25,16 C8.83578644,16 8.5,15.6642136 8.5,15.25 L8.5,8.49999999 C8.5,8.08578643 8.83578644,7.74999999 9.25,7.74999999 Z M13,9.99999999 C13.4142136,9.99999999 13.75,10.3357864 13.75,10.75 L13.75,15.25 C13.75,15.6642136 13.4142136,16 13,16 C12.5857864,16 12.25,15.6642136 12.25,15.25 L12.25,10.75 C12.25,10.3357864 12.5857864,9.99999999 13,9.99999999 Z M16.75,6.99999999 C17.1642136,6.99999999 17.5,7.33578643 17.5,7.74999999 L17.5,15.25 C17.5,15.6642136 17.1642136,16 16.75,16 C16.3357864,16 16,15.6642136 16,15.25 L16,7.74999999 C16,7.33578643 16.3357864,6.99999999 16.75,6.99999999 Z M17.71975,1.21974998 C18.0140342,0.935520827 18.4818136,0.939585704 18.7711139,1.22888605 C19.0604143,1.5181864 19.0644792,1.98596582 18.78025,2.28024999 L14.59075,6.46974999 C13.7121253,7.34810935 12.2878747,7.34810935 11.40925,6.46974999 L9.78025,4.84074999 C9.48333286,4.55789283 9.01666714,4.55789283 8.71975,4.84074999 L6.03025,7.53024999 C5.88963045,7.67091202 5.69889611,7.74999999 5.5,7.74999999 C5.19670308,7.74999999 4.92329946,7.56720436 4.80724152,7.28699091 C4.69118357,7.00677745 4.75531906,6.68424568 4.96975,6.46974999 L7.65925,3.78024999 C8.53787467,2.90189062 9.96212533,2.90189062 10.84075,3.78024999 L12.46975,5.40849999 C12.7626249,5.70128644 13.2373751,5.70128644 13.53025,5.40849999 Z" id="Combined-Shape" fill="#303134" fill-rule="nonzero"></path>
    </g>
</svg>