<?xml version="1.0" encoding="UTF-8"?>
<svg width="20px" height="20px" viewBox="0 0 20 20" version="1.1" xmlns="http://www.w3.org/2000/svg" xmlns:xlink="http://www.w3.org/1999/xlink">
    <title>icon/20x20/user</title>
    <g id="icon/20x20/user" stroke="none" stroke-width="1" fill="none" fill-rule="evenodd">
        <path d="M10,10 C12.5773288,10 14.6666667,7.87335256 14.6666667,5.25 C14.6666667,2.62664744 12.5773288,0.5 10,0.5 C7.42267117,0.5 5.33333333,2.62664744 5.33333333,5.25 C5.33590574,7.87226724 7.42373745,9.99738166 10,10 Z M10,2.08333333 C11.7182192,2.08333333 13.1111111,3.50109829 13.1111111,5.25 C13.1111111,6.99890171 11.7182192,8.41666667 10,8.41666667 C8.28178078,8.41666667 6.88888889,6.99890171 6.88888889,5.25 C6.88888889,3.50109829 8.28178078,2.08333333 10,2.08333333 Z M10,11.5833333 C6.13578364,11.5876963 3.00428643,14.7751131 3,18.7083333 C3,19.1455588 3.34822297,19.5 3.77777778,19.5 C4.20733258,19.5 4.55555556,19.1455588 4.55555556,18.7083333 C4.5555556,15.6477554 6.99311639,13.1666667 10,13.1666667 C13.0068836,13.1666667 15.4444444,15.6477554 15.4444444,18.7083333 C15.4444444,19.1455588 15.7926674,19.5 16.2222222,19.5 C16.651777,19.5 17,19.1455588 17,18.7083333 C16.9957136,14.7751131 13.8642164,11.5876963 10,11.5833333 Z" id="Combined-Shape" fill="#303134" fill-rule="nonzero"></path>
    </g>
</svg>