<?xml version="1.0" encoding="UTF-8"?>
<svg width="20px" height="20px" viewBox="0 0 20 20" version="1.1" xmlns="http://www.w3.org/2000/svg" xmlns:xlink="http://www.w3.org/1999/xlink">
    <title>icon/20x20/vr</title>
    <g id="icon/20x20/vr" stroke="none" stroke-width="1" fill="none" fill-rule="evenodd">
        <path d="M2.67488538,10.1377132 C1.75442148,10.40923 1.38426098,10.8778684 1.5644039,11.5436283 C1.83461826,12.5422681 2.50698475,14.9931639 9.07512389,14.9931639 L9.07512389,14.0922556 C9.07512389,14.000953 9.14913928,13.9269376 9.24044189,13.9269376 C9.26037881,13.9269376 9.28015132,13.9305439 9.29880452,13.9375823 L13.5901735,15.5568369 C13.6755972,15.5890697 13.718717,15.6844492 13.6864842,15.7698729 C13.6729826,15.8056552 13.6474923,15.8356494 13.6143561,15.8547455 L9.32298709,18.3278236 C9.24388046,18.3734121 9.14279512,18.3462402 9.09720666,18.2671336 C9.0827392,18.2420292 9.07512389,18.2135632 9.07512389,18.1845884 L9.07512389,17.4039644 C4.72848673,17.0789019 1.94793373,15.6807044 0.733464869,13.2093717 C-0.0827496631,11.1396268 1.40469674,9.88497955 2.67488538,10.1377132 Z M17.513335,10.0227799 C18.7478494,10.0227799 19.6510573,11.1396268 19.4789399,12.613821 C19.2289213,14.3150891 17.549863,15.7814702 14.4417651,17.0129644 C14.4085027,17.0273738 14.370721,17.0247955 14.338932,17.0074533 C14.2788186,16.974659 14.256672,16.8993424 14.2905243,16.8398061 L15.0580297,15.4897951 C15.0906388,15.432437 15.0726166,15.3595881 15.0170258,15.3240501 L14.0212445,14.6874672 C13.9898148,14.670055 13.9692853,14.6386937 13.963844,14.6032384 C13.9534566,14.5355538 13.9999051,14.472264 14.0675617,14.4616943 C16.4856249,14.143425 17.9287339,13.4148168 18.3968886,12.2758699 C19.131024,10.4898337 17.513335,10.0227799 17.513335,10.0227799 Z M10.1062024,2.35 C13.1671671,2.35 15.9247867,3.86163416 18.3517241,6.83308826 C18.5479568,7.07334847 18.5479568,7.41909316 18.3517241,7.65935337 C15.9247867,10.6308075 13.1671671,12.1424416 10.1062024,12.1424416 C7.04523765,12.1424416 4.28761806,10.6308075 1.86068071,7.65935337 C1.664448,7.41909316 1.664448,7.07334847 1.86068071,6.83308826 C4.28761806,3.86163417 7.04523765,2.35 10.1062024,2.35 Z M10.1062024,3.65387109 C7.65421732,3.65387109 5.4060854,4.79021446 3.33991907,7.10438657 L3.21550618,7.24553447 L3.33991907,7.38805506 C5.32661746,9.61322055 7.48155327,10.7494172 9.82418447,10.8335252 L10.1062024,10.8385705 C12.5581875,10.8385705 14.8063194,9.70222719 16.8724857,7.38805507 L16.9955062,7.24553447 L16.8724857,7.10438656 C14.8857873,4.87922106 12.7308515,3.74302447 10.3882203,3.6589164 L10.1062024,3.65387109 Z M10.1062024,4.20032198 C10.2743913,4.20032198 10.4395384,4.21265309 10.6006903,4.23641257 C10.5747218,4.36482735 10.5616551,4.49674862 10.5616551,4.63155952 C10.5616551,5.8223891 11.5812207,6.78774722 12.8389187,6.78774722 C12.9812996,6.78774722 13.1206286,6.77537524 13.255772,6.75170476 C13.2813478,6.90337128 13.2943714,7.05973798 13.2943714,7.21898476 C13.2943714,8.88614618 11.8669795,10.2376475 10.1062024,10.2376475 C8.34542526,10.2376475 6.91803336,8.88614618 6.91803336,7.21898476 C6.91803336,5.55182334 8.34542526,4.20032198 10.1062024,4.20032198 Z" id="Combined-Shape" fill="#303134" fill-rule="nonzero"></path>
    </g>
</svg>