<svg width="117.081" height="22" viewBox="0 0 117.081 22" xmlns="http://www.w3.org/2000/svg">
    <g fill="none" fill-rule="evenodd">
        <path d="M16.716 14.327c-1.311 2.436-3.938 4.3-6.967 4.3-4.34 0-7.856-3.415-7.856-7.627 0-4.213 3.517-7.626 7.856-7.626a7.933 7.933 0 0 1 6.075 2.788l3.207 1.925c-1.267-3.802-4.943-6.552-9.282-6.552C4.365 1.535 0 5.772 0 11s4.365 9.465 9.75 9.465c4.237 0 7.587-2.662 8.931-6.329v-3.96H20.4l-4.715-2.814-4.262 2.815h1.502v2.986a3.976 3.976 0 0 1-3.247 1.655c-2.18 0-3.947-1.715-3.947-3.83s1.766-3.83 3.947-3.83c1.089 0 2.074.429 2.79 1.122l1.537-1.115a5.92 5.92 0 0 0-4.327-1.858c-3.231 0-5.852 2.544-5.852 5.68 0 3.137 2.62 5.68 5.852 5.68 2.28 0 4.258-1.268 5.222-3.118l.011-3.657.937-.672.869.672v4.435z" fill="#C72C3F"/>
        <path d="M67.241 12.304a756.82 756.82 0 0 0-1.926 4.159h-.287l-.173-4.717h2.3s.316.084.086.558m-1.61-6.363h8.567s.604-.167.604.363v.502s.144.447-.403.447h-9.688s-.086-1.312.92-1.312m7.533 4.159-.23-.084v-.698h-3.307v.726h-4.83V8.909h11.24c1.266.028 1.266-.847 1.266-.847s.028-1.87 0-2.79c-.03-.921-1.206-.866-1.206-.866h-4.37V3.43h-3.422v.976h-3.852c-2.155.056-2.415 2.568-2.415 2.568s-.144 10.8-.202 11.247c-.057.446.23.326.23.326h5.607s1.436-3.062 1.524-3.535c.085-.475.66-.335.66-.335h4.758V16.7c0 .307-.273.265-.273.265h-3.996v1.488h6.315c.69 0 .843-.818.843-.818v-3.88c-.23-.669-.919-.892-.919-.892s-6.267-.028-6.44 0c-.173.028-.2-.14-.2-.14l.3-.935c0-.325.245-.237.245-.237h7.071V10.1s-3.966-.029-4.397 0M96.15 4.735h-3.127l-.043-1.208h-2.49l-.04 1.208h-3.13c-.77 0-1.394.606-1.394 1.354v9.055c0 .747.625 1.354 1.394 1.354h2.741l-.062 1.933h3.473l-.063-1.933h2.741c.77 0 1.395-.607 1.395-1.354V6.089c0-.748-.625-1.354-1.395-1.354zm-1.468 9.668h-1.342L93.09 6.83h.894c.384 0 .697.303.697.677v6.896zm-4.55 0h-1.592V6.83h1.84l-.249 7.573zM83.062 3.527l-2.823 8.137h1.48l-.152 6.767h3.062l-.467-10.385 1.555-4.52h-2.655zM39.56 5.826V4.303H24.253v1.523H39.56zM31.965 6.91c.554.003 1.535.076 1.535 1.654l.331 10.017h-3.999l.916-9.363s-.108-.472-.477-.4h-6.065V6.911zm-2.793 2.922s1.027.037.733 1.49l-2.378 7.256H23.84l3.716-6.894c.164-.164-.064-.182-.152-.183H24.24v-1.67zm7.151-.278h3.214V7.258h-4.124s-1.032.12-1.032 1.207v3.367c0 .193.194.758.273 1.002.078.244 1.893 5.745 1.893 5.745h3.666l-3.89-7.311V9.555zm18.553 7.062s2.43-.965 2.916-1.185c.487-.22.391-1.036-.457-1.036l-8.734-.007c-.452 0-.319-.622-.319-.622l.427-2.6h-1.922l-.294 1.403-.028.08-.124.281h-.214v1.114h.747c.286 0 .214.432.214.432s-.772.79-.96.972c-.186.178-.538.037-.538.037V10.41h11.112v.567h1.726V9.865c0-.323-.373-.378-.373-.378H45.522v-.648h12.602c.323 0 .323-.323.323-.323V6.604c0-.193-.21-.374-.428-.374h-3.487v-.717h3.844v-1.11h-5.394v-.899h-3.633v.899s-1.092.01-3.63 0c-2.538-.008-2.595 2.176-2.595 2.176l-.743 12h8.038s.947-.544 1.174-.667c.261-.138.468-.216.72-.053.4.26.99.72.99.72h5.312v-.872c-.874-.142-3.285-.521-3.713-.765-.428-.241-.026-.325-.026-.325zm-3.55-.43c-.239.081-.401.081-.401.081l-1.79-.594-.027-.08c-.026-.081.136-.135.136-.135l3.95.08s-1.628.566-1.867.647zm-5.538 1.268s-.181.128-.198-.123c-.03-.38-.015-1.01-.015-1.01l1.665-.136 1.042.621-2.494.648zm-.109-11.94h1.828v.709h-1.983s-.108-.71.155-.71zm1.916 2.384h-2.02l-.018-.71h2.013l.025.71zm2.834-2.385h1.43c.216 0 .392.194.392.365 0 .171-.176.345-.392.345h-1.43c-.215 0-.39-.174-.39-.345 0-.17.175-.365.39-.365zM51.796 7.9h-1.283c-.247 0-.448-.162-.448-.358 0-.198.201-.36.448-.36h1.283c.247 0 .447.162.447.36 0 .196-.2.358-.447.358zm5.727 3.611s.322.036.465.396c.14.36.423 1.565.423 1.565s.106.288-.286.288c-.39 0-1.709.016-1.709.016-.046 0-.291-.018-.372-.429-.091-.451-.407-1.836-.407-1.836zm-5.957-.37s-.153 1.19-.183 1.349c-.034.16-.06.381.156.381h3.445a.44.44 0 0 1 .374.433v.428l-6.05.001c-.085 0-.438-.05-.274-.837.188-.89.401-1.754.401-1.754zm2.905 0s.219.009.29.244c0 0 .09.693.101.763.012.072.044.225-.141.225h-2.446c-.03 0-.123-.013-.077-.232.054-.252.191-1 .191-1zm1.775-3.958c.247 0 .447.161.447.359 0 .196-.2.358-.447.358h-1.288c-.247 0-.448-.162-.448-.358 0-.198.2-.36.448-.36h1.288zm48.472-3.75-1.438 2.336s-.21.611.479.611h1.26s.718.041.209.906c-.51.863-2.128 3.222-2.128 3.222l-.02.062c-.053.178-.148.683.47.683h.761l-.173-1.388h1.072s.444-.077.564.68c.095.594.078.643.33 2.668h-1.547l-.037-.298h-.653l.51 5.542h-2.428l.25-5.542h-1.605v-1.787s.143-.262.352-.63l.148-.26c.26-.452.578-.992.849-1.403.568-.864-.09-.983-.09-.983h-1.475v-1.4l1.718-3.019h2.622zm-2.973 10.615-.072 3.753h-1.433l.301-3.753h1.204zm3.92 0 .402 3.753h-1.534l-.072-3.753h1.205zm9.506-10.635c.336.008 1.792.12 1.831 1.543.02.69.037 3.065.05 5.555l.004.624c.012 2.394.02 4.773.023 5.753l.001.223v.086l.001.157s-.225 1.072-1.394 1.072h-2.16v-1.441h1.012l.033-10.99s.147-.982-.843-.982h-3.74s-1.08.045-1.08 1.072l.001.257v.123l.001.296.018 5.074.004.968.02 5.12.001.24v.094l.001.127v.044h-2.351l-.044-13.361s.134-1.654 1.753-1.654zm-2.295 6.482v1.233h1.282v1.454h-2.79v1.424c0 .968.959.792.959.792h1.697v1.751h-3.298c-.808 0-.893-.844-.9-1.11V12.58h-.583v-1.454h1.283V9.894h2.35zM111.01 6.36l.463 1.49h.456l.462-1.49h1.565l-.463 1.49h.666v1.454h-4.916V7.85h.665l-.463-1.489h1.565z" fill="#595750"/>
    </g>
</svg>
