<?xml version="1.0" encoding="UTF-8"?>
<svg width="14px" height="14px" viewBox="0 0 14 14" version="1.1" xmlns="http://www.w3.org/2000/svg" xmlns:xlink="http://www.w3.org/1999/xlink">
    <title>check&amp;box/check_box_default</title>
    <g id="check&amp;box/check_box_default" stroke="none" stroke-width="1" fill="none" fill-rule="evenodd">
        <path d="M11.0833333,0 L2.91666667,0 C1.30583615,0 0,1.30583615 0,2.91666667 L0,11.0833333 C0,12.6941639 1.30583615,14 2.91666667,14 L11.0833333,14 C11.8568814,14 12.598747,13.6927092 13.1457281,13.1457281 C13.6927092,12.598747 14,11.8568814 14,11.0833333 L14,2.91666667 C14,2.14311857 13.6927092,1.40125299 13.1457281,0.854271888 C12.598747,0.307290784 11.8568814,0 11.0833333,0 Z M12.8333333,11.0833333 C12.8333333,12.0498316 12.0498316,12.8333333 11.0833333,12.8333333 L2.91666667,12.8333333 C1.95016835,12.8333333 1.16666667,12.0498316 1.16666667,11.0833333 L1.16666667,2.91666667 C1.16666667,1.95016835 1.95016835,1.16666667 2.91666667,1.16666667 L11.0833333,1.16666667 C12.0498316,1.16666667 12.8333333,1.95016835 12.8333333,2.91666667 L12.8333333,11.0833333 Z" id="Shape" fill="#7F8189" fill-rule="nonzero"></path>
    </g>
</svg>