<?xml version="1.0" encoding="UTF-8"?>
<svg width="14px" height="14px" viewBox="0 0 14 14" version="1.1" xmlns="http://www.w3.org/2000/svg" xmlns:xlink="http://www.w3.org/1999/xlink">
    <title>check&amp;box/check_box_act</title>
    <g id="check&amp;box/check_box_act" stroke="none" stroke-width="1" fill="none" fill-rule="evenodd">
        <path d="M11.0833333,0 C11.8568814,0 12.598747,0.307290784 13.1457281,0.854271888 C13.6927092,1.40125299 14,2.14311857 14,2.91666667 L14,11.0833333 C14,11.8568814 13.6927092,12.598747 13.1457281,13.1457281 C12.598747,13.6927092 11.8568814,14 11.0833333,14 L2.91666667,14 C1.30583615,14 0,12.6941639 0,11.0833333 L0,2.91666667 C0,1.30583615 1.30583615,0 2.91666667,0 Z M11.7042448,4.26754708 C11.3071827,3.91081764 10.6629548,3.91081764 10.2658926,4.26754708 L6.33882451,7.79571207 L4.73533219,6.35385995 C4.33827004,5.99713051 3.69404214,5.99713051 3.29697999,6.35385995 C2.90100667,6.71058939 2.90100667,7.28937801 3.29697999,7.64610744 L5.61982988,9.73300726 C5.81836096,9.91133937 6.0775039,10 6.33882451,10 C6.60014512,10 6.85783628,9.91195891 7.05745619,9.73261596 L11.703156,5.55881634 C12.0987663,5.20339121 12.0987663,4.6229722 11.7042448,4.26754708 Z" id="Combined-Shape" fill="#FFB01D" fill-rule="nonzero"></path>
    </g>
</svg>