<?xml version="1.0" encoding="UTF-8"?>
<svg width="24px" height="24px" viewBox="0 0 24 24" version="1.1" xmlns="http://www.w3.org/2000/svg" xmlns:xlink="http://www.w3.org/1999/xlink">
    <title>icon/circle_img_funtion/AI</title>
    <g id="icon/circle_img_funtion/AI" stroke="none" stroke-width="1" fill="none" fill-rule="evenodd">
        <circle id="Oval-Copy" stroke="#FFFFFF" fill-opacity="0.8" fill="#303134" cx="12" cy="12" r="11.5"></circle>
        <g id="icon/vr" transform="translate(4.800000, 4.800000)" fill="#FFFFFF" fill-rule="nonzero">
            <path d="M11.399525,7.2 L11.399525,10.8 C11.399525,11.1312 11.1307362,11.4 10.79955,11.4 C10.4683638,11.4 10.199575,11.1312 10.199575,10.8 L10.199575,7.2 C10.199575,6.8688 10.4683638,6.6 10.79955,6.6 C11.1307362,6.6 11.399525,6.8688 11.399525,7.2 Z M6.94771051,4.0302 L8.79023374,10.6476 C8.89522937,11.0256 8.61144119,11.4 8.21845756,11.4 C7.95266864,11.4 7.71987834,11.2236 7.64728136,10.968 L7.26149744,9.6 L4.13802758,9.6 L3.75224366,10.968 C3.68024666,11.2236 3.44685638,11.4 3.18106746,11.4 L3.18106746,11.4 C2.7886838,11.4 2.50429565,11.0256 2.60929128,10.6476 L4.46381401,3.9828 C4.54841048,3.618 4.78840048,3.3108 5.12258656,3.1398 C5.46337236,2.9646 5.85455606,2.9538 6.22594059,3.1098 C6.57812591,3.2574 6.84811466,3.6 6.94831049,4.0308 L6.94771051,4.0302 Z M6.92311154,8.4 L5.76575976,4.299 C5.74836048,4.2306 5.65116453,4.2306 5.63436523,4.299 L4.47701346,8.4 L6.92311154,8.4 Z M13.800025,6 C13.4688388,6 13.20005,6.2688 13.20005,6.6 L13.20005,11.4 C13.20005,12.3924 12.3924836,13.2 11.400125,13.2 L2.99987501,13.2 C2.00751635,13.2 1.19995,12.3924 1.19995,11.4 L1.19995,3 C1.19995,2.0076 2.00751635,1.2 2.99987501,1.2 L7.79967501,1.2 C8.13086121,1.2 8.39965001,0.9312 8.39965001,0.6 C8.39965001,0.2688 8.13086121,0 7.79967501,0 L2.99987501,0 C1.34574393,0 0,1.3458 0,3 L0,11.4 C0,13.0542 1.34574393,14.4 2.99987501,14.4 L11.399525,14.4 C13.0536561,14.4 14.3994,13.0542 14.3994,11.4 L14.3994,6.6 C14.3994,6.2688 14.1306112,6 13.799425,6 L13.800025,6 Z M9.69019624,3.108 L10.8109495,3.5802 L11.2579309,4.6992 C11.3545269,4.9416 11.5891171,5.1 11.8501062,5.1 C12.1110954,5.1 12.3450856,4.941 12.4422816,4.6992 L12.886863,3.5868 L13.9992167,3.1422 C14.2416066,3.0456 14.4,2.811 14.4,2.55 C14.4,2.289 14.2410066,2.055 13.9992167,1.9578 L12.886863,1.5132 L12.4422816,0.4008 C12.3444856,0.159 12.1098954,0 11.8495063,0 C11.5891171,0 11.3545269,0.159 11.2573309,0.4008 L10.8151494,1.5066 L9.71119537,1.9248 C9.46760552,2.0172 9.30441232,2.2488 9.29961252,2.5092 C9.29481272,2.7702 9.44960627,3.0072 9.68959627,3.1086 L9.69019624,3.108 Z" id="Shape"></path>
        </g>
    </g>
</svg>