<?xml version="1.0" encoding="UTF-8"?>
<svg width="24px" height="24px" viewBox="0 0 24 24" version="1.1" xmlns="http://www.w3.org/2000/svg" xmlns:xlink="http://www.w3.org/1999/xlink">
    <title>icon/circle_img_funtion/live</title>
    <g id="icon/circle_img_funtion/live" stroke="none" stroke-width="1" fill="none" fill-rule="evenodd">
        <circle id="Oval" stroke="#FFFFFF" fill-opacity="0.8" fill="#303134" cx="12" cy="12" r="11.5"></circle>
        <g id="icon/真人導覽" transform="translate(4.000000, 5.600000)" fill="#FFFFFF">
            <path d="M7.96001599,0.000830351674 C10.2830068,-0.0423413628 12.2761295,1.60261764 12.6107957,3.83914581 C12.9454618,6.07567398 11.5173131,8.20508962 9.27804878,8.80809346 C10.4317473,8.9660786 13.5024388,10.0794922 13.5024388,12.8 L2.83769269,12.8 C3.46277489,10.474567 5.0497401,9.17773668 6.98720512,8.85056509 C4.72610956,8.33087099 3.21567373,6.25582837 3.46277489,4.00856562 C3.70963615,1.76130286 5.63702519,0.0437687055 7.96001599,0.000830351674 Z M6.85261895,2.51972487 C6.76937225,2.51972487 6.70195922,2.5852992 6.70195922,2.66627534 L6.70195922,6.56409775 C6.70195922,6.5893007 6.70867653,6.61403692 6.72139144,6.63597282 C6.76217513,6.70668109 6.85405838,6.73165067 6.9265094,6.69197937 L10.4883647,4.74295148 C10.512595,4.72988329 10.532507,4.71051436 10.5459416,4.68717829 C10.5867253,4.61647003 10.5610556,4.52709291 10.4883647,4.48742161 L6.9265094,2.53862708 C6.90395842,2.52625897 6.87852859,2.51972487 6.85261895,2.51972487 Z M1.63665275,0 C1.67430611,0 1.71162477,0.00548867643 1.74760465,0.0160086396 C1.87411993,0.0533621319 1.96716556,0.150938602 1.99009227,0.270622241 C2.01301898,0.390153416 1.96181041,0.510751834 1.85638101,0.585001429 C1.2289924,1.05535051 0.830201508,1.71704094 0.731466037,2.44962678 C0.668041049,3.10262681 0.856307836,3.75745641 1.26112327,4.29595655 C1.36705471,4.44537052 1.3198625,4.64784169 1.15468978,4.74602802 C1.09561584,4.78139949 1.0275051,4.8 0.957051486,4.8 C0.933120685,4.8 0.909189885,4.79771305 0.885259084,4.79329162 C0.793050196,4.77682559 0.712890381,4.72895213 0.659673636,4.65881905 C0.163151361,3.99667122 -0.0654463559,3.19197027 0.0162195928,2.39306292 C0.128677621,1.49200521 0.613820214,0.675717054 1.38194871,0.0962043007 C1.45424315,0.0327795953 1.54277038,0 1.63665275,0 Z M14.359643,0 C14.4547251,0 14.5441751,0.034199943 14.6112627,0.0959118401 C15.3816925,0.675486874 15.8662134,1.48762152 15.9821672,2.38776402 C16.0673104,3.18317869 15.8456731,3.98756135 15.3578391,4.65134425 C15.2920768,4.74391209 15.1817551,4.799088 15.0621571,4.8 C14.9932474,4.8 14.9263255,4.78160803 14.8685143,4.74695209 C14.7055165,4.64876025 14.659135,4.44629659 14.7656468,4.29596884 C15.1645277,3.75910573 15.3483972,3.10565882 15.2819722,2.4570759 C15.1829146,1.72063713 14.7833711,1.05974223 14.1572209,0.593407011 C14.0437519,0.518775135 13.9884254,0.398239336 14.0089658,0.27603154 C14.0293405,0.154127743 14.1216066,0.0542639096 14.2498183,0.0159599734 C14.285267,0.00531999113 14.3222065,0 14.359643,0 Z M13.1516204,0.955789607 C13.2523345,0.955941607 13.3472509,0.993029545 13.415001,1.05778144 C13.8438642,1.47106875 14.1191715,2.01112385 14.190069,2.5782349 C14.2452298,3.07269008 14.1456753,3.56957725 13.9016754,4.01448051 C13.8427047,4.12589632 13.7186342,4.1973362 13.5849561,4.1973362 C13.5286357,4.1970322 13.4738061,4.18532822 13.4246086,4.16344026 C13.2501811,4.08394439 13.178621,3.88786472 13.265752,3.72704899 C13.4502841,3.39416954 13.526151,3.02101016 13.4845733,2.64861079 C13.4287498,2.2195155 13.2192048,1.81291618 12.8942031,1.5025327 C12.7618502,1.37211691 12.7698013,1.16570126 12.9127557,1.04318946 C12.9780211,0.986645556 13.0625016,0.955789607 13.1516204,0.955789607 Z M2.84306633,0.927205158 C2.86783387,0.927205158 2.89243406,0.92964457 2.91669956,0.934066004 C2.9799572,0.946110599 3.03819439,0.973706445 3.08555395,1.01380428 C3.23014284,1.13592733 3.23884495,1.34281993 3.10530104,1.4748531 C2.77897195,1.7870978 2.56878254,2.19600419 2.514227,2.62549312 C2.47506751,3.00101007 2.55422324,3.37469746 2.74282472,3.70798209 C2.83034786,3.86822094 2.75872281,4.06535591 2.58250509,4.14631388 C2.53297001,4.16872598 2.47690834,4.18077057 2.42101403,4.18077057 C2.39607914,4.18077057 2.37114425,4.17833116 2.3467114,4.17375727 C2.2409473,4.15347966 2.14924046,4.08868278 2.10137886,4.00010164 C1.85303405,3.55597624 1.74927813,3.0601658 1.80115609,2.56496522 C1.86843009,1.99429533 2.14438736,1.4495442 2.57781934,1.03225233 C2.64659947,0.965320967 2.74315942,0.927205158 2.84306633,0.927205158 Z" id="Combined-Shape"></path>
        </g>
    </g>
</svg>