<?xml version="1.0" encoding="UTF-8"?>
<svg width="24px" height="24px" viewBox="0 0 24 24" version="1.1" xmlns="http://www.w3.org/2000/svg" xmlns:xlink="http://www.w3.org/1999/xlink">
    <title>icon/circle_img_funtion/mackup</title>
    <g id="icon/circle_img_funtion/mackup" stroke="none" stroke-width="1" fill="none" fill-rule="evenodd">
        <circle id="Oval-Copy" stroke="#FFFFFF" fill-opacity="0.8" fill="#303134" cx="12" cy="12" r="11.5"></circle>
        <g id="icon/vr" transform="translate(2.500000, 3.500000)" fill="#FFFFFF">
            <path d="M15.93,2.88 L14.85,0 L13.77,2.88 L11.7,3.6 L13.77,4.32 L14.85,7.2 L15.93,4.32 L18,3.6 L15.93,2.88 L15.93,2.88 Z M14.13,13.68 L13.05,10.8 L11.97,13.68 L9.9,14.4 L11.97,15.12 L13.05,18 L14.13,15.12 L16.2,14.4 L14.13,13.68 L14.13,13.68 L14.13,13.68 Z M8.23846154,6.75 L6.3,1.8 L4.36153846,6.75 L0,8.1 L4.36153846,9.45 L6.3,14.4 L8.23846154,9.45 L12.6,8.1 L8.23846154,6.75 L8.23846154,6.75 L8.23846154,6.75 Z" id="stars"></path>
        </g>
    </g>
</svg>