<?xml version="1.0" encoding="UTF-8"?>
<svg width="24px" height="24px" viewBox="0 0 24 24" version="1.1" xmlns="http://www.w3.org/2000/svg" xmlns:xlink="http://www.w3.org/1999/xlink">
    <title>icon/circle_img_funtion/vr</title>
    <g id="icon/circle_img_funtion/vr" stroke="none" stroke-width="1" fill="none" fill-rule="evenodd">
        <circle id="Oval-Copy" stroke="#FFFFFF" fill-opacity="0.8" fill="#303134" cx="12" cy="12" r="11.5"></circle>
        <g id="icon/vr" transform="translate(3.450000, 5.250000)" fill="#FFFFFF">
            <path d="M1.95739684,5.60516791 C1.12897933,5.86622286 0.795834886,6.31680402 0.957963506,6.9569114 C1.20115644,7.91707245 1.80628627,10.2735323 7.71761151,10.2735323 L7.71761151,9.39786959 C7.71761151,9.31569724 7.78422536,9.24908339 7.8663977,9.24908339 C7.88545978,9.24908339 7.90434428,9.25274635 7.92202401,9.25987304 L11.8021194,10.8239366 C11.8783328,10.8546582 11.9152112,10.9413461 11.8844897,11.0175595 C11.8726008,11.0470531 11.8515753,11.0719618 11.8244961,11.0886331 L7.94440066,13.4774181 C7.87442622,13.520498 7.78277761,13.4986956 7.73969777,13.4287212 C7.72525744,13.4052658 7.71761151,13.3782623 7.71761151,13.3507182 L7.71761151,12.5914418 C3.80563806,12.2789044 1.30314035,10.934581 0.210118382,8.55847169 C-0.524474697,6.56847657 0.814227066,5.36217236 1.95739684,5.60516791 Z M15.3120015,5.4946631 C16.4230645,5.4946631 17.2359516,6.56847657 17.0810459,7.9858683 C16.855802,9.62323589 15.3418241,11.0343108 12.5391123,12.2190929 C12.5104645,12.2334645 12.4771568,12.2320135 12.448634,12.217655 C12.3935862,12.1899438 12.3714256,12.1228544 12.4009808,12.0687349 L13.1076435,10.740849 C13.1343664,10.6906342 13.1190413,10.6283554 13.0720678,10.5962752 L12.1472207,9.9646585 C12.1190707,9.95059362 12.1017176,9.92309959 12.0970667,9.89224982 C12.0878792,9.83130922 12.1298335,9.77445921 12.1907846,9.7653414 C14.3790983,9.46082227 15.68457,8.75935476 16.1071997,7.66093886 C16.7679216,5.94372073 15.3120015,5.4946631 15.3120015,5.4946631 Z M8.64558215,0 C11.211286,0 13.5340948,1.3602493 15.6140087,4.0807479 C13.5340948,6.8012465 11.211286,8.1614958 8.64558215,8.1614958 C6.07987833,8.1614958 3.75706946,6.8012465 1.67715556,4.0807479 C3.75706946,1.3602493 6.07987833,0 8.64558215,0 Z M8.64558215,1.15221117 C7.06088274,1.15221117 5.77623003,2.45163758 5.77623003,4.05456128 C5.77623003,5.65748499 7.06088274,6.9569114 8.64558215,6.9569114 C10.2302816,6.9569114 11.5149343,5.65748499 11.5149343,4.05456128 C11.5149343,3.90145047 11.5032131,3.75110877 11.4801948,3.60528614 C11.3585657,3.62804457 11.2331696,3.63993984 11.1050268,3.63993984 C9.97309866,3.63993984 9.0554896,2.71177812 9.0554896,1.56683262 C9.0554896,1.43721615 9.06724963,1.31037796 9.09062126,1.18691116 C8.94558459,1.16406716 8.79695219,1.15221117 8.64558215,1.15221117 Z" id="Combined-Shape"></path>
        </g>
    </g>
</svg>