<?xml version="1.0" encoding="UTF-8"?>
<svg width="24px" height="24px" viewBox="0 0 24 24" version="1.1" xmlns="http://www.w3.org/2000/svg" xmlns:xlink="http://www.w3.org/1999/xlink">
    <title>icon/社群/line</title>
    <g id="icon/社群/line" stroke="none" stroke-width="1" fill="none" fill-rule="evenodd">
        <g id="Group-13">
            <path d="M24,12 C24,18.62745 18.62745,24 12,24 C5.37255,24 0,18.62745 0,12 C0,5.37255 5.37255,0 12,0 C18.62745,0 24,5.37255 24,12" id="Fill-1" fill="#4CC764"></path>
            <path d="M20.00286,11.3010825 C20.00286,7.7164575 16.40916,4.8000075 11.99181,4.8000075 C7.574835,4.8000075 3.980835,7.7164575 3.980835,11.3010825 C3.980835,14.5147575 6.830835,17.2061325 10.680585,17.7149325 C10.941435,17.7713325 11.29656,17.8869825 11.386335,18.1100325 C11.46711,18.3124575 11.43921,18.6297825 11.412285,18.8343825 C11.412285,18.8343825 11.31831,19.3996575 11.29791,19.5201825 C11.26296,19.7226075 11.136885,20.3122575 11.99181,19.9520325 C12.846885,19.5917325 16.605285,17.2354575 18.286035,15.3009825 L18.28566,15.3009825 C19.44666,14.0277825 20.00286,12.7356825 20.00286,11.3010825" id="Fill-3" fill="#FFFFFF"></path>
            <path d="M17.3377875,13.37097 C17.4222375,13.37097 17.4907875,13.302495 17.4907875,13.218045 L17.4907875,12.649845 C17.4907875,12.56577 17.4219375,12.49692 17.3377875,12.49692 L15.8082375,12.49692 L15.8082375,11.90697 L17.3377875,11.90697 C17.4222375,11.90697 17.4907875,11.838495 17.4907875,11.75397 L17.4907875,11.185845 C17.4907875,11.101695 17.4219375,11.03292 17.3377875,11.03292 L15.8082375,11.03292 L15.8082375,10.442895 L17.3377875,10.442895 C17.4222375,10.442895 17.4907875,10.37442 17.4907875,10.28997 L17.4907875,9.721845 C17.4907875,9.637695 17.4219375,9.568845 17.3377875,9.568845 L15.0901125,9.568845 L15.0871125,9.568845 C15.0026625,9.568845 14.9341875,9.63732 14.9341875,9.721845 L14.9341875,9.725145 L14.9341875,9.72537 L14.9341875,13.215345 L14.9341875,13.21557 L14.9341875,13.218045 C14.9341875,13.302495 15.0026625,13.37097 15.0871125,13.37097 L15.0901125,13.37097 L17.3377875,13.37097 Z" id="Fill-5" fill="#4CC764"></path>
            <path d="M9.01248,13.37097 C9.09693,13.37097 9.165405,13.302495 9.165405,13.218045 L9.165405,12.649845 C9.165405,12.56577 9.09663,12.49692 9.01248,12.49692 L7.482855,12.49692 L7.482855,9.721845 C7.482855,9.637695 7.41408,9.568845 7.32993,9.568845 L6.761805,9.568845 C6.67728,9.568845 6.608805,9.63732 6.608805,9.721845 L6.608805,13.215345 L6.608805,13.21557 L6.608805,13.218045 C6.608805,13.302495 6.67728,13.37097 6.761805,13.37097 L6.764805,13.37097 L9.01248,13.37097 Z" id="Fill-7" fill="#4CC764"></path>
            <path d="M10.367385,9.5688525 L9.79926,9.5688525 C9.71481,9.5688525 9.64626,9.6373275 9.64626,9.7217775 L9.64626,13.2180525 C9.64626,13.3025025 9.71481,13.3709775 9.79926,13.3709775 L10.367385,13.3709775 C10.451835,13.3709775 10.52031,13.3025025 10.52031,13.2180525 L10.52031,9.7217775 C10.52031,9.6373275 10.451835,9.5688525 10.367385,9.5688525" id="Fill-9" fill="#4CC764"></path>
            <path d="M14.2350675,9.5688525 L13.6669425,9.5688525 C13.5824175,9.5688525 13.5139425,9.6373275 13.5139425,9.7217775 L13.5139425,11.7983775 L11.9143425,9.6381525 C11.9106675,9.6326025 11.9064675,9.6273525 11.9020425,9.6223275 C11.9017425,9.6219525 11.9014425,9.6215775 11.9010675,9.6212025 C11.8981425,9.6179025 11.8950675,9.6147525 11.8918425,9.6116775 C11.8909425,9.6107775 11.8899675,9.6099525 11.8889925,9.6090525 C11.8862925,9.6066525 11.8835175,9.6043275 11.8806675,9.6020775 C11.8793175,9.6010275 11.8779675,9.5999775 11.8765425,9.5990025 C11.8739175,9.5970525 11.8712175,9.5951775 11.8684425,9.5933775 C11.8669425,9.5924025 11.8653675,9.5915025 11.8637925,9.5906025 C11.8610175,9.5889525 11.8582425,9.5873775 11.8553175,9.5858775 C11.8537425,9.5850525 11.8520925,9.5843025 11.8504425,9.5835525 C11.8475175,9.5822025 11.8445925,9.5809275 11.8415175,9.5797275 C11.8398675,9.5790525 11.8382175,9.5784525 11.8365675,9.5778525 C11.8334925,9.5768025 11.8304175,9.5758275 11.8272675,9.5749275 C11.8254675,9.5744025 11.8236675,9.5739525 11.8218675,9.5735025 C11.8187925,9.5727525 11.8157925,9.5720775 11.8127925,9.5715525 C11.8106175,9.5711025 11.8084425,9.5708025 11.8062675,9.5705025 C11.8034925,9.5701275 11.8007925,9.5697525 11.7980175,9.5695275 C11.7952425,9.5693025 11.7925425,9.5692275 11.7898425,9.5691525 C11.7881175,9.5690775 11.7863925,9.5688525 11.7845925,9.5688525 L11.2195425,9.5688525 C11.1350925,9.5688525 11.0666175,9.6373275 11.0666175,9.7217775 L11.0666175,13.2180525 C11.0666175,13.3025025 11.1350925,13.3709775 11.2195425,13.3709775 L11.7877425,13.3709775 C11.8721925,13.3709775 11.9406675,13.3025025 11.9406675,13.2180525 L11.9406675,11.1421275 L13.5422925,13.3050525 C13.5533175,13.3206525 13.5668175,13.3334025 13.5817425,13.3436025 C13.5823425,13.3439775 13.5828675,13.3444275 13.5835425,13.3448025 C13.5866175,13.3469025 13.5898425,13.3488525 13.5931425,13.3506525 C13.5945675,13.3514775 13.5960675,13.3523025 13.5975675,13.3530525 C13.5999675,13.3543275 13.6024425,13.3555275 13.6049925,13.3566525 C13.6074675,13.3577775 13.6099425,13.3589025 13.6124925,13.3598775 C13.6140675,13.3605525 13.6157175,13.3610775 13.6173675,13.3616775 C13.6208175,13.3628775 13.6242675,13.3640775 13.6278675,13.3650525 C13.6286175,13.3652775 13.6293675,13.3654275 13.6300425,13.3656525 C13.6428675,13.3689525 13.6562175,13.3709775 13.6700175,13.3709775 L14.2350675,13.3709775 C14.3195175,13.3709775 14.3879925,13.3025025 14.3879925,13.2180525 L14.3879925,9.7217775 C14.3879925,9.6373275 14.3195175,9.5688525 14.2350675,9.5688525" id="Fill-11" fill="#4CC764"></path>
        </g>
    </g>
</svg>