<?xml version="1.0" encoding="UTF-8"?>
<svg width="20px" height="20px" viewBox="0 0 20 20" version="1.1" xmlns="http://www.w3.org/2000/svg" xmlns:xlink="http://www.w3.org/1999/xlink">
    <title>icon/symbol/close</title>
    <g id="icon/symbol/close" stroke="none" stroke-width="1" fill="none" fill-rule="evenodd">
        <path d="M3.23804506,4.32078202 C2.51622043,3.59895738 3.59895738,2.51622043 4.32078202,3.23804506 L10,8.91761796 L15.679218,3.23804506 C15.9510267,2.96623638 16.3763629,2.9415265 16.6760856,3.16391542 L16.7619549,3.23804506 C17.0609445,3.53703462 17.0609445,4.02179246 16.7619549,4.32078202 L11.081425,10 L16.7619549,15.679218 C17.4597187,16.3769818 16.47122,17.4119981 15.7525233,16.8282024 L15.679218,16.7619549 L10,11.081425 L4.32078202,16.7619549 C4.04897333,17.0337636 3.62363713,17.0584735 3.32391435,16.8360846 L3.23804506,16.7619549 C2.93905551,16.4629654 2.93905551,15.9782075 3.23804506,15.679218 L8.91761796,10 L3.23804506,4.32078202 Z" id="Combined-Shape" fill="#303134" fill-rule="nonzero"></path>
    </g>
</svg>