<?xml version="1.0" encoding="UTF-8"?>
<svg width="20px" height="20px" viewBox="0 0 20 20" version="1.1" xmlns="http://www.w3.org/2000/svg" xmlns:xlink="http://www.w3.org/1999/xlink">
    <title>icon/more</title>
    <g id="icon/more" stroke="none" stroke-width="1" fill="none" fill-rule="evenodd">
        <path d="M10,1 C5.02943725,1 1,5.02943725 1,10 C1,14.9705627 5.02943725,19 10,19 C14.9705627,19 19,14.9705627 19,10 C18.9946264,5.03166479 14.9683352,1.00537364 10,1 L10,1 Z M10,17.5 C5.85786438,17.5 2.5,14.1421356 2.5,10 C2.5,5.85786438 5.85786438,2.5 10,2.5 C14.1421356,2.5 17.5,5.85786438 17.5,10 C17.4954532,14.1402508 14.1402508,17.4954532 10,17.5 L10,17.5 Z M13.75,10 C13.75,10.4142136 13.4142136,10.75 13,10.75 L10.75,10.75 L10.75,13 C10.75,13.4142136 10.4142136,13.75 10,13.75 C9.58578644,13.75 9.25,13.4142136 9.25,13 L9.25,10.75 L7,10.75 C6.58578644,10.75 6.25,10.4142136 6.25,10 C6.25,9.58578644 6.58578644,9.25 7,9.25 L9.25,9.25 L9.25,7 C9.25,6.58578644 9.58578644,6.25 10,6.25 C10.4142136,6.25 10.75,6.58578644 10.75,7 L10.75,9.25 L13,9.25 C13.4142136,9.25 13.75,9.58578644 13.75,10 Z" id="Shape" fill="#303134" fill-rule="nonzero"></path>
    </g>
</svg>