<?xml version="1.0" encoding="UTF-8"?>
<svg width="20px" height="20px" viewBox="0 0 20 20" version="1.1" xmlns="http://www.w3.org/2000/svg" xmlns:xlink="http://www.w3.org/1999/xlink">
    <title>icon/symbol/plus</title>
    <g id="icon/symbol/plus" stroke="none" stroke-width="1" fill="none" fill-rule="evenodd">
        <path d="M10,3.2 C10.4418278,3.2 10.8,3.5581722 10.8,4 L10.8,9.2 L16,9.2 C16.407841,9.2 16.7444016,9.50518815 16.7937669,9.8996497 L16.8,10 C16.8,10.4418278 16.4418278,10.8 16,10.8 L10.8,10.8 L10.8,16 C10.8,16.407841 10.4948119,16.7444016 10.1003503,16.7937669 L10,16.8 C9.5581722,16.8 9.2,16.4418278 9.2,16 L9.2,10.8 L4,10.8 C3.59215895,10.8 3.25559842,10.4948119 3.20623314,10.1003503 L3.2,10 C3.2,9.5581722 3.5581722,9.2 4,9.2 L9.2,9.2 L9.2,4 C9.2,3.59215895 9.50518815,3.25559842 9.8996497,3.20623314 L10,3.2 Z" id="Path" fill="#303134" fill-rule="nonzero"></path>
    </g>
</svg>